<?xml version="1.0" encoding="UTF-8"?>
<svg id="Ebene_2" data-name="Ebene 2" xmlns="http://www.w3.org/2000/svg" viewBox="0 0 341.32 573.1">
  <defs>
    <style>
      .cls-1 {
        fill: none;
        stroke: #fff;
        stroke-miterlimit: 10;
        stroke-width: 6px;
      }
    </style>
  </defs>
  <g id="Ebene_1-2" data-name="Ebene 1">
    <path class="cls-1" d="M242.77,351.04c-17.18-7.41-122.74-70.76,3.22-129.94,56.93-25.69,92.33-57.69,92.33-104.17,0-56.52-60.59-103.45-140.06-112.39-4.24-.48-8.54-.85-12.88-1.1-4.85-.29-9.76-.44-14.72-.44s-9.87.15-14.72.44c-4.34.25-8.64.62-12.88,1.1C63.59,13.48,3,60.41,3,116.93c0,46.48,35.4,78.48,92.33,104.17,125.96,59.18,20.4,122.53,3.22,129.94C41.86,378.84,3,408.84,3,456.14c0,56.55,60.59,103.48,140.06,112.42,4.24.48,8.54.85,12.88,1.1,4.85.29,9.76.44,14.72.44s9.87-.15,14.72-.44c4.34-.25,8.64-.62,12.88-1.1,79.47-8.94,140.06-55.87,140.06-112.42,0-47.3-38.86-77.3-95.55-105.1Z"/>
  </g>
</svg>