<?xml version="1.0" encoding="UTF-8"?>
<svg id="Ebene_1" data-name="Ebene 1" xmlns="http://www.w3.org/2000/svg" viewBox="0 0 147.4 90.71">
  <defs>
    <style>
      .cls-1, .cls-2, .cls-3 {
        fill: #38386a;
      }

      .cls-4 {
        letter-spacing: 0em;
      }

      .cls-5, .cls-6, .cls-7 {
        opacity: .5;
      }

      .cls-5, .cls-6, .cls-7, .cls-8, .cls-9 {
        fill: none;
        stroke-width: .5px;
      }

      .cls-5, .cls-6, .cls-8 {
        stroke: #38386a;
      }

      .cls-5, .cls-6, .cls-8, .cls-9 {
        stroke-linecap: round;
      }

      .cls-5, .cls-8, .cls-9 {
        stroke-linejoin: round;
      }

      .cls-6, .cls-7 {
        stroke-miterlimit: 10;
      }

      .cls-7, .cls-9 {
        stroke: #39396a;
      }

      .cls-2 {
        font-size: 4.23px;
      }

      .cls-2, .cls-3 {
        font-family: F37Oracle-SemiBold, 'F37 Oracle';
        font-weight: 600;
      }

      .cls-3 {
        font-size: 2.32px;
      }

      .cls-10 {
        letter-spacing: -.01em;
      }

      .cls-11 {
        letter-spacing: 0em;
      }
    </style>
  </defs>
  <path class="cls-7" d="M11.12-25.23c-7.08,1.37-13.91,4.01-20.42,7.88C-18.42-11.93-45.13,14.8-55.18,24.87l-1.7,1.7c-6.44,6.44-9.57,12.38-9.57,18.15.01,5.76,3.14,11.69,9.56,18.11l2,2c10.88,10.91,36.38,36.45,45.59,41.94,6.51,3.87,13.35,6.51,20.42,7.88M-158.62,127.96c1.22-.66,2.44-1.34,3.64-2.06,9.73-5.78,23.58-19.49,36.97-32.75l.04-.04c5.18-5.13,10.08-9.97,14.42-14.03,3.85-3.6,9.61-5.66,15.79-5.66s11.91,2.06,15.76,5.64c4.6,4.29,9.68,9.31,15.06,14.64,13.16,13.01,26.77,26.47,36.4,32.2,10.01,5.95,20.62,9.74,31.66,11.33M-158.62-11.37c11.85,10.05,30.1,28.31,38.01,36.24l1.7,1.7c6.44,6.44,9.57,12.38,9.57,18.15-.01,5.76-3.13,11.69-9.56,18.11l-1.99,1.99c-8.55,8.57-26.12,26.17-37.73,35.99M11.12-47.81c-11.05,1.58-21.66,5.37-31.66,11.32-9.64,5.73-23.26,19.21-36.44,32.24-5.36,5.3-10.42,10.31-15.01,14.6-3.85,3.58-9.6,5.64-15.77,5.64s-11.94-2.06-15.79-5.66c-4.33-4.05-9.23-8.9-14.41-14.03l-.03-.02c-13.4-13.27-27.26-26.99-36.99-32.77-1.2-.71-2.42-1.4-3.64-2.05"/>
  <polyline class="cls-9" points="61.12 40 58.83 38.25 61.47 37.1"/>
  <polyline class="cls-9" points="83.51 37.02 86.2 38.06 83.99 39.9"/>
  <path class="cls-8" d="M57.45,44.14c4.71.85,9.46,1.29,14.26,1.31"/>
  <path class="cls-8" d="M71.71,68.31c-6.14-.01-12.25-.55-18.28-1.64"/>
  <path class="cls-8" d="M87.33,44.08c-4.34.77-8.64,1.22-12.92,1.33"/>
  <path class="cls-8" d="M91.39,66.53c-5.69,1.03-11.35,1.62-16.98,1.75"/>
  <path class="cls-6" d="M10.5,49.28c8.38,5.82,18.15,10.5,29.24,14.04,4.52,1.44,9.08,2.56,13.69,3.35M91.39,66.53c1.92-.32,3.86-.7,5.77-1.16,6.66-1.55,16.09-5.41,27.96-10.96,4.5-2.12,9.36-4.47,14.56-7.03"/>
  <path class="cls-6" d="M87.33,44.08c1.57-.27,3.17-.62,4.74-.99,8.81-2.05,29.31-12.01,47.61-21.2"/>
  <path class="cls-6" d="M10.5,18.12c2.03,2.65,4.29,5.09,6.78,7.33,7.53,6.82,17.46,12.23,29.49,16.07,3.51,1.12,7.08,2,10.68,2.62"/>
  <line class="cls-5" x1="115.84" y1="37.19" x2="122.46" y2="52.25"/>
  <line class="cls-5" x1="29.56" y1="36.84" x2="20.13" y2="52.09"/>
  <line class="cls-8" x1="89.71" y1="56.88" x2="91.38" y2="66.53"/>
  <text class="cls-3" transform="translate(89.22 51.14) rotate(-101.96)"><tspan x="0" y="0">Risiko</tspan></text>
  <path class="cls-1" d="M90.57,52.59c0,.06-.03.11-.08.12-.32.05-.53.31-.69.85-.08.26-.21.49-.36.63.18.08.38.24.55.48.3.45.61.65.92.59.06,0,.11.03.12.08s-.03.11-.08.12c-.4.07-.77-.16-1.12-.68-.22-.32-.51-.46-.63-.44-.05,0-.11-.03-.12-.08-.01-.06.02-.11.08-.12.11-.03.34-.27.45-.64.12-.42.33-.91.85-.99.06,0,.11.03.12.08Z"/>
  <path class="cls-1" d="M89.25,54.33s-.01,0-.02,0c-.1.03-.31.24-.42.61-.12.4-.32.87-.82.96-.06,0-.11-.03-.12-.08s.03-.11.08-.12c.31-.05.5-.29.66-.81.07-.25.2-.47.34-.6-.18-.08-.38-.25-.52-.46-.29-.43-.58-.62-.88-.57-.06,0-.11-.03-.12-.08s.03-.11.08-.12c.38-.06.75.16,1.08.66.23.33.5.44.6.43,0,0,.01,0,.02,0l.04.2Z"/>
  <ellipse class="cls-1" cx="82.68" cy="54.22" rx=".24" ry=".25" transform="translate(-7.8 14.35) rotate(-9.47)"/>
  <path class="cls-1" d="M82.74,54.56c.18-.03.31-.21.28-.4,0-.01,0-.03,0-.04-.02-.07-.06-.13-.11-.17-.07-.07-.17-.1-.27-.08-.18.03-.31.21-.28.4s.21.32.39.29ZM82.65,54.07c.07-.01.14.04.16.12.01.08-.04.16-.11.17-.07.01-.14-.04-.16-.12-.01-.08.04-.15.11-.17Z"/>
  <ellipse class="cls-1" cx="84.43" cy="55.31" rx=".24" ry=".25" transform="translate(-7.95 14.65) rotate(-9.47)"/>
  <ellipse class="cls-1" cx="83" cy="55.56" rx=".24" ry=".25" transform="translate(-8.01 14.42) rotate(-9.47)"/>
  <ellipse class="cls-1" cx="85.61" cy="56.61" rx=".24" ry=".25" transform="translate(-8.15 14.86) rotate(-9.47)"/>
  <path class="cls-1" d="M85.66,56.95c.18-.03.31-.21.28-.4,0-.05-.03-.1-.06-.14-.04-.06-.1-.1-.16-.13-.05-.02-.11-.03-.17-.02-.18.03-.31.21-.28.4.03.19.21.32.39.29ZM85.74,56.58c.01.08-.04.15-.11.17-.07.01-.14-.04-.16-.12-.01-.08.04-.15.11-.17.07-.01.14.04.16.12Z"/>
  <path class="cls-1" d="M87.62,53.13c0,.06-.03.11-.08.12-.54.09-.56.46-.58.84-.02.31-.04.67-.41.76-.14.04-.26.02-.36-.04-.22-.14-.3-.47-.38-.79-.1-.42-.18-.67-.39-.65-.33.04-.36.21-.41.43-.04.19-.1.44-.41.48-.21.03-.32-.06-.44-.15-.11-.08-.22-.17-.45-.2-.24-.03-.47.03-.69.18-.05.03-.11.02-.14-.02-.03-.05-.02-.11.02-.14.26-.18.54-.25.83-.21.28.04.43.15.55.24.1.08.16.12.28.11.17-.02.2-.12.24-.32.05-.23.12-.53.59-.59.41-.05.52.4.61.8.07.28.14.57.29.66.06.03.12.04.21.02.21-.05.24-.24.25-.57.02-.39.05-.92.75-1.03.06,0,.11.03.12.08Z"/>
  <path class="cls-1" d="M88.07,55.78c0,.06-.03.11-.08.12-.22.04-.45-.03-.63-.08-.09-.03-.18-.05-.24-.06-.78-.04-.92.17-1.18.55-.03.04-.06.09-.09.13-.03.05-.1.06-.14.02-.05-.03-.06-.1-.02-.14.03-.05.06-.09.09-.13.27-.4.46-.68,1.36-.64.08,0,.18.03.28.06.17.05.36.11.53.08.06,0,.11.03.12.08h0Z"/>
  <path class="cls-1" d="M89.24,54.23c0,.05-.02.1-.08.12-.04,0-.98.22-1.39-.29-.1-.12-.28-.19-.52-.2-.54-.03-1.49.26-2.39,1.17-.04.04-.1.04-.14,0-.04-.04-.04-.1,0-.14.94-.96,1.93-1.26,2.54-1.23.31.02.54.11.67.28.33.41,1.17.22,1.18.22.05-.01.11.02.12.08,0,0,0,0,0,0Z"/>
  <path class="cls-1" d="M89.26,54.24c0,.05-.03.11-.08.12-.34.06-.49.27-.64.49-.15.22-.31.45-.67.5-.41.06-.5.38-.59.69-.06.2-.11.39-.27.47-.1.05-.22.04-.36-.02-.24-.1-.36-.31-.48-.49-.13-.21-.23-.39-.48-.43-.28-.05-.49.1-.61.23-.2.2-.26.53-.32.81-.06.28-.1.53-.29.58-.23.06-.38-.21-.55-.52-.16-.28-.34-.59-.59-.74-.05-.03-.06-.09-.03-.14.03-.05.09-.06.14-.03.29.18.49.53.66.81.11.19.25.44.33.42.07-.02.11-.24.14-.42.06-.3.13-.67.37-.92.23-.24.51-.34.79-.29.34.06.49.31.62.53.1.17.2.33.38.41.09.04.15.05.2.03.07-.03.12-.18.16-.34.09-.32.21-.75.76-.83.27-.04.39-.22.53-.42.16-.23.34-.5.77-.57.06-.01.11.03.12.08h0Z"/>
  <path class="cls-1" d="M76.55,29.14c-.15,0-.28-.11-.28-.26-.03-.88-.64-1.52-2.03-2.13-.66-.29-1.23-.73-1.57-1.17-.27.45-.76.94-1.47,1.31-1.3.65-1.93,1.4-1.9,2.25,0,.15-.11.28-.26.28s-.28-.11-.28-.26c-.04-1.08.7-2.01,2.2-2.76.93-.48,1.41-1.2,1.4-1.53,0-.15.11-.27.25-.28.16,0,.28.1.29.25.03.31.6.99,1.56,1.41,1.07.47,2.3,1.2,2.36,2.61,0,.15-.11.28-.26.28Z"/>
  <path class="cls-1" d="M72.37,25.03s0-.03,0-.05c-.04-.27-.54-.91-1.49-1.33-1.03-.46-2.22-1.16-2.27-2.52,0-.15.11-.28.26-.28s.28.11.28.26c.03.84.61,1.45,1.94,2.04.63.28,1.18.69,1.5,1.1.28-.46.79-.92,1.41-1.24,1.24-.62,1.85-1.34,1.82-2.15,0-.15.11-.28.26-.28s.28.11.28.26c.04,1.04-.67,1.94-2.12,2.66-.95.5-1.34,1.18-1.34,1.45,0,.02,0,.03,0,.05l-.55.03Z"/>
  <ellipse class="cls-1" cx="74.92" cy="7.52" rx=".66" ry=".64" transform="translate(-.23 2.83) rotate(-2.16)"/>
  <path class="cls-1" d="M73.98,7.55c.02.5.46.89.97.87.04,0,.07,0,.1-.01.19-.02.36-.11.49-.23.2-.17.32-.42.31-.71-.02-.5-.46-.9-.97-.87-.52.02-.93.44-.9.94ZM75.31,7.5c0,.2-.17.37-.38.38-.22,0-.4-.15-.41-.35,0-.2.16-.37.38-.37.21,0,.39.15.41.34Z"/>
  <ellipse class="cls-1" cx="71.41" cy="11.83" rx=".67" ry=".65" transform="translate(-.4 2.7) rotate(-2.16)"/>
  <ellipse class="cls-1" cx="71.23" cy="7.91" rx=".67" ry=".65" transform="translate(-.25 2.7) rotate(-2.16)"/>
  <ellipse class="cls-1" cx="67.54" cy="14.52" rx=".66" ry=".64" transform="translate(-.5 2.56) rotate(-2.16)"/>
  <path class="cls-1" d="M66.6,14.55c.02.5.46.89.97.87.15,0,.29-.04.41-.11.17-.09.31-.22.39-.39.07-.13.11-.28.11-.44-.02-.5-.46-.89-.97-.87-.52.02-.92.44-.9.94ZM67.55,14.87c-.21,0-.39-.15-.41-.34,0-.2.17-.37.38-.38.21,0,.39.15.41.35,0,.2-.17.37-.38.37Z"/>
  <path class="cls-1" d="M76.12,21.09c-.15,0-.28-.11-.28-.26-.06-1.47-1.02-1.64-2.05-1.83-.83-.15-1.77-.33-1.89-1.35-.05-.38.03-.71.23-.96.44-.55,1.35-.65,2.24-.75,1.15-.13,1.86-.25,1.86-.82,0-.89-.44-1.05-1.01-1.25-.5-.18-1.13-.4-1.14-1.26,0-.56.27-.84.54-1.11.26-.26.53-.54.69-1.14.17-.63.09-1.26-.25-1.9-.07-.13-.02-.3.12-.37.13-.07.3-.02.37.12.4.76.5,1.53.29,2.29-.2.75-.55,1.1-.83,1.38-.24.24-.38.39-.38.72,0,.46.25.57.77.75.58.21,1.38.49,1.37,1.77,0,1.1-1.25,1.24-2.35,1.36-.77.09-1.57.17-1.87.55-.11.14-.15.32-.12.55.07.59.57.71,1.45.87,1.02.19,2.43.45,2.5,2.35,0,.15-.11.28-.26.28Z"/>
  <path class="cls-1" d="M68.9,21.37c-.15,0-.28-.11-.28-.26-.02-.6.23-1.18.44-1.64.1-.24.2-.46.23-.61.36-2.07-.14-2.52-1.07-3.34-.1-.09-.21-.19-.32-.29-.11-.1-.12-.28-.02-.39.1-.11.28-.12.39-.02.11.1.21.19.32.28.96.86,1.66,1.47,1.24,3.84-.04.22-.14.46-.27.74-.19.43-.41.93-.39,1.4,0,.15-.11.28-.26.28h0Z"/>
  <path class="cls-1" d="M72.64,25.03c-.14,0-.27-.1-.28-.25-.01-.11-.25-2.7,1.24-3.61.35-.21.61-.69.73-1.33.26-1.44-.19-4.07-2.31-6.77-.09-.12-.07-.29.05-.38.12-.09.29-.07.39.05,2.23,2.84,2.71,5.59,2.42,7.21-.15.81-.49,1.4-.98,1.7-1.2.73-.98,3.06-.98,3.08.01.15-.1.28-.25.3,0,0-.01,0-.02,0Z"/>
  <path class="cls-1" d="M72.6,25.08c-.15,0-.28-.11-.28-.26-.05-.94-.55-1.39-1.09-1.87-.54-.49-1.1-.99-1.12-1.95-.02-1.12-.84-1.47-1.63-1.81-.52-.22-1.01-.43-1.15-.88-.09-.28-.03-.59.19-.96.36-.6.95-.87,1.48-1.1.6-.26,1.11-.49,1.31-1.14.22-.72-.1-1.33-.41-1.71-.48-.59-1.32-.87-2.06-1.12-.74-.25-1.38-.46-1.44-.98-.07-.62.69-.94,1.57-1.3.79-.33,1.69-.7,2.17-1.31.09-.12.27-.14.39-.04.12.09.14.27.04.38-.57.72-1.58,1.14-2.39,1.48-.53.22-1.26.52-1.23.73.02.18.6.37,1.07.53.78.26,1.74.58,2.32,1.3.55.69.73,1.48.5,2.22-.27.88-.99,1.2-1.62,1.48-.49.22-.96.42-1.23.88-.13.22-.18.4-.14.52.07.21.45.37.85.54.81.35,1.93.83,1.96,2.31.02.73.44,1.11.94,1.56.57.51,1.21,1.09,1.27,2.25,0,.15-.11.28-.26.29h0Z"/>
  <line class="cls-8" x1="55.28" y1="57.01" x2="53.42" y2="66.63"/>
  <text class="cls-3" transform="translate(56.92 51.1) rotate(-81.17)"><tspan class="cls-10" x="0" y="0">E</tspan><tspan class="cls-11" x="1.28" y="0">n</tspan><tspan class="cls-4" x="2.51" y="0">de</tspan></text>
  <path class="cls-1" d="M53.95,54.99c.01-.06.06-.09.12-.08.32.06.6-.1.95-.55.16-.21.37-.38.56-.46-.14-.14-.27-.36-.35-.64-.12-.52-.34-.82-.65-.88-.06-.01-.09-.06-.08-.12s.06-.09.12-.08c.39.08.67.43.81,1.03.09.38.31.61.43.64.05.01.09.06.08.12-.01.06-.06.09-.11.08-.11-.02-.41.13-.65.44-.26.35-.63.73-1.15.63-.06-.01-.09-.06-.08-.12Z"/>
  <path class="cls-1" d="M55.79,53.83s.01,0,.02,0c.1.01.38-.11.61-.42.25-.33.61-.7,1.11-.6.06.01.09.06.08.12s-.06.09-.12.08c-.31-.06-.58.1-.9.53-.16.21-.35.36-.53.45.14.14.26.36.33.62.12.5.33.79.62.84.06.01.09.06.08.12s-.06.09-.12.08c-.38-.08-.64-.41-.78-1-.1-.39-.31-.59-.41-.61,0,0-.01,0-.02,0l.04-.2Z"/>
  <ellipse class="cls-1" cx="61.9" cy="56.27" rx=".25" ry=".24" transform="translate(-5.43 105.92) rotate(-78.68)"/>
  <path class="cls-1" d="M61.97,55.93c-.18-.04-.36.09-.4.28,0,.01,0,.03,0,.04,0,.07,0,.14.04.2.04.09.12.15.23.17.18.04.36-.09.4-.28s-.08-.37-.26-.41ZM61.87,56.41c-.07-.02-.12-.09-.1-.17.02-.08.09-.13.16-.12.07.02.12.09.1.17-.02.08-.09.13-.16.12Z"/>
  <ellipse class="cls-1" cx="60.64" cy="54.63" rx=".25" ry=".24" transform="translate(-4.83 103.37) rotate(-78.68)"/>
  <ellipse class="cls-1" cx="62.07" cy="54.9" rx=".25" ry=".24" transform="translate(-3.95 104.99) rotate(-78.68)"/>
  <path class="cls-1" d="M60.08,52.66c-.18-.04-.36.09-.4.28,0,.05,0,.11,0,.16.02.07.05.13.11.17.04.04.09.06.15.08.18.04.36-.09.4-.28.04-.19-.08-.37-.26-.41ZM59.88,52.97c.02-.08.09-.13.16-.12.07.02.12.09.1.17-.02.08-.09.13-.16.12-.07-.02-.12-.09-.1-.17Z"/>
  <path class="cls-1" d="M56.89,55.53c.01-.06.06-.09.12-.08.53.11.68-.23.84-.58.13-.29.27-.61.65-.57.14.02.25.07.33.17.16.21.12.55.08.87-.05.43-.07.69.14.74.32.08.42-.07.54-.26.11-.17.24-.37.56-.3.2.05.28.17.36.29.07.12.15.24.35.35.21.12.45.14.71.08.05-.01.11.02.12.07.01.05-.02.11-.07.12-.31.08-.6.05-.85-.09-.25-.14-.35-.29-.43-.42-.07-.11-.11-.17-.23-.2-.17-.04-.23.04-.34.21-.13.19-.3.46-.76.34-.4-.1-.34-.56-.29-.97.04-.29.07-.58-.04-.72-.04-.05-.1-.08-.19-.09-.22-.03-.31.14-.44.45-.16.35-.37.84-1.07.7-.06-.01-.09-.06-.08-.12Z"/>
  <path class="cls-1" d="M57.41,52.89c.01-.06.06-.09.12-.08.22.04.41.19.56.3.08.06.15.11.2.14.72.31.92.17,1.3-.1.04-.03.09-.06.13-.09.05-.03.11-.02.14.03.03.05.02.11-.03.14-.05.03-.09.06-.13.09-.39.27-.68.47-1.5.12-.08-.03-.15-.09-.24-.16-.14-.11-.3-.23-.47-.26-.06-.01-.09-.06-.08-.12h0Z"/>
  <path class="cls-1" d="M55.77,53.93c.01-.05.06-.09.11-.08.04,0,1,.14,1.19.76.05.15.2.28.42.38.5.22,1.49.28,2.65-.25.05-.02.11,0,.13.05.02.05,0,.11-.05.14-1.22.56-2.25.49-2.81.25-.28-.12-.46-.3-.53-.5-.16-.5-1.02-.62-1.03-.62-.06,0-.09-.06-.09-.11,0,0,0,0,0,0Z"/>
  <path class="cls-1" d="M55.75,53.91c.01-.05.06-.09.12-.08.34.06.55-.08.77-.23.22-.15.45-.31.8-.24.41.09.61-.18.8-.43.13-.17.24-.33.42-.34.11,0,.22.04.33.15.19.18.23.42.27.63.04.24.08.45.3.57.24.14.49.08.65,0,.26-.12.43-.4.58-.65.15-.25.28-.46.48-.44.23.03.28.33.33.68.05.31.11.67.28.9.03.04.03.11-.02.14-.04.03-.11.03-.14-.02-.21-.27-.27-.67-.33-.99-.03-.21-.08-.5-.16-.51-.07,0-.19.19-.28.34-.16.26-.36.58-.67.73-.3.14-.6.14-.84-.01-.3-.18-.35-.46-.39-.71-.04-.2-.07-.38-.21-.52-.07-.07-.13-.1-.17-.1-.08,0-.17.13-.27.26-.2.26-.47.62-1,.51-.26-.06-.44.06-.64.2-.23.16-.5.34-.92.26-.06-.01-.09-.06-.08-.12h0Z"/>
  <path class="cls-9" d="M58.83,38.25s13.76,3.22,27.38-.19"/>
  <text class="cls-2" transform="translate(78.71 25.57) rotate(.08)"><tspan x="0" y="0">Risiko</tspan></text>
</svg>