<?xml version="1.0" encoding="UTF-8"?>
<svg id="Ebene_1" data-name="Ebene 1" xmlns="http://www.w3.org/2000/svg" viewBox="0 0 147.4 90.71">
  <defs>
    <style>
      .cls-1 {
        fill: #38386a;
        font-family: F37Oracle-Bold, 'F37 Oracle';
        font-size: 3px;
        font-weight: 700;
      }

      .cls-2, .cls-3 {
        opacity: .5;
      }

      .cls-2, .cls-3, .cls-4 {
        fill: none;
        stroke-width: .5px;
      }

      .cls-2, .cls-4 {
        stroke: #38386a;
        stroke-linecap: round;
        stroke-linejoin: round;
      }

      .cls-3 {
        stroke: #39396a;
        stroke-miterlimit: 10;
      }

      .cls-5 {
        letter-spacing: 0em;
      }

      .cls-6 {
        letter-spacing: .01em;
      }

      .cls-7 {
        letter-spacing: 0em;
      }

      .cls-8 {
        letter-spacing: .01em;
      }
    </style>
  </defs>
  <path class="cls-3" d="M176.36-25.23c-7.08,1.37-13.91,4.01-20.42,7.88-9.12,5.42-35.83,32.15-45.88,42.22l-1.7,1.7c-6.44,6.44-9.57,12.38-9.57,18.15.01,5.76,3.14,11.69,9.56,18.11l2,2c10.88,10.91,36.38,36.45,45.59,41.94,6.51,3.87,13.35,6.51,20.42,7.88M6.62,127.96c1.22-.66,2.44-1.34,3.64-2.06,9.73-5.78,23.58-19.49,36.97-32.75l.04-.04c5.18-5.13,10.08-9.97,14.42-14.03,3.85-3.6,9.61-5.66,15.79-5.66s11.91,2.06,15.76,5.64c4.6,4.29,9.68,9.31,15.06,14.64,13.16,13.01,26.77,26.47,36.4,32.2,10.01,5.95,20.62,9.74,31.66,11.33M6.62-11.37C18.47-1.32,36.72,16.94,44.63,24.87l1.7,1.7c6.44,6.44,9.57,12.38,9.57,18.15-.01,5.76-3.13,11.69-9.56,18.11l-1.99,1.99c-8.55,8.57-26.12,26.17-37.73,35.99M176.36-47.81c-11.05,1.58-21.66,5.37-31.66,11.32-9.64,5.73-23.26,19.21-36.44,32.24-5.36,5.3-10.42,10.31-15.01,14.6-3.85,3.58-9.6,5.64-15.77,5.64s-11.94-2.06-15.79-5.66c-4.33-4.05-9.23-8.9-14.41-14.03l-.03-.02c-13.4-13.27-27.26-26.99-36.99-32.77-1.2-.71-2.42-1.4-3.64-2.05"/>
  <line class="cls-2" x1="94.87" y1="77.35" x2="106.86" y2="64.49"/>
  <line class="cls-2" x1="60.1" y1="77.37" x2="48.1" y2="64.53"/>
  <line class="cls-2" x1="106.86" y1="24.92" x2="94.87" y2="12.06"/>
  <line class="cls-2" x1="60.1" y1="12.04" x2="48.09" y2="24.88"/>
  <line class="cls-2" x1="77.5" y1="35.56" x2="77.5" y2="18.46"/>
  <line class="cls-2" x1="77.5" y1="71.08" x2="77.5" y2="53.98"/>
  <path class="cls-4" d="M49.57,27.84s28.49,23.24,55.99-.69"/>
  <path class="cls-4" d="M105.56,61.4s-28.49-23.24-55.99.69"/>
  <text class="cls-1" transform="translate(68.76 45.12)"><tspan class="cls-6" x="0" y="0">B</tspan><tspan class="cls-8" x="1.92" y="0">u</tspan><tspan class="cls-7" x="3.5" y="0">r</tspan><tspan class="cls-8" x="4.55" y="0">nout </tspan><tspan class="cls-5" x="11.26" y="0">Z</tspan><tspan class="cls-8" x="12.97" y="0">one</tspan></text>
</svg>