<?xml version="1.0" encoding="UTF-8"?>
<svg id="Ebene_1" data-name="Ebene 1" xmlns="http://www.w3.org/2000/svg" viewBox="0 0 147.4 90.71">
  <defs>
    <style>
      .cls-1 {
        fill: #38386a;
      }

      .cls-2 {
        stroke: #38386a;
        stroke-miterlimit: 10;
      }

      .cls-2, .cls-3 {
        stroke-width: .5px;
      }

      .cls-2, .cls-3, .cls-4 {
        fill: none;
      }

      .cls-5 {
        opacity: .5;
      }

      .cls-3, .cls-4 {
        stroke: #39396a;
        stroke-linecap: round;
        stroke-linejoin: round;
      }

      .cls-4 {
        stroke-width: .25px;
      }
    </style>
  </defs>
  <line class="cls-3" x1="131.73" y1="72.26" x2="115.81" y2="56.45"/>
  <polyline class="cls-3" points="117.24 62.12 115.66 56.33 121.48 57.77"/>
  <line class="cls-3" x1="40.61" y1="8.44" x2="40.68" y2="30.88"/>
  <polyline class="cls-3" points="43.68 25.86 40.7 31.07 37.6 25.94"/>
  <g id="LWPOLYLINE" class="cls-5">
    <path class="cls-4" d="M105.48,14.94c1.19-.16,2.38-.23,3.57-.23,2.31-.01,4.61.25,6.85.78,2.27.54,4.43,1.43,6.42,2.64,2.17,1.34,4.08,3.06,5.64,5.07,1.58,1.98,2.89,4.15,3.9,6.47,1.07,2.44,1.84,5,2.31,7.62.46,2.6.68,5.24.68,7.89"/>
    <path class="cls-4" d="M106.52,22.87c.83-.11,1.66-.16,2.49-.16,1.69-.01,3.37.18,5,.56,1.62.38,3.15,1.04,4.53,1.97,1.36.93,2.55,2.1,3.51,3.43.99,1.33,1.82,2.77,2.48,4.3.83,1.91,1.43,3.92,1.76,5.98.35,2.06.52,4.14.51,6.23"/>
  </g>
  <g id="LWPOLYLINE-2" data-name="LWPOLYLINE" class="cls-5">
    <path class="cls-4" d="M73.44,35.48c.54,0,1.07-.06,1.6-.16.6-.12,1.19-.31,1.74-.57.64-.31,1.21-.72,1.71-1.23,2.33-2.24,4.64-4.5,6.93-6.78,2.17-2.17,4.44-4.25,6.8-6.22,1.19-.99,2.48-1.84,3.86-2.56,1.99-1.07,4.09-1.88,6.28-2.44,1.02-.25,2.06-.45,3.11-.59"/>
    <path class="cls-4" d="M106.52,22.87c-2.33.3-4.58,1.02-6.66,2.12-.95.49-1.86,1.08-2.68,1.78-1.89,1.58-3.73,3.23-5.51,4.95-2.37,2.27-4.72,4.57-7.02,6.89-.48.47-.95.95-1.42,1.43-.45.47-.86.98-1.24,1.52-.37.53-.68,1.11-.92,1.72-.24.61-.36,1.26-.36,1.91"/>
  </g>
  <g id="LWPOLYLINE-3" data-name="LWPOLYLINE" class="cls-5">
    <path class="cls-4" d="M126.81,45.18c0,2.09-.16,4.17-.51,6.23-.34,2.06-.93,4.07-1.76,5.98-.66,1.52-1.5,2.96-2.48,4.3-.96,1.34-2.15,2.5-3.51,3.43-1.38.92-2.92,1.6-4.53,1.97-1.64.39-3.32.57-5,.56-.83,0-1.67-.05-2.49-.16"/>
    <path class="cls-4" d="M134.85,45.18c0,2.65-.22,5.29-.68,7.9-.47,2.62-1.24,5.18-2.31,7.62-1.02,2.32-2.32,4.48-3.9,6.46-1.56,2.01-3.47,3.73-5.64,5.07-1.99,1.21-4.15,2.1-6.42,2.64-2.24.53-4.55.79-6.85.78-1.19,0-2.39-.07-3.57-.23"/>
  </g>
  <g id="LWPOLYLINE-4" data-name="LWPOLYLINE" class="cls-5">
    <path class="cls-4" d="M80.71,45.18c0,.66.12,1.31.36,1.92.24.61.55,1.18.92,1.71.38.53.79,1.04,1.24,1.52.47.48.94.96,1.42,1.43,2.31,2.33,4.66,4.62,7.03,6.89,1.78,1.72,3.62,3.37,5.51,4.95.82.7,1.72,1.29,2.68,1.78,2.07,1.1,4.32,1.82,6.65,2.12"/>
    <path class="cls-4" d="M105.47,75.41c-1.05-.14-2.09-.33-3.11-.59-2.18-.55-4.29-1.37-6.28-2.43-1.37-.71-2.67-1.57-3.86-2.56-2.36-1.97-4.63-4.05-6.8-6.22-2.29-2.28-4.6-4.54-6.93-6.78-.49-.5-1.07-.92-1.71-1.22-.55-.26-1.14-.46-1.74-.57-.52-.1-1.06-.15-1.59-.15"/>
  </g>
  <g id="LWPOLYLINE-5" data-name="LWPOLYLINE" class="cls-5">
    <path class="cls-4" d="M12.03,45.18c0-2.65.22-5.29.68-7.89.47-2.63,1.24-5.19,2.31-7.62,1.02-2.32,2.32-4.49,3.9-6.47,1.56-2.01,3.47-3.73,5.64-5.07,1.99-1.21,4.15-2.1,6.42-2.64,2.24-.53,4.55-.79,6.85-.78,1.19,0,2.39.08,3.57.23"/>
    <path class="cls-4" d="M20.07,45.18c0-2.09.16-4.17.51-6.23.34-2.05.93-4.07,1.76-5.98.66-1.52,1.5-2.96,2.48-4.3.96-1.33,2.15-2.5,3.51-3.43,1.38-.92,2.92-1.59,4.53-1.97,1.64-.38,3.32-.57,5-.56.83,0,1.67.06,2.49.16"/>
  </g>
  <g id="LWPOLYLINE-6" data-name="LWPOLYLINE" class="cls-5">
    <path class="cls-4" d="M66.17,45.18c0-.66-.12-1.31-.36-1.91-.23-.61-.54-1.19-.92-1.72-.38-.54-.79-1.04-1.24-1.52-.47-.48-.94-.96-1.42-1.43-2.31-2.32-4.65-4.62-7.02-6.89-1.78-1.72-3.62-3.37-5.51-4.95-.82-.7-1.72-1.29-2.68-1.78-2.08-1.09-4.33-1.81-6.66-2.12"/>
    <path class="cls-4" d="M41.41,14.95c1.05.13,2.09.33,3.11.59,2.19.56,4.29,1.37,6.28,2.44,1.38.71,2.67,1.57,3.86,2.56,2.36,1.97,4.63,4.04,6.8,6.22,2.29,2.28,4.6,4.54,6.93,6.78.49.51,1.07.92,1.71,1.23.55.26,1.14.45,1.74.57.53.1,1.06.16,1.6.16"/>
  </g>
  <g id="LWPOLYLINE-7" data-name="LWPOLYLINE" class="cls-5">
    <path class="cls-4" d="M40.36,67.5c-.83.11-1.66.16-2.49.16-1.69.01-3.37-.17-5-.56-1.62-.37-3.15-1.04-4.53-1.97-1.36-.93-2.55-2.09-3.51-3.43-.99-1.33-1.82-2.77-2.48-4.3-.83-1.91-1.43-3.92-1.76-5.98-.35-2.06-.52-4.14-.51-6.23"/>
    <path class="cls-4" d="M41.4,75.42c-1.19.16-2.38.23-3.57.23-2.31.01-4.61-.25-6.85-.78-2.27-.54-4.43-1.43-6.42-2.64-2.17-1.34-4.08-3.06-5.64-5.07-1.58-1.98-2.89-4.14-3.9-6.46-1.07-2.44-1.84-5-2.31-7.62-.46-2.61-.68-5.25-.68-7.9"/>
  </g>
  <g id="LWPOLYLINE-8" data-name="LWPOLYLINE" class="cls-5">
    <path class="cls-4" d="M73.44,54.89c-.53,0-1.07.05-1.59.15-.6.12-1.19.31-1.74.57-.64.31-1.21.72-1.71,1.22-2.33,2.24-4.64,4.5-6.93,6.78-2.17,2.18-4.44,4.25-6.8,6.22-1.19.99-2.49,1.84-3.86,2.56-1.99,1.06-4.1,1.88-6.28,2.43-1.03.26-2.06.46-3.11.59"/>
    <path class="cls-4" d="M40.37,67.49c2.33-.3,4.58-1.02,6.65-2.12.96-.48,1.86-1.08,2.68-1.78,1.9-1.58,3.74-3.24,5.51-4.95,2.37-2.27,4.71-4.56,7.03-6.89.48-.47.95-.95,1.42-1.43.45-.48.86-.98,1.24-1.52.37-.53.68-1.11.92-1.71.24-.61.36-1.26.36-1.92"/>
  </g>
  <path class="cls-2" d="M102.02,35.95h10.08c.7,0,1.26.56,1.26,1.26v14.95c0,.7-.56,1.26-1.26,1.26h-8.82c-.7,0-1.26-.56-1.26-1.26v-16.21h0Z"/>
  <path class="cls-2" d="M35.16,35.87h10.15c.7,0,1.27.57,1.27,1.27v15.05c0,.7-.57,1.27-1.27,1.27h-8.88c-.7,0-1.27-.57-1.27-1.27v-16.31h0Z"/>
  <path class="cls-1" d="M108.32,44.14s-.08-.02-.11-.05c-.07-.06-.07-.17,0-.23.21-.22.44-.34.87-.53,1.19-.52,1.75-1.13,1.76-1.91.01-1.16-1.4-2.13-3.14-2.15-1.74-.02-3.17.91-3.19,2.08,0,.88.72,1.43,1.81,1.98l.14.07c.3.15.5.24.68.43.06.07.06.17,0,.23-.07.06-.17.06-.23,0-.14-.14-.3-.22-.58-.36l-.14-.07c-1.2-.61-2-1.23-1.99-2.28.01-1.35,1.59-2.42,3.52-2.4,1.93.02,3.48,1.13,3.47,2.48-.01.93-.63,1.63-1.96,2.21-.42.2-.6.3-.76.46-.03.03-.08.05-.12.05Z"/>
  <path class="cls-1" d="M107.57,50.62c-1.94-.03-3.48-1.15-3.47-2.48.01-1.05,1.06-1.68,2.24-2.3.16-.09.53-.29.65-.58.03-.08.13-.12.22-.09.08.03.12.13.09.22-.16.4-.61.64-.78.73-1.1.58-2.08,1.16-2.08,2.02-.01,1.16,1.38,2.12,3.12,2.15,1.77.02,3.2-.91,3.21-2.08,0-.75-.51-1.32-1.78-1.97-.18-.08-.71-.39-.96-.82-.05-.08-.02-.18.06-.23.08-.05.18-.02.22.06.21.36.7.64.82.69.98.5,1.98,1.16,1.97,2.27-.01,1.35-1.59,2.43-3.52,2.41Z"/>
  <circle class="cls-1" cx="107.64" cy="44.65" r=".41"/>
  <path class="cls-1" d="M107.01,44.11s-.09-.02-.12-.05c-.05-.06-.1-.11-.16-.16-.28-.29-.58-.59-.77-1.1-.37-.99-.23-2.18.36-3.02.38-.53.87-.84,1.37-.83.09,0,.16.08.16.17s-.08.16-.17.16c-.38,0-.78.25-1.09.69-.4.57-.73,1.63-.32,2.71.16.44.42.7.69.98.05.05.11.11.16.17.06.07.06.17,0,.23-.03.03-.07.05-.11.04Z"/>
  <path class="cls-1" d="M108.32,44.14s-.08-.02-.11-.05c-.07-.06-.07-.17,0-.23l.08-.09c.31-.32.59-.59.78-1.07.43-1.07.12-2.14-.27-2.72-.3-.45-.7-.71-1.08-.72-.09,0-.16-.08-.16-.17s.08-.16.17-.16c.49,0,.98.32,1.35.86.57.85.69,2.04.3,3.03-.22.54-.52.85-.85,1.18l-.08.08s-.08.05-.12.05Z"/>
  <path class="cls-1" d="M107.64,43.96c-.07,0-.12-.06-.12-.13l.07-6.1c0-.07.06-.12.13-.12s.12.06.12.13l-.07,6.1c0,.07-.06.12-.13.12Z"/>
  <path class="cls-1" d="M107.71,51.76c.01-.31,0-.72,0-1.14,0-.11,0-.22,0-.33-.01-.3-.02-.61-.04-.91.91,0,1.97-.13,2.33-.82.21-.4.17-.81-.11-1.14-.39-.46-1.16-.68-1.76-.49-.45.15-.72.5-.76.99-.01.14,0,.58.03,1.18v.02s-.06,0-.09,0c-.87-.03-1.9-.22-1.89-1.01,0-.48.47-.71,1.02-.97.63-.3,1.34-.65,1.35-1.49,0-.07-.05-.13-.12-.13s-.13.05-.13.12c0,.69-.59.98-1.21,1.27-.56.28-1.15.56-1.16,1.19,0,.55.36,1.2,2.14,1.26.04,0,.07,0,.11,0,.01.29.03.6.04.91,0,.11,0,.22,0,.33,0,.43.02.83,0,1.14,0,.07.05.12.12.13h0c.07,0,.12-.05.12-.12ZM107.65,49.13s0-.02,0-.03c-.03-.55-.05-1.03-.04-1.15.04-.5.34-.7.59-.78.13-.04.26-.06.4-.06.41,0,.85.18,1.09.47.15.18.28.47.08.86-.24.46-.93.68-2.13.69Z"/>
  <circle class="cls-1" cx="40.96" cy="44.73" r=".41"/>
  <path class="cls-1" d="M40.98,45.72c.07,0,.12.05.13.12l.07,5.92c0,.07-.05.12-.12.13s-.12-.05-.13-.12l-.07-5.92c0-.07.05-.12.12-.13Z"/>
  <path class="cls-1" d="M43.79,45.9c.06,0,.12.03.15.09.66,1.19.76,2.31.29,3.15-.34.61-1.17,1.35-3.16,1.43h0c-.09,0-.16-.07-.17-.16,0-.09.07-.17.16-.17,1.45-.05,2.45-.49,2.89-1.26.41-.73.31-1.74-.29-2.83-.04-.08-.02-.18.06-.22.02-.01.05-.02.08-.02Z"/>
  <path class="cls-1" d="M41.82,45c.06,0,.12.03.15.09.04.07.87,1.64.89,2.97.01.86-.2,1.52-.63,1.96-.5.52-1.11.54-1.18.54h0c-.09,0-.17-.07-.17-.16s.07-.17.16-.17c.02,0,.53-.01.94-.44.37-.38.55-.96.54-1.73-.02-1.25-.85-2.8-.86-2.82-.04-.08-.01-.18.07-.22.02-.01.05-.02.08-.02Z"/>
  <path class="cls-1" d="M38.19,45.97s.05,0,.08.02c.08.04.11.14.07.22-.57,1.11-.65,2.11-.22,2.83.45.76,1.46,1.17,2.92,1.19.09,0,.16.08.16.17,0,.09-.07.16-.16.16h0c-1.99-.02-2.84-.75-3.2-1.35-.49-.82-.42-1.94.21-3.16.03-.06.09-.09.14-.09Z"/>
  <path class="cls-1" d="M40.13,45.03s.05,0,.08.02c.08.04.11.14.07.22,0,.02-.8,1.59-.79,2.84,0,.77.2,1.34.58,1.71.43.42.93.42.95.42.09,0,.17.07.17.16s-.07.17-.16.17h0c-.07,0-.67,0-1.19-.51-.44-.43-.67-1.09-.68-1.94-.01-1.33.79-2.92.82-2.99.03-.06.09-.09.15-.09Z"/>
  <path class="cls-1" d="M40.89,37.63c.07,0,.12.05.13.12l.07,5.84c0,.07-.05.12-.12.13s-.12-.05-.13-.12l-.07-5.84c0-.07.05-.12.12-.13Z"/>
  <path class="cls-1" d="M40.89,38.91c.09,0,.16.07.17.16,0,.09-.07.17-.16.17-1.45.05-2.45.49-2.89,1.26-.41.73-.31,1.74.29,2.83.04.08.02.18-.06.22-.08.04-.18.02-.22-.06-.66-1.19-.76-2.31-.29-3.15.34-.61,1.17-1.35,3.16-1.43h0Z"/>
  <path class="cls-1" d="M40.89,38.91c.09,0,.17.07.17.16s-.07.17-.16.17c-.02,0-.53.01-.94.44-.37.38-.55.96-.54,1.73.02,1.25.85,2.8.86,2.82.04.08.01.18-.07.22-.08.04-.18.01-.22-.07-.04-.07-.87-1.64-.89-2.97-.01-.86.2-1.52.63-1.96.5-.52,1.11-.54,1.18-.54h0Z"/>
  <path class="cls-1" d="M40.91,38.91h0c1.99.02,2.84.75,3.2,1.35.49.82.42,1.94-.21,3.16-.04.08-.14.11-.22.07-.08-.04-.11-.14-.07-.22.57-1.11.65-2.11.22-2.83-.45-.76-1.46-1.17-2.92-1.19-.09,0-.16-.08-.16-.17,0-.09.07-.16.16-.16Z"/>
  <path class="cls-1" d="M40.91,38.91h0c.07,0,.68,0,1.19.51.44.43.67,1.09.68,1.94.01,1.33-.79,2.92-.82,2.99-.04.08-.14.11-.22.07-.08-.04-.11-.14-.07-.22,0-.02.8-1.59.79-2.84,0-.77-.2-1.34-.58-1.71-.43-.42-.93-.42-.95-.42-.09,0-.17-.07-.17-.16s.07-.17.16-.17Z"/>
</svg>