<?xml version="1.0" encoding="UTF-8"?>
<svg id="Ebene_1" data-name="Ebene 1" xmlns="http://www.w3.org/2000/svg" xmlns:xlink="http://www.w3.org/1999/xlink" viewBox="0 0 147.4 90.71">
  <defs>
    <style>
      .cls-1, .cls-2, .cls-3, .cls-4 {
        fill: none;
      }

      .cls-5 {
        fill: #38386a;
      }

      .cls-6 {
        font-size: 3.27px;
      }

      .cls-6, .cls-7, .cls-8, .cls-9, .cls-10 {
        fill: #38396a;
      }

      .cls-6, .cls-10 {
        font-family: FHOscarPro-Medium, 'FH Oscar Pro';
        font-weight: 500;
      }

      .cls-2 {
        stroke-width: .25px;
      }

      .cls-2, .cls-3, .cls-4, .cls-11 {
        stroke-miterlimit: 10;
      }

      .cls-2, .cls-3, .cls-11 {
        stroke: #38386a;
      }

      .cls-3, .cls-4 {
        stroke-width: .5px;
      }

      .cls-7 {
        font-size: 1.93px;
      }

      .cls-7, .cls-9 {
        font-family: FHOscarPro-Regular, 'FH Oscar Pro';
      }

      .cls-4 {
        stroke: #38396a;
      }

      .cls-11 {
        fill: url(#Unbenannter_Verlauf_101);
        stroke-width: .1px;
      }

      .cls-12 {
        clip-path: url(#clippath-1);
      }

      .cls-13 {
        clip-path: url(#clippath-2);
      }

      .cls-14 {
        letter-spacing: 0em;
      }

      .cls-8 {
        font-family: F37Oracle-Regular, 'F37 Oracle';
        font-size: 2.9px;
      }

      .cls-15 {
        opacity: .5;
      }

      .cls-9 {
        font-size: 2.05px;
      }

      .cls-16 {
        letter-spacing: -.03em;
      }

      .cls-17 {
        letter-spacing: -.02em;
      }

      .cls-18 {
        letter-spacing: 0em;
      }

      .cls-19 {
        letter-spacing: 0em;
      }

      .cls-10 {
        font-size: 2.81px;
      }

      .cls-20 {
        letter-spacing: 0em;
      }

      .cls-21 {
        clip-path: url(#clippath);
      }

      .cls-22 {
        letter-spacing: 0em;
      }

      .cls-23 {
        letter-spacing: 0em;
      }

      .cls-24 {
        letter-spacing: 0em;
      }

      .cls-25 {
        letter-spacing: 0em;
      }

      .cls-26 {
        letter-spacing: 0em;
      }

      .cls-27 {
        letter-spacing: 0em;
      }
    </style>
    <linearGradient id="Unbenannter_Verlauf_101" data-name="Unbenannter Verlauf 101" x1="65.27" y1="25.66" x2="65.27" y2="47.63" gradientUnits="userSpaceOnUse">
      <stop offset="0" stop-color="#383b49"/>
      <stop offset=".64" stop-color="#27282c" stop-opacity=".37"/>
      <stop offset="1" stop-color="#1d1d1b" stop-opacity="0"/>
    </linearGradient>
    <clipPath id="clippath">
      <rect class="cls-1" x="85.46" y="58.57" width="37.46" height="18.85"/>
    </clipPath>
    <clipPath id="clippath-1">
      <rect class="cls-1" x="85.46" y="58.57" width="37.46" height="18.85"/>
    </clipPath>
    <clipPath id="clippath-2">
      <rect class="cls-1" x="85.46" y="58.57" width="37.46" height="14.76"/>
    </clipPath>
  </defs>
  <path class="cls-3" d="M51.34,11.12h23.92c2.2,0,3.99,1.79,3.99,3.99v63.27c0,2.2-1.79,3.99-3.99,3.99h-19.93c-2.2,0-3.99-1.79-3.99-3.99V11.12h0Z"/>
  <path class="cls-11" d="M65.27,47.63s-.08-.02-.08-.05v-21.88s.03-.05.06-.05.08.02.08.05v21.88s-.03.05-.06.05Z"/>
  <path class="cls-2" d="M52.73,81.43v-9.81c0-6.94,5.63-12.56,12.56-12.56h0c6.94,0,12.56,5.63,12.56,12.56v9.81"/>
  <path class="cls-5" d="M65.29,47.64s-.08-.03-.08-.07v-21.22s.03-.07.07-.07h.01s.07.03.07.07v21.22s-.03.07-.07.07Z"/>
  <circle class="cls-2" cx="65.29" cy="49.75" r="6.02"/>
  <g>
    <path class="cls-5" d="M60.42,20.76h.98c.33,0,.6.22.6.57s-.28.57-.6.57h-.65v.75h-.33v-1.9ZM61.37,21.62c.19,0,.29-.1.29-.28s-.11-.28-.29-.28h-.62v.57h.62Z"/>
    <path class="cls-5" d="M62.81,21.28c.39,0,.65.26.65.65,0,.04,0,.1-.01.14h-1.01c.03.22.19.35.4.35.2,0,.33-.09.38-.26l.3.09c-.08.26-.33.45-.68.45-.43,0-.73-.29-.73-.71s.3-.7.7-.7ZM63.13,21.83c-.02-.18-.13-.29-.33-.29-.18,0-.32.09-.36.29h.68Z"/>
    <path class="cls-5" d="M63.78,21.3h.32v.26c.06-.17.2-.28.39-.28.03,0,.06,0,.09,0v.32s-.09-.02-.14-.02c-.21,0-.34.13-.34.32v.75h-.32v-1.36Z"/>
    <path class="cls-5" d="M64.68,22.22l.3-.05c.02.18.12.27.28.27.13,0,.21-.05.21-.15,0-.1-.06-.14-.28-.19-.31-.07-.46-.19-.46-.42,0-.25.21-.4.52-.4.35,0,.55.19.58.43l-.3.05c-.03-.15-.13-.23-.29-.23-.13,0-.2.05-.2.13s.07.13.28.18c.33.07.46.21.46.44,0,.26-.21.41-.51.41-.36,0-.54-.21-.57-.47Z"/>
    <path class="cls-5" d="M66,21.98c0-.41.32-.7.73-.7s.72.29.72.7-.32.71-.72.71-.73-.29-.73-.71ZM66.73,22.4c.23,0,.39-.16.39-.42s-.17-.42-.39-.42-.4.16-.4.42.17.42.4.42Z"/>
    <path class="cls-5" d="M67.73,22.66v-1.36h.32v.25c.08-.18.23-.28.46-.28.29,0,.5.2.5.57v.81h-.32v-.76c0-.23-.13-.33-.3-.33-.19,0-.33.12-.33.34v.75h-.32Z"/>
    <path class="cls-5" d="M69.28,22.28c0-.16.09-.29.23-.34-.12-.03-.2-.13-.2-.27,0-.23.24-.39.59-.39.4,0,.64.22.64.58v.8h-.33v-.25c-.08.18-.24.28-.46.28-.29,0-.47-.15-.47-.4ZM69.86,22.43c.2,0,.36-.12.36-.3v-.07h-.37c-.15,0-.24.07-.24.19s.09.18.25.18ZM69.85,21.83h.36c-.02-.19-.13-.29-.33-.29-.17,0-.25.06-.25.16,0,.09.06.13.22.13Z"/>
  </g>
  <circle class="cls-5" cx="65.3" cy="49.87" r=".67"/>
  <path class="cls-3" d="M94.29,11.12h19.93c2.2,0,3.99,1.79,3.99,3.99v63.27c0,2.2-1.79,3.99-3.99,3.99h-23.92V15.11c0-2.2,1.79-3.99,3.99-3.99Z" transform="translate(208.52 93.49) rotate(-180)"/>
  <g class="cls-21">
    <text class="cls-6" transform="translate(98.79 76.67)"><tspan class="cls-16" x="0" y="0">F</tspan><tspan class="cls-22" x="1.69" y="0">ah</tspan><tspan class="cls-23" x="5.12" y="0">r</tspan><tspan class="cls-19" x="6.29" y="0">r</tspan><tspan class="cls-26" x="7.43" y="0">a</tspan><tspan class="cls-18" x="9.07" y="0">d</tspan></text>
    <g class="cls-12">
      <g class="cls-15">
        <g class="cls-13">
          <text class="cls-10" transform="translate(95.29 72.18)"><tspan class="cls-17" x="0" y="0">F</tspan><tspan class="cls-20" x="1.47" y="0">o</tspan><tspan class="cls-25" x="3" y="0">rtb</tspan><tspan class="cls-14" x="6.56" y="0">ew</tspan><tspan class="cls-24" x="10.15" y="0">e</tspan><tspan class="cls-27" x="11.64" y="0">gun</tspan><tspan x="16.32" y="0">g</tspan></text>
        </g>
      </g>
    </g>
  </g>
  <text class="cls-8" transform="translate(110.49 31.57)"><tspan x="0" y="0"> </tspan></text>
  <text class="cls-9" transform="translate(102.96 49.13)"><tspan x="0" y="0"> </tspan></text>
  <text class="cls-9" transform="translate(103.22 49.13)"><tspan x="0" y="0">–</tspan></text>
  <text class="cls-9" transform="translate(104.48 49.13)"><tspan x="0" y="0"> </tspan></text>
  <text class="cls-7" transform="translate(100.1 17.29)"><tspan x="0" y="0"> </tspan></text>
  <rect class="cls-1" x="55.34" y="-10.61" width="98.52" height="62.99"/>
  <line class="cls-2" x1="96.87" y1="45.89" x2="112.14" y2="45.89"/>
  <line class="cls-3" x1="98.72" y1="30.77" x2="110.29" y2="30.77"/>
  <line class="cls-3" x1="100.39" y1="34.09" x2="108.62" y2="34.09"/>
  <line class="cls-2" x1="95.72" y1="48.48" x2="113.29" y2="48.48"/>
  <line class="cls-2" x1="100.8" y1="50.93" x2="108.21" y2="50.93"/>
  <line class="cls-2" x1="94.29" y1="19.02" x2="102.43" y2="19.02"/>
  <line class="cls-2" x1="94.29" y1="16.67" x2="98.18" y2="16.67"/>
  <rect class="cls-4" x="109.96" y="14.86" width="5.33" height="7.93" rx="1.58" ry="1.58"/>
</svg>