<?xml version="1.0" encoding="UTF-8"?>
<svg id="Ebene_1" data-name="Ebene 1" xmlns="http://www.w3.org/2000/svg" viewBox="0 0 147.4 90.71">
  <defs>
    <style>
      .cls-1, .cls-2 {
        fill: #38386a;
      }

      .cls-3, .cls-4 {
        opacity: .5;
      }

      .cls-3, .cls-4, .cls-5 {
        stroke: #38386a;
      }

      .cls-3, .cls-4, .cls-5, .cls-6 {
        fill: none;
        stroke-linecap: round;
        stroke-width: .5px;
      }

      .cls-3, .cls-5, .cls-6 {
        stroke-linejoin: round;
      }

      .cls-4 {
        stroke-miterlimit: 10;
      }

      .cls-2 {
        font-family: F37Oracle-SemiBold, 'F37 Oracle';
        font-size: 3px;
        font-weight: 600;
      }

      .cls-6 {
        stroke: #39396a;
      }
    </style>
  </defs>
  <line class="cls-6" x1="72.36" y1="32.75" x2="72.39" y2="39.78"/>
  <line class="cls-6" x1="72.36" y1="75.13" x2="72.39" y2="82.16"/>
  <line class="cls-6" x1="75.89" y1="78.63" x2="68.86" y2="78.66"/>
  <polyline class="cls-6" points="73.83 37.36 72.4 39.87 70.91 37.4"/>
  <path class="cls-5" d="M91.38,66.53c-12.8,2.33-25.52,2.37-37.96.14l4.02-22.53c9.77,1.76,19.77,1.73,29.88-.07l4.06,22.46Z"/>
  <path class="cls-4" d="M10.5,49.28c8.38,5.82,18.15,10.5,29.24,14.04,4.52,1.44,6.16,1.94,10.77,2.74M94.01,66.05c1.92-.32,1.23-.23,3.15-.69,6.66-1.55,16.09-5.41,27.96-10.96,4.5-2.12,9.36-4.47,14.56-7.03"/>
  <path class="cls-4" d="M89.72,43.61c1.57-.27.77-.15,2.35-.52,8.81-2.05,29.31-12.01,47.61-21.2"/>
  <path class="cls-4" d="M10.5,18.12c2.03,2.65,4.29,5.09,6.78,7.33,7.53,6.82,17.46,12.23,29.49,16.07,3.51,1.12,4.49,1.48,8.1,2.09"/>
  <line class="cls-3" x1="115.84" y1="37.19" x2="122.46" y2="52.25"/>
  <line class="cls-3" x1="29.56" y1="36.84" x2="20.13" y2="52.09"/>
  <path class="cls-1" d="M73.24,54.4s-.08-.02-.11-.05c-.07-.06-.07-.17,0-.23.21-.22.44-.34.87-.53,1.19-.52,1.75-1.13,1.76-1.91.01-1.16-1.4-2.13-3.14-2.15-1.74-.02-3.17.91-3.19,2.08,0,.88.72,1.43,1.81,1.98l.14.07c.3.15.5.24.68.43.06.07.06.17,0,.23-.07.06-.17.06-.23,0-.14-.14-.3-.22-.58-.36l-.14-.07c-1.2-.61-2-1.23-1.99-2.28.01-1.35,1.59-2.42,3.52-2.4,1.93.02,3.48,1.13,3.47,2.48-.01.93-.63,1.63-1.96,2.21-.42.2-.6.3-.76.46-.03.03-.08.05-.12.05Z"/>
  <path class="cls-1" d="M72.49,60.88c-1.94-.03-3.48-1.15-3.47-2.48.01-1.05,1.06-1.68,2.24-2.3.16-.09.53-.29.65-.58.03-.08.13-.12.22-.09.08.03.12.13.09.22-.16.4-.61.64-.78.73-1.1.58-2.08,1.16-2.08,2.02-.01,1.16,1.38,2.12,3.12,2.15,1.77.02,3.2-.91,3.21-2.08,0-.75-.51-1.32-1.78-1.97-.18-.08-.71-.39-.96-.82-.05-.08-.02-.18.06-.23.08-.05.18-.02.22.06.21.36.7.64.82.69.98.5,1.98,1.16,1.97,2.27-.01,1.35-1.59,2.43-3.52,2.41Z"/>
  <circle class="cls-1" cx="72.56" cy="54.91" r=".41"/>
  <path class="cls-1" d="M71.93,54.37s-.09-.02-.12-.05c-.05-.06-.1-.11-.16-.16-.28-.29-.58-.59-.77-1.1-.37-.99-.23-2.18.36-3.02.38-.53.87-.84,1.37-.83.09,0,.16.08.16.17s-.08.16-.17.16c-.38,0-.78.25-1.09.69-.4.57-.73,1.63-.32,2.71.16.44.42.7.69.98.05.05.11.11.16.17.06.07.06.17,0,.23-.03.03-.07.05-.11.04Z"/>
  <path class="cls-1" d="M73.24,54.4s-.08-.02-.11-.05c-.07-.06-.07-.17,0-.23l.08-.09c.31-.32.59-.59.78-1.07.43-1.07.12-2.14-.27-2.72-.3-.45-.7-.71-1.08-.72-.09,0-.16-.08-.16-.17s.08-.16.17-.16c.49,0,.98.32,1.35.86.57.85.69,2.04.3,3.03-.22.54-.52.85-.85,1.18l-.08.08s-.08.05-.12.05Z"/>
  <path class="cls-1" d="M72.56,54.22c-.07,0-.12-.06-.12-.13l.07-6.1c0-.07.06-.12.13-.12s.12.06.12.13l-.07,6.1c0,.07-.06.12-.13.12Z"/>
  <path class="cls-1" d="M72.63,62.02c.01-.31,0-.72,0-1.14,0-.11,0-.22,0-.33-.01-.3-.02-.61-.04-.91.91,0,1.97-.13,2.33-.82.21-.4.17-.81-.11-1.14-.39-.46-1.16-.68-1.76-.49-.45.15-.72.5-.76.99-.01.14,0,.58.03,1.18v.02s-.06,0-.09,0c-.87-.03-1.9-.22-1.89-1.01,0-.48.47-.71,1.02-.97.63-.3,1.34-.65,1.35-1.49,0-.07-.05-.13-.12-.13s-.13.05-.13.12c0,.69-.59.98-1.21,1.27-.56.28-1.15.56-1.16,1.19,0,.55.36,1.2,2.14,1.26.04,0,.07,0,.11,0,.01.29.03.6.04.91,0,.11,0,.22,0,.33,0,.43.02.83,0,1.14,0,.07.05.12.12.13h0c.07,0,.12-.05.12-.12ZM72.57,59.39s0-.02,0-.03c-.03-.55-.05-1.03-.04-1.15.04-.5.34-.7.59-.78.13-.04.26-.06.4-.06.41,0,.85.18,1.09.47.15.18.28.47.08.86-.24.46-.93.68-2.13.69Z"/>
  <text class="cls-2" transform="translate(59.34 65.35) rotate(4.39)"><tspan x="0" y="0">H</tspan></text>
  <text class="cls-2" transform="translate(61.39 65.5) rotate(3.51)"><tspan x="0" y="0">a</tspan></text>
  <text class="cls-2" transform="translate(62.92 65.6) rotate(2.9)"><tspan x="0" y="0">r</tspan></text>
  <text class="cls-2" transform="translate(63.96 65.65) rotate(2.13)"><tspan x="0" y="0">m</tspan></text>
  <text class="cls-2" transform="translate(66.41 65.74) rotate(1.27)"><tspan x="0" y="0">o</tspan></text>
  <text class="cls-2" transform="translate(68.02 65.77) rotate(.62)"><tspan x="0" y="0">n</tspan></text>
  <text class="cls-2" transform="translate(69.61 65.79) rotate(.17)"><tspan x="0" y="0">i</tspan></text>
  <text class="cls-2" transform="translate(70.36 65.79) rotate(-.27)"><tspan x="0" y="0">e</tspan></text>
  <text class="cls-2" transform="translate(71.9 65.78) rotate(-.68)"><tspan x="0" y="0"> </tspan></text>
  <text class="cls-2" transform="translate(72.57 65.78) rotate(-1.15)"><tspan x="0" y="0">&amp;</tspan></text>
  <text class="cls-2" transform="translate(74.5 65.74) rotate(-1.61)"><tspan x="0" y="0"> </tspan></text>
  <text class="cls-2" transform="translate(75.16 65.72) rotate(-2.08)"><tspan x="0" y="0">Ä</tspan></text>
  <text class="cls-2" transform="translate(77.16 65.65) rotate(-2.6)"><tspan x="0" y="0">r</tspan></text>
  <text class="cls-2" transform="translate(78.16 65.6) rotate(-3.05)"><tspan x="0" y="0">g</tspan></text>
  <text class="cls-2" transform="translate(79.86 65.51) rotate(-3.6)"><tspan x="0" y="0">e</tspan></text>
  <text class="cls-2" transform="translate(81.42 65.41) rotate(-4.05)"><tspan x="0" y="0">r</tspan></text>
  <text class="cls-2" transform="translate(82.46 65.34) rotate(-4.51)"><tspan x="0" y="0">n</tspan></text>
  <text class="cls-2" transform="translate(84.07 65.21) rotate(-4.93)"><tspan x="0" y="0">i</tspan></text>
  <text class="cls-2" transform="translate(84.77 65.15) rotate(-5.29)"><tspan x="0" y="0">s</tspan></text>
</svg>