<?xml version="1.0" encoding="UTF-8"?>
<svg id="Ebene_1" data-name="Ebene 1" xmlns="http://www.w3.org/2000/svg" viewBox="0 0 147.4 90.71">
  <defs>
    <style>
      .cls-1 {
        stroke-width: .4px;
      }

      .cls-1, .cls-2 {
        stroke: #38386a;
        stroke-miterlimit: 10;
      }

      .cls-1, .cls-2, .cls-3, .cls-4, .cls-5, .cls-6 {
        fill: none;
      }

      .cls-2, .cls-3, .cls-4 {
        stroke-width: .5px;
      }

      .cls-3 {
        stroke-dasharray: .5 1;
      }

      .cls-3, .cls-4, .cls-5, .cls-6 {
        stroke: #39396a;
        stroke-linecap: round;
        stroke-linejoin: round;
      }

      .cls-7, .cls-6 {
        opacity: .5;
      }

      .cls-5, .cls-6 {
        stroke-width: .25px;
      }
    </style>
  </defs>
  <line class="cls-4" x1="110.95" y1="69.04" x2="88.56" y2="68.87"/>
  <polyline class="cls-4" points="93.54 71.92 88.37 68.89 93.53 65.85"/>
  <g id="LWPOLYLINE" class="cls-7">
    <path class="cls-5" d="M125.8,22.82c0,2.08-.16,4.16-.51,6.22-.34,2.06-.93,4.06-1.76,5.97-.66,1.52-1.49,2.96-2.48,4.29-.96,1.34-2.15,2.49-3.5,3.42-1.38.92-2.91,1.59-4.52,1.97-1.63.39-3.31.57-4.99.56-.83,0-1.66-.05-2.49-.15"/>
    <path class="cls-5" d="M133.82,22.82c0,2.64-.22,5.28-.68,7.88-.46,2.61-1.23,5.17-2.3,7.61-1.01,2.31-2.32,4.47-3.89,6.44-1.56,2.01-3.47,3.72-5.63,5.06-1.99,1.21-4.14,2.1-6.4,2.63-2.24.53-4.54.79-6.84.77-1.19,0-2.38-.07-3.56-.23"/>
  </g>
  <g id="LWPOLYLINE-2" data-name="LWPOLYLINE" class="cls-7">
    <path class="cls-5" d="M79.79,22.82c0,.65.12,1.3.36,1.91.24.6.55,1.18.92,1.71.38.53.79,1.04,1.24,1.51.47.48.94.96,1.41,1.43,2.31,2.32,4.65,4.61,7.01,6.87,1.77,1.71,3.61,3.36,5.5,4.94.82.7,1.71,1.29,2.67,1.77,2.07,1.1,4.31,1.81,6.64,2.11"/>
    <path class="cls-5" d="M104.5,52.99c-1.05-.14-2.08-.33-3.11-.59-2.18-.55-4.28-1.37-6.27-2.42-1.37-.71-2.66-1.57-3.85-2.55-2.36-1.97-4.62-4.04-6.79-6.21-2.28-2.27-4.59-4.53-6.91-6.76-.49-.5-1.07-.92-1.71-1.22-.55-.26-1.14-.45-1.74-.57-.52-.1-1.05-.15-1.59-.15"/>
  </g>
  <g id="LWPOLYLINE-3" data-name="LWPOLYLINE" class="cls-7">
    <path class="cls-5" d="M39.54,45.09c-.82.11-1.66.15-2.49.15-1.68.01-3.36-.17-4.99-.56-1.61-.37-3.14-1.04-4.52-1.97-1.35-.93-2.54-2.08-3.5-3.42-.99-1.33-1.82-2.77-2.48-4.29-.83-1.91-1.42-3.91-1.76-5.97-.35-2.06-.51-4.13-.51-6.22"/>
    <path class="cls-5" d="M40.57,53c-1.18.15-2.37.23-3.56.23-2.3.01-4.6-.25-6.84-.77-2.26-.54-4.42-1.42-6.4-2.63-2.16-1.34-4.07-3.05-5.63-5.06-1.58-1.97-2.88-4.13-3.89-6.44-1.07-2.44-1.84-4.99-2.3-7.61-.46-2.61-.68-5.24-.68-7.88"/>
  </g>
  <g id="LWPOLYLINE-4" data-name="LWPOLYLINE" class="cls-7">
    <path class="cls-5" d="M72.54,32.5c-.53,0-1.06.05-1.59.15-.6.12-1.18.31-1.74.57-.63.31-1.21.72-1.71,1.22-2.32,2.23-4.63,4.49-6.91,6.76-2.17,2.17-4.43,4.24-6.79,6.21-1.19.98-2.48,1.84-3.85,2.55-1.98,1.06-4.09,1.87-6.27,2.42-1.02.26-2.06.45-3.11.59"/>
    <path class="cls-5" d="M39.54,45.08c2.32-.3,4.57-1.01,6.64-2.11.96-.48,1.85-1.08,2.67-1.77,1.89-1.58,3.73-3.23,5.5-4.94,2.37-2.26,4.7-4.55,7.01-6.87.48-.47.95-.95,1.41-1.43.45-.47.86-.98,1.24-1.51.37-.53.68-1.11.92-1.71.24-.61.36-1.26.36-1.91"/>
  </g>
  <polyline class="cls-6" points="45.79 22.64 45.79 31.06 34.41 31.06 34.41 22.64"/>
  <polyline class="cls-6" points="110.68 22.98 110.68 31.06 99.29 31.06 99.29 22.98"/>
  <path class="cls-2" d="M65.76,59.79h5.94c.55,0,.99.44.99.99v15.71c0,.55-.44.99-.99.99h-4.95c-.55,0-.99-.44-.99-.99v-16.7h0Z"/>
  <path class="cls-1" d="M66.11,77.25v-2.44c0-1.72,1.4-3.12,3.12-3.12h0c1.72,0,3.12,1.4,3.12,3.12v2.44"/>
  <circle class="cls-1" cx="69.23" cy="69.38" r="1.49"/>
  <path class="cls-2" d="M74.65,59.79h5.94c.55,0,.99.44.99.99v15.71c0,.55-.44.99-.99.99h-4.95c-.55,0-.99-.44-.99-.99v-16.7h0Z"/>
  <path class="cls-1" d="M74.99,77.25v-2.44c0-1.72,1.4-3.12,3.12-3.12h0c1.72,0,3.12,1.4,3.12,3.12v2.44"/>
  <circle class="cls-1" cx="78.11" cy="69.38" r="1.49"/>
  <line class="cls-3" x1="7.13" y1="79.44" x2="136.35" y2="79.44"/>
</svg>