<?xml version="1.0" encoding="UTF-8"?>
<svg id="Ebene_1" data-name="Ebene 1" xmlns="http://www.w3.org/2000/svg" viewBox="0 0 147.4 90.71">
  <defs>
    <style>
      .cls-1 {
        font-family: FHOscarPro-Regular, 'FH Oscar Pro';
      }

      .cls-2 {
        letter-spacing: 0em;
      }

      .cls-3, .cls-4 {
        opacity: .5;
      }

      .cls-3, .cls-4, .cls-5 {
        stroke: #38386a;
      }

      .cls-3, .cls-4, .cls-5, .cls-6 {
        fill: none;
        stroke-linecap: round;
        stroke-width: .5px;
      }

      .cls-3, .cls-5, .cls-6 {
        stroke-linejoin: round;
      }

      .cls-7 {
        letter-spacing: 0em;
      }

      .cls-4 {
        stroke-miterlimit: 10;
      }

      .cls-8 {
        font-family: FHOscarPro-Medium, 'FH Oscar Pro';
        font-weight: 500;
      }

      .cls-9 {
        font-family: F37Oracle-SemiBold, 'F37 Oracle';
        font-size: 3px;
        font-weight: 600;
      }

      .cls-9, .cls-10 {
        fill: #38386a;
      }

      .cls-11 {
        letter-spacing: -.02em;
      }

      .cls-12 {
        letter-spacing: -.02em;
      }

      .cls-13 {
        letter-spacing: -.01em;
      }

      .cls-14 {
        letter-spacing: -.02em;
      }

      .cls-15 {
        letter-spacing: -.03em;
      }

      .cls-16 {
        letter-spacing: 0em;
      }

      .cls-17 {
        letter-spacing: -.01em;
      }

      .cls-18 {
        letter-spacing: 0em;
      }

      .cls-19 {
        letter-spacing: 0em;
      }

      .cls-20 {
        letter-spacing: 0em;
      }

      .cls-6 {
        stroke: #39396a;
      }

      .cls-21 {
        letter-spacing: .02em;
      }

      .cls-22 {
        letter-spacing: .02em;
      }

      .cls-10 {
        font-size: 2.14px;
      }

      .cls-23 {
        letter-spacing: .02em;
      }

      .cls-24 {
        letter-spacing: .01em;
      }
    </style>
  </defs>
  <line class="cls-6" x1="72.36" y1="32.75" x2="72.39" y2="39.78"/>
  <polyline class="cls-6" points="73.83 37.36 72.4 39.87 70.91 37.4"/>
  <path class="cls-5" d="M91.38,66.53c-12.8,2.33-25.52,2.37-37.96.14l4.02-22.53c9.77,1.76,19.77,1.73,29.88-.07l4.06,22.46Z"/>
  <path class="cls-4" d="M10.5,49.28c8.38,5.82,18.15,10.5,29.24,14.04,4.52,1.44,6.16,1.94,10.77,2.74M94.01,66.05c1.92-.32,1.23-.23,3.15-.69,6.66-1.55,16.09-5.41,27.96-10.96,4.5-2.12,9.36-4.47,14.56-7.03"/>
  <path class="cls-4" d="M89.72,43.61c1.57-.27.77-.15,2.35-.52,8.81-2.05,29.31-12.01,47.61-21.2"/>
  <path class="cls-4" d="M10.5,18.12c2.03,2.65,4.29,5.09,6.78,7.33,7.53,6.82,17.46,12.23,29.49,16.07,3.51,1.12,4.49,1.48,8.1,2.09"/>
  <line class="cls-3" x1="115.84" y1="37.19" x2="122.46" y2="52.25"/>
  <line class="cls-3" x1="29.56" y1="36.84" x2="20.13" y2="52.09"/>
  <text class="cls-10" transform="translate(61.17 50.01) rotate(-.47)"><tspan class="cls-8"><tspan class="cls-12" x="0" y="0">Z</tspan><tspan x="1.22" y="0">uf</tspan><tspan class="cls-21" x="3.06" y="0">u</tspan><tspan x="4.27" y="0">ß – 2 </tspan><tspan class="cls-15" x="9.3" y="0">F</tspan><tspan class="cls-18" x="10.39" y="0">eld</tspan><tspan class="cls-13" x="13.15" y="0">e</tspan><tspan x="14.24" y="0">r zurück</tspan></tspan><tspan class="cls-8"><tspan x="1.69" y="2.56">Öff</tspan><tspan class="cls-23" x="4.56" y="2.56">i</tspan><tspan x="5.04" y="2.56">s – 1 </tspan><tspan class="cls-15" x="9.41" y="2.56">F</tspan><tspan class="cls-18" x="10.51" y="2.56">eld </tspan><tspan class="cls-7" x="13.7" y="2.56">z</tspan><tspan class="cls-19" x="14.66" y="2.56">urück</tspan></tspan><tspan class="cls-1"><tspan x="3.27" y="7.69">Pl</tspan><tspan class="cls-2" x="4.96" y="7.69">ö</tspan><tspan class="cls-22" x="6.14" y="7.69">t</tspan><tspan class="cls-20" x="6.86" y="7.69">zlich </tspan><tspan class="cls-2" x="11.35" y="7.69">b</tspan><tspan x="12.54" y="7.69">egin</tspan><tspan class="cls-16" x="16.42" y="7.69">n</tspan><tspan x="17.56" y="7.69">t</tspan></tspan><tspan class="cls-1"><tspan x="2.21" y="10.26"> </tspan><tspan class="cls-24" x="2.63" y="10.26">e</tspan><tspan x="3.77" y="10.26">s stark zu </tspan><tspan class="cls-11" x="12.55" y="10.26">r</tspan><tspan x="13.23" y="10.26">egn</tspan><tspan class="cls-14" x="16.67" y="10.26">e</tspan><tspan class="cls-17" x="17.75" y="10.26">n</tspan><tspan x="18.87" y="10.26">.</tspan></tspan></text>
  <text class="cls-9" transform="translate(57.35 64.44) rotate(8.13)"><tspan x="0" y="0">E</tspan></text>
  <text class="cls-9" transform="translate(59.02 64.68) rotate(7.25)"><tspan x="0" y="0">r</tspan></text>
  <text class="cls-9" transform="translate(60.05 64.81) rotate(6.44)"><tspan x="0" y="0">e</tspan></text>
  <text class="cls-9" transform="translate(61.57 64.98) rotate(5.76)"><tspan x="0" y="0">i</tspan></text>
  <text class="cls-9" transform="translate(62.31 65.06) rotate(5)"><tspan x="0" y="0">g</tspan></text>
  <text class="cls-9" transform="translate(64.03 65.21) rotate(4.01)"><tspan x="0" y="0">n</tspan></text>
  <text class="cls-9" transform="translate(65.62 65.32) rotate(3.35)"><tspan x="0" y="0">i</tspan></text>
  <text class="cls-9" transform="translate(66.37 65.36) rotate(2.76)"><tspan x="0" y="0">s</tspan></text>
  <text class="cls-9" transform="translate(67.67 65.43) rotate(2.19)"><tspan x="0" y="0">:</tspan></text>
  <text class="cls-9" transform="translate(68.38 65.45) rotate(1.82)"><tspan x="0" y="0"> </tspan></text>
  <text class="cls-9" transform="translate(69.06 65.48) rotate(1.12)"><tspan x="0" y="0">R</tspan></text>
  <text class="cls-9" transform="translate(70.87 65.51) rotate(.23)"><tspan x="0" y="0">e</tspan></text>
  <text class="cls-9" transform="translate(72.45 65.52) rotate(-.65)"><tspan x="0" y="0">g</tspan></text>
  <text class="cls-9" transform="translate(74.18 65.5) rotate(-1.51)"><tspan x="0" y="0">e</tspan></text>
  <text class="cls-9" transform="translate(75.73 65.46) rotate(-2.33)"><tspan x="0" y="0">n</tspan></text>
  <text class="cls-9" transform="translate(77.36 65.39) rotate(-3.08)"><tspan x="0" y="0">s</tspan></text>
  <text class="cls-9" transform="translate(78.65 65.32) rotate(-3.82)"><tspan x="0" y="0">c</tspan></text>
  <text class="cls-9" transform="translate(80.23 65.21) rotate(-4.65)"><tspan x="0" y="0">h</tspan></text>
  <text class="cls-9" transform="translate(81.87 65.08) rotate(-5.48)"><tspan x="0" y="0">a</tspan></text>
  <text class="cls-9" transform="translate(83.39 64.93) rotate(-6.32)"><tspan x="0" y="0">u</tspan></text>
  <text class="cls-9" transform="translate(84.95 64.76) rotate(-7.19)"><tspan x="0" y="0">e</tspan></text>
  <text class="cls-9" transform="translate(86.5 64.56) rotate(-7.96)"><tspan x="0" y="0">r</tspan></text>
</svg>