<?xml version="1.0" encoding="UTF-8"?>
<svg id="Ebene_1" data-name="Ebene 1" xmlns="http://www.w3.org/2000/svg" viewBox="0 0 71.8 43.76">
  <defs>
    <style>
      .cls-1 {
        fill: #39396a;
        font-family: F37Oracle-Bold, 'F37 Oracle';
        font-size: 2.32px;
        font-weight: 700;
      }

      .cls-2 {
        stroke-dasharray: .48 .95;
        stroke-width: .25px;
      }

      .cls-2, .cls-3, .cls-4, .cls-5, .cls-6 {
        fill: none;
      }

      .cls-2, .cls-3, .cls-5, .cls-6 {
        stroke-linecap: round;
      }

      .cls-2, .cls-5, .cls-6 {
        stroke: #39396a;
        stroke-linejoin: round;
      }

      .cls-3 {
        stroke: #38386a;
        stroke-miterlimit: 10;
      }

      .cls-3, .cls-7, .cls-4, .cls-6 {
        opacity: .5;
      }

      .cls-3, .cls-5, .cls-6 {
        stroke-width: .5px;
      }

      .cls-8 {
        letter-spacing: -.07em;
      }

      .cls-9 {
        letter-spacing: .02em;
      }

      .cls-10 {
        letter-spacing: .02em;
      }

      .cls-11 {
        letter-spacing: 0em;
      }
    </style>
  </defs>
  <path class="cls-4" d="M31.92,24.05h-10.04c0-3.81-1.34-7.52-3.59-9.93l7.33-6.85c4,4.29,6.3,10.4,6.3,16.78Z"/>
  <path class="cls-3" d="M7.35,2.94c1.64,1.69,3.38,3.46,5.18,5.29,2.4,2.45,4.48,4.56,5.73,5.89,2.25,2.41,3.59,6.12,3.59,9.93s-1.34,7.51-3.58,9.91c-1.34,1.44-3.52,3.65-6.04,6.21-.21.21-.42.43-.63.64M62.2,40.81c-.21-.22-.43-.43-.64-.65-2.51-2.56-4.68-4.77-6.02-6.2-2.24-2.4-3.58-6.11-3.58-9.91s1.35-7.52,3.6-9.93c1.23-1.32,3.3-3.43,5.7-5.86,1.81-1.84,3.55-3.62,5.21-5.32"/>
  <path class="cls-3" d="M25.62,7.28c-1.01-1.08-2.47-2.58-4.2-4.34"/>
  <line class="cls-6" x1="43.1" y1="24.05" x2="50.97" y2="24.05"/>
  <g class="cls-7">
    <circle class="cls-2" cx="34" cy="32.89" r="2.51"/>
  </g>
  <g class="cls-7">
    <circle class="cls-2" cx="39.94" cy="32.89" r="2.51"/>
  </g>
  <g class="cls-7">
    <circle class="cls-2" cx="33.97" cy="15.05" r="2.51"/>
  </g>
  <g class="cls-7">
    <path class="cls-2" d="M39.91,12.54c1.39,0,2.51,1.12,2.51,2.51s-1.12,2.51-2.51,2.51-2.51-1.12-2.51-2.51,1.12-2.51,2.51-2.51Z"/>
  </g>
  <g class="cls-7">
    <circle class="cls-2" cx="37.01" cy="27.37" r="2.51"/>
  </g>
  <g class="cls-7">
    <circle class="cls-2" cx="37.01" cy="20.6" r="2.51"/>
  </g>
  <path class="cls-5" d="M31.92,24.05h-10.04c0-3.81-1.34-7.52-3.59-9.93l7.33-6.85c4,4.29,6.3,10.4,6.3,16.78Z"/>
  <path class="cls-6" d="M25.64,40.81c3.99-4.28,6.28-10.39,6.28-16.75"/>
  <path class="cls-6" d="M52.46,2.94c-1.73,1.76-3.19,3.25-4.2,4.33h0c-4,4.28-6.3,10.4-6.3,16.78s2.29,12.48,6.28,16.76"/>
  <text class="cls-1" transform="translate(23.32 22.04)"><tspan class="cls-10" x="0" y="0">S</tspan><tspan class="cls-8" x="1.34" y="0">T</tspan><tspan class="cls-9" x="2.54" y="0">A</tspan><tspan class="cls-11" x="4.11" y="0">R</tspan><tspan class="cls-9" x="5.55" y="0">T</tspan></text>
  <polyline class="cls-5" points="23.47 14.78 23.62 12.39 25.82 13.42"/>
  <path class="cls-5" d="M26.34,18.48s-.26-2.18-2.72-6.09"/>
</svg>