<?xml version="1.0" encoding="UTF-8"?>
<svg id="Ebene_1" data-name="Ebene 1" xmlns="http://www.w3.org/2000/svg" viewBox="0 0 71.8 43.76">
  <defs>
    <style>
      .cls-1 {
        fill: #39396a;
      }

      .cls-2 {
        stroke-dasharray: .5 1;
      }

      .cls-2, .cls-3 {
        fill: none;
        stroke: #39396a;
        stroke-linecap: round;
        stroke-linejoin: round;
        stroke-width: .5px;
      }
    </style>
  </defs>
  <path class="cls-2" d="M16.39,36.46c-1.94,0-3.67-.34-5.14-1.01-1.44-.66-2.69-1.66-3.71-2.99-1.06-1.38-1.86-2.95-2.39-4.69-.54-1.77-.81-3.75-.81-5.9s.27-4.13.81-5.9c.53-1.74,1.34-3.31,2.39-4.69,1.02-1.32,2.27-2.33,3.71-2.99,1.47-.67,3.2-1.01,5.14-1.01,2.38,0,4.64.63,6.74,1.88,1.53.91,3.98,3.34,6.15,5.49.93.92,1.8,1.79,2.58,2.51,1.01.95,2.48,1.49,4.04,1.49s3.01-.54,4.03-1.49c.81-.76,1.71-1.65,2.66-2.58,2.17-2.15,4.58-4.53,6.08-5.42,2.1-1.25,4.37-1.88,6.74-1.88,1.94,0,3.68.34,5.14,1.01,1.44.66,2.69,1.66,3.71,2.99,1.06,1.38,1.86,2.95,2.4,4.69.54,1.76.81,3.75.81,5.9s-.27,4.13-.81,5.9c-.53,1.74-1.34,3.32-2.4,4.69-1.02,1.32-2.27,2.33-3.71,2.99-1.47.67-3.2,1.01-5.14,1.01-2.37,0-4.64-.63-6.74-1.88-1.5-.89-3.91-3.28-6.04-5.39-.98-.97-1.88-1.86-2.69-2.62-1.01-.95-2.48-1.49-4.03-1.49s-3.02.54-4.04,1.49"/>
  <polyline class="cls-3" points="19.98 37.26 17.79 36.31 19.51 34.59"/>
  <path class="cls-3" d="M31.91,26.31c-1.27,1.27-3.23,3.21-4.56,4.48-1.01.98-2.09,1.94-3.18,2.85-.57.49-1.22.92-1.92,1.27-1.35.72-2.85,1.2-4.42,1.4"/>
  <circle class="cls-1" cx="31.91" cy="26.31" r="1.11"/>
</svg>