<?xml version="1.0" encoding="UTF-8"?>
<svg id="Ebene_1" data-name="Ebene 1" xmlns="http://www.w3.org/2000/svg" viewBox="0 0 147.4 90.71">
  <defs>
    <style>
      .cls-1, .cls-2 {
        fill: #38386a;
      }

      .cls-3, .cls-4 {
        opacity: .5;
      }

      .cls-3, .cls-4, .cls-5 {
        stroke: #38386a;
      }

      .cls-3, .cls-4, .cls-5, .cls-6 {
        fill: none;
        stroke-linecap: round;
        stroke-width: .5px;
      }

      .cls-3, .cls-5, .cls-6 {
        stroke-linejoin: round;
      }

      .cls-4 {
        stroke-miterlimit: 10;
      }

      .cls-2 {
        font-family: F37Oracle-SemiBold, 'F37 Oracle';
        font-size: 3px;
        font-weight: 600;
      }

      .cls-6 {
        stroke: #39396a;
      }
    </style>
  </defs>
  <line class="cls-6" x1="72.36" y1="32.75" x2="72.39" y2="39.78"/>
  <line class="cls-6" x1="72.36" y1="75.13" x2="72.39" y2="82.16"/>
  <line class="cls-6" x1="75.89" y1="78.63" x2="68.86" y2="78.66"/>
  <polyline class="cls-6" points="73.83 37.36 72.4 39.87 70.91 37.4"/>
  <text class="cls-2" transform="translate(65.47 65.39) rotate(2.45)"><tspan x="0" y="0">R</tspan></text>
  <text class="cls-2" transform="translate(67.32 65.47) rotate(2.04)"><tspan x="0" y="0">i</tspan></text>
  <text class="cls-2" transform="translate(68.06 65.49) rotate(1.71)"><tspan x="0" y="0">t</tspan></text>
  <text class="cls-2" transform="translate(69.31 65.53) rotate(1.26)"><tspan x="0" y="0">u</tspan></text>
  <text class="cls-2" transform="translate(70.89 65.57) rotate(.76)"><tspan x="0" y="0">a</tspan></text>
  <text class="cls-2" transform="translate(72.43 65.59) rotate(.4)"><tspan x="0" y="0">l</tspan></text>
  <text class="cls-2" transform="translate(73.15 65.59) rotate(.02)"><tspan x="0" y="0">k</tspan></text>
  <text class="cls-2" transform="translate(74.73 65.59) rotate(-.49)"><tspan x="0" y="0">a</tspan></text>
  <text class="cls-2" transform="translate(76.28 65.58) rotate(-.94)"><tspan x="0" y="0">r</tspan></text>
  <text class="cls-2" transform="translate(77.35 65.56) rotate(-1.35)"><tspan x="0" y="0">t</tspan></text>
  <text class="cls-2" transform="translate(78.6 65.53) rotate(-1.83)"><tspan x="0" y="0">e</tspan></text>
  <circle class="cls-1" cx="72.58" cy="54.97" r=".41"/>
  <path class="cls-1" d="M72.6,55.96c.07,0,.12.05.13.12l.07,5.92c0,.07-.05.12-.12.13s-.12-.05-.13-.12l-.07-5.92c0-.07.05-.12.12-.13Z"/>
  <path class="cls-1" d="M75.41,56.14c.06,0,.12.03.15.09.66,1.19.76,2.31.29,3.15-.34.61-1.17,1.35-3.16,1.43h0c-.09,0-.16-.07-.17-.16,0-.09.07-.17.16-.17,1.45-.05,2.45-.49,2.89-1.26.41-.73.31-1.74-.29-2.83-.04-.08-.02-.18.06-.22.02-.01.05-.02.08-.02Z"/>
  <path class="cls-1" d="M73.44,55.24c.06,0,.12.03.15.09.04.07.87,1.64.89,2.97.01.86-.2,1.52-.63,1.96-.5.52-1.11.54-1.18.54h0c-.09,0-.17-.07-.17-.16s.07-.17.16-.17c.02,0,.53-.01.94-.44.37-.38.55-.96.54-1.73-.02-1.25-.85-2.8-.86-2.82-.04-.08-.01-.18.07-.22.02-.01.05-.02.08-.02Z"/>
  <path class="cls-1" d="M69.8,56.21s.05,0,.08.02c.08.04.11.14.07.22-.57,1.11-.65,2.11-.22,2.83.45.76,1.46,1.17,2.92,1.19.09,0,.16.08.16.17,0,.09-.07.16-.16.16h0c-1.99-.02-2.84-.75-3.2-1.35-.49-.82-.42-1.94.21-3.16.03-.06.09-.09.14-.09Z"/>
  <path class="cls-1" d="M71.75,55.26s.05,0,.08.02c.08.04.11.14.07.22,0,.02-.8,1.59-.79,2.84,0,.77.2,1.34.58,1.71.43.42.93.42.95.42.09,0,.17.07.17.16s-.07.17-.16.17h0c-.07,0-.67,0-1.19-.51-.44-.43-.67-1.09-.68-1.94-.01-1.33.79-2.92.82-2.99.03-.06.09-.09.15-.09Z"/>
  <path class="cls-1" d="M72.51,47.87c.07,0,.12.05.13.12l.07,5.84c0,.07-.05.12-.12.13s-.12-.05-.13-.12l-.07-5.84c0-.07.05-.12.12-.13Z"/>
  <path class="cls-1" d="M72.51,49.15c.09,0,.16.07.17.16,0,.09-.07.17-.16.17-1.45.05-2.45.49-2.89,1.26-.41.73-.31,1.74.29,2.83.04.08.02.18-.06.22-.08.04-.18.02-.22-.06-.66-1.19-.76-2.31-.29-3.15.34-.61,1.17-1.35,3.16-1.43h0Z"/>
  <path class="cls-1" d="M72.51,49.15c.09,0,.17.07.17.16s-.07.17-.16.17c-.02,0-.53.01-.94.44-.37.38-.55.96-.54,1.73.02,1.25.85,2.8.86,2.82.04.08.01.18-.07.22-.08.04-.18.01-.22-.07-.04-.07-.87-1.64-.89-2.97-.01-.86.2-1.52.63-1.96.5-.52,1.11-.54,1.18-.54h0Z"/>
  <path class="cls-1" d="M72.53,49.15h0c1.99.02,2.84.75,3.2,1.35.49.82.42,1.94-.21,3.16-.04.08-.14.11-.22.07-.08-.04-.11-.14-.07-.22.57-1.11.65-2.11.22-2.83-.45-.76-1.46-1.17-2.92-1.19-.09,0-.16-.08-.16-.17,0-.09.07-.16.16-.16Z"/>
  <path class="cls-1" d="M72.53,49.15h0c.07,0,.68,0,1.19.51.44.43.67,1.09.68,1.94.01,1.33-.79,2.92-.82,2.99-.04.08-.14.11-.22.07-.08-.04-.11-.14-.07-.22,0-.02.8-1.59.79-2.84,0-.77-.2-1.34-.58-1.71-.43-.42-.93-.42-.95-.42-.09,0-.17-.07-.17-.16s.07-.17.16-.17Z"/>
  <path class="cls-5" d="M91.38,66.53c-12.8,2.33-25.52,2.37-37.96.14l4.02-22.53c9.77,1.76,19.77,1.73,29.88-.07l4.06,22.46Z"/>
  <path class="cls-4" d="M10.5,49.28c8.38,5.82,18.15,10.5,29.24,14.04,4.52,1.44,6.16,1.94,10.77,2.74M94.01,66.05c1.92-.32,1.23-.23,3.15-.69,6.66-1.55,16.09-5.41,27.96-10.96,4.5-2.12,9.36-4.47,14.56-7.03"/>
  <path class="cls-4" d="M89.72,43.61c1.57-.27.77-.15,2.35-.52,8.81-2.05,29.31-12.01,47.61-21.2"/>
  <path class="cls-4" d="M10.5,18.12c2.03,2.65,4.29,5.09,6.78,7.33,7.53,6.82,17.46,12.23,29.49,16.07,3.51,1.12,4.49,1.48,8.1,2.09"/>
  <line class="cls-3" x1="115.84" y1="37.19" x2="122.46" y2="52.25"/>
  <line class="cls-3" x1="29.56" y1="36.84" x2="20.13" y2="52.09"/>
</svg>