<?xml version="1.0" encoding="UTF-8"?>
<svg id="Ebene_1" data-name="Ebene 1" xmlns="http://www.w3.org/2000/svg" xmlns:xlink="http://www.w3.org/1999/xlink" viewBox="0 0 229.9 495.65">
  <defs>
    <style>
      .cls-1 {
        font-size: 3.99px;
      }

      .cls-1, .cls-2, .cls-3, .cls-4 {
        fill: #38386a;
      }

      .cls-1, .cls-4 {
        font-family: F37Oracle-Medium, 'F37 Oracle';
        font-weight: 500;
      }

      .cls-2, .cls-5, .cls-6, .cls-7, .cls-8, .cls-9, .cls-10, .cls-11, .cls-12, .cls-13, .cls-14, .cls-15, .cls-16, .cls-17, .cls-18, .cls-19, .cls-20, .cls-21, .cls-22, .cls-23, .cls-24, .cls-25, .cls-26, .cls-27, .cls-28, .cls-29, .cls-30, .cls-31, .cls-32, .cls-33, .cls-34, .cls-35, .cls-36, .cls-37, .cls-38, .cls-39, .cls-40, .cls-41, .cls-42, .cls-43, .cls-44, .cls-45, .cls-46, .cls-47 {
        stroke: #38386a;
        stroke-miterlimit: 10;
      }

      .cls-2, .cls-7, .cls-8, .cls-9, .cls-10, .cls-11, .cls-12, .cls-13, .cls-14, .cls-15, .cls-16, .cls-17, .cls-18, .cls-19, .cls-20, .cls-21, .cls-22, .cls-23, .cls-24, .cls-25, .cls-26, .cls-27, .cls-28, .cls-29, .cls-30, .cls-31, .cls-32, .cls-33, .cls-34, .cls-35, .cls-36, .cls-37, .cls-38, .cls-39, .cls-40, .cls-41, .cls-42, .cls-44, .cls-45, .cls-46, .cls-47 {
        stroke-width: .1px;
      }

      .cls-5 {
        stroke-width: .25px;
      }

      .cls-5, .cls-6, .cls-48, .cls-42, .cls-49, .cls-43 {
        fill: none;
      }

      .cls-6, .cls-48, .cls-49, .cls-43 {
        stroke-width: .5px;
      }

      .cls-7 {
        fill: url(#Unbenannter_Verlauf_101-3);
      }

      .cls-8 {
        fill: url(#Unbenannter_Verlauf_42-10);
      }

      .cls-9 {
        fill: url(#Unbenannter_Verlauf_42-11);
      }

      .cls-10 {
        fill: url(#Unbenannter_Verlauf_42-17);
      }

      .cls-11 {
        fill: url(#Unbenannter_Verlauf_42-26);
      }

      .cls-12 {
        fill: url(#Unbenannter_Verlauf_42-22);
      }

      .cls-13 {
        fill: url(#Unbenannter_Verlauf_42-25);
      }

      .cls-14 {
        fill: url(#Unbenannter_Verlauf_42-24);
      }

      .cls-15 {
        fill: url(#Unbenannter_Verlauf_42-23);
      }

      .cls-16 {
        fill: url(#Unbenannter_Verlauf_42-16);
      }

      .cls-17 {
        fill: url(#Unbenannter_Verlauf_42-14);
      }

      .cls-18 {
        fill: url(#Unbenannter_Verlauf_42-19);
      }

      .cls-19 {
        fill: url(#Unbenannter_Verlauf_42-13);
      }

      .cls-20 {
        fill: url(#Unbenannter_Verlauf_42-15);
      }

      .cls-21 {
        fill: url(#Unbenannter_Verlauf_42-12);
      }

      .cls-22 {
        fill: url(#Unbenannter_Verlauf_42-20);
      }

      .cls-23 {
        fill: url(#Unbenannter_Verlauf_42-18);
      }

      .cls-24 {
        fill: url(#Unbenannter_Verlauf_42-29);
      }

      .cls-25 {
        fill: url(#Unbenannter_Verlauf_42-27);
      }

      .cls-26 {
        fill: url(#Unbenannter_Verlauf_42-28);
      }

      .cls-27 {
        fill: url(#Unbenannter_Verlauf_42-21);
      }

      .cls-28 {
        fill: url(#Unbenannter_Verlauf_42-30);
      }

      .cls-29 {
        fill: url(#Unbenannter_Verlauf_42-32);
      }

      .cls-30 {
        fill: url(#Unbenannter_Verlauf_42-31);
      }

      .cls-50 {
        fill: #38396a;
      }

      .cls-48 {
        stroke-dasharray: 1.42 .71;
      }

      .cls-48, .cls-49 {
        stroke: #39396a;
        stroke-linejoin: round;
      }

      .cls-48, .cls-49, .cls-43, .cls-46 {
        stroke-linecap: round;
      }

      .cls-31 {
        fill: #383b49;
      }

      .cls-51 {
        clip-path: url(#clippath-17);
      }

      .cls-52 {
        clip-path: url(#clippath-19);
      }

      .cls-53 {
        clip-path: url(#clippath-11);
      }

      .cls-54 {
        clip-path: url(#clippath-16);
      }

      .cls-55 {
        clip-path: url(#clippath-18);
      }

      .cls-56 {
        clip-path: url(#clippath-10);
      }

      .cls-57 {
        clip-path: url(#clippath-15);
      }

      .cls-58 {
        clip-path: url(#clippath-13);
      }

      .cls-59 {
        clip-path: url(#clippath-14);
      }

      .cls-60 {
        clip-path: url(#clippath-12);
      }

      .cls-61 {
        clip-path: url(#clippath-31);
      }

      .cls-62 {
        clip-path: url(#clippath-30);
      }

      .cls-63 {
        clip-path: url(#clippath-27);
      }

      .cls-64 {
        clip-path: url(#clippath-29);
      }

      .cls-65 {
        clip-path: url(#clippath-26);
      }

      .cls-66 {
        clip-path: url(#clippath-28);
      }

      .cls-67 {
        clip-path: url(#clippath-20);
      }

      .cls-68 {
        clip-path: url(#clippath-21);
      }

      .cls-69 {
        clip-path: url(#clippath-22);
      }

      .cls-70 {
        clip-path: url(#clippath-23);
      }

      .cls-71 {
        clip-path: url(#clippath-24);
      }

      .cls-72 {
        clip-path: url(#clippath-25);
      }

      .cls-32 {
        fill: url(#Unbenannter_Verlauf_101);
      }

      .cls-73 {
        clip-path: url(#clippath-1);
      }

      .cls-74 {
        clip-path: url(#clippath-3);
      }

      .cls-75 {
        clip-path: url(#clippath-4);
      }

      .cls-76 {
        clip-path: url(#clippath-2);
      }

      .cls-77 {
        clip-path: url(#clippath-7);
      }

      .cls-78 {
        clip-path: url(#clippath-6);
      }

      .cls-79 {
        clip-path: url(#clippath-9);
      }

      .cls-80 {
        clip-path: url(#clippath-8);
      }

      .cls-81 {
        clip-path: url(#clippath-5);
      }

      .cls-33 {
        fill: url(#Unbenannter_Verlauf_42-7);
      }

      .cls-34 {
        fill: url(#Unbenannter_Verlauf_42-9);
      }

      .cls-35 {
        fill: url(#Unbenannter_Verlauf_42-5);
      }

      .cls-36 {
        fill: url(#Unbenannter_Verlauf_42-6);
      }

      .cls-37 {
        fill: url(#Unbenannter_Verlauf_42-4);
      }

      .cls-38 {
        fill: url(#Unbenannter_Verlauf_42-3);
      }

      .cls-39 {
        fill: url(#Unbenannter_Verlauf_42-8);
      }

      .cls-40 {
        fill: url(#Unbenannter_Verlauf_42-2);
      }

      .cls-4 {
        font-size: 2.57px;
      }

      .cls-41 {
        fill: #3a3c49;
      }

      .cls-82 {
        letter-spacing: 0em;
      }

      .cls-44 {
        fill: #393c49;
      }

      .cls-83 {
        letter-spacing: .01em;
      }

      .cls-84 {
        clip-path: url(#clippath);
      }

      .cls-45 {
        fill: #393b49;
      }

      .cls-85 {
        letter-spacing: .02em;
      }

      .cls-46 {
        fill: url(#Unbenannter_Verlauf_101-2);
      }

      .cls-86 {
        letter-spacing: 0em;
      }

      .cls-87 {
        letter-spacing: 0em;
      }

      .cls-47 {
        fill: url(#Unbenannter_Verlauf_42);
      }

      .cls-88 {
        letter-spacing: .01em;
      }

      .cls-89 {
        letter-spacing: .01em;
      }

      .cls-90 {
        letter-spacing: 0em;
      }

      .cls-91 {
        letter-spacing: 0em;
      }
    </style>
    <linearGradient id="Unbenannter_Verlauf_101" data-name="Unbenannter Verlauf 101" x1="30.11" y1="420.4" x2="30.11" y2="438.5" gradientUnits="userSpaceOnUse">
      <stop offset="0" stop-color="#383b49"/>
      <stop offset=".64" stop-color="#27282c" stop-opacity=".37"/>
      <stop offset="1" stop-color="#1d1d1b" stop-opacity="0"/>
    </linearGradient>
    <linearGradient id="Unbenannter_Verlauf_42" data-name="Unbenannter Verlauf 42" x1="93.15" y1="430.01" x2="93.15" y2="414.18" gradientUnits="userSpaceOnUse">
      <stop offset="0" stop-color="#383b49"/>
      <stop offset=".61" stop-color="#27282c" stop-opacity=".37"/>
      <stop offset=".94" stop-color="#1d1d1b" stop-opacity="0"/>
    </linearGradient>
    <clipPath id="clippath">
      <path class="cls-42" d="M96.03,429.62c-.11.07-.14.22-.07.33.07.11.22.14.33.07.11-.07.14-.22.07-.33-.07-.11-.22-.14-.33-.07Z"/>
    </clipPath>
    <linearGradient id="Unbenannter_Verlauf_42-2" data-name="Unbenannter Verlauf 42" x1="91.39" y1="429.45" x2="91.39" y2="414.18" xlink:href="#Unbenannter_Verlauf_42"/>
    <clipPath id="clippath-1">
      <path class="cls-42" d="M94.52,429.35c-.09.12-.27.15-.39.05-.12-.09-.15-.27-.05-.39.09-.12.27-.15.39-.05.12.09.15.27.05.39Z"/>
    </clipPath>
    <linearGradient id="Unbenannter_Verlauf_42-3" data-name="Unbenannter Verlauf 42" x1="89.23" y1="432.55" x2="89.23" y2="414.18" xlink:href="#Unbenannter_Verlauf_42"/>
    <clipPath id="clippath-2">
      <path class="cls-42" d="M89.91,432.42c-.08.13-.26.16-.38.08-.13-.08-.16-.26-.08-.38.08-.13.26-.16.38-.08.13.08.16.26.08.38Z"/>
    </clipPath>
    <linearGradient id="Unbenannter_Verlauf_42-4" data-name="Unbenannter Verlauf 42" x1="88.13" y1="429.21" x2="88.13" y2="414.18" xlink:href="#Unbenannter_Verlauf_42"/>
    <clipPath id="clippath-3">
      <path class="cls-42" d="M89.1,429.02c-.06.14-.23.2-.37.14-.14-.06-.2-.23-.14-.37.06-.14.23-.2.37-.14.14.06.2.23.14.37Z"/>
    </clipPath>
    <linearGradient id="Unbenannter_Verlauf_42-5" data-name="Unbenannter Verlauf 42" x1="92.2" y1="428.83" x2="92.2" y2="414.18" xlink:href="#Unbenannter_Verlauf_42"/>
    <clipPath id="clippath-4">
      <path class="cls-42" d="M95.74,428.44c-.1.08-.12.23-.04.33.08.1.23.12.33.04.1-.08.12-.23.04-.33-.08-.1-.23-.12-.33-.04Z"/>
    </clipPath>
    <linearGradient id="Unbenannter_Verlauf_42-6" data-name="Unbenannter Verlauf 42" x1="88.6" y1="430.18" x2="88.6" y2="414.18" xlink:href="#Unbenannter_Verlauf_42"/>
    <clipPath id="clippath-5">
      <path class="cls-42" d="M89.37,429.8c-.06.12,0,.26.11.32.12.06.26,0,.32-.11.06-.12,0-.26-.11-.32-.12-.06-.26,0-.32.11Z"/>
    </clipPath>
    <linearGradient id="Unbenannter_Verlauf_42-7" data-name="Unbenannter Verlauf 42" x1="89.87" y1="428.98" x2="89.87" y2="414.18" xlink:href="#Unbenannter_Verlauf_42"/>
    <clipPath id="clippath-6">
      <path class="cls-42" d="M92.14,428.6c-.06.12-.01.26.1.32s.26.01.32-.1c.06-.12.01-.26-.1-.32s-.26-.01-.32.1Z"/>
    </clipPath>
    <linearGradient id="Unbenannter_Verlauf_42-8" data-name="Unbenannter Verlauf 42" x1="90.56" y1="429.82" x2="90.56" y2="414.17" xlink:href="#Unbenannter_Verlauf_42"/>
    <clipPath id="clippath-7">
      <path class="cls-42" d="M92.79,429.44c-.07.11-.04.26.07.33s.26.04.33-.07c.07-.11.04-.26-.07-.33s-.26-.04-.33.07Z"/>
    </clipPath>
    <linearGradient id="Unbenannter_Verlauf_42-9" data-name="Unbenannter Verlauf 42" x1="79.45" y1="430.01" x2="79.45" y2="414.18" xlink:href="#Unbenannter_Verlauf_42"/>
    <clipPath id="clippath-8">
      <path class="cls-42" d="M76.31,430.03c.11.07.26.04.33-.07.07-.11.04-.26-.07-.33-.11-.07-.26-.04-.33.07-.07.11-.04.26.07.33Z"/>
    </clipPath>
    <linearGradient id="Unbenannter_Verlauf_42-10" data-name="Unbenannter Verlauf 42" x1="81.21" y1="429.45" x2="81.21" y2="414.18" xlink:href="#Unbenannter_Verlauf_42"/>
    <clipPath id="clippath-9">
      <path class="cls-42" d="M78.52,429.01c.09.12.07.3-.05.39-.12.09-.3.07-.39-.05-.09-.12-.07-.3.05-.39s.3-.07.39.05Z"/>
    </clipPath>
    <linearGradient id="Unbenannter_Verlauf_42-11" data-name="Unbenannter Verlauf 42" x1="83.36" y1="432.55" x2="83.36" y2="414.18" xlink:href="#Unbenannter_Verlauf_42"/>
    <clipPath id="clippath-10">
      <path class="cls-42" d="M83.15,432.12c.08.13.05.3-.08.38-.13.08-.3.05-.38-.08-.08-.13-.05-.3.08-.38.13-.08.3-.05.38.08Z"/>
    </clipPath>
    <linearGradient id="Unbenannter_Verlauf_42-12" data-name="Unbenannter Verlauf 42" x1="84.47" y1="429.21" x2="84.47" y2="414.18" xlink:href="#Unbenannter_Verlauf_42"/>
    <clipPath id="clippath-11">
      <path class="cls-42" d="M84,428.79c.06.14,0,.3-.14.37-.14.06-.3,0-.37-.14-.06-.14,0-.3.14-.37.14-.06.3,0,.37.14Z"/>
    </clipPath>
    <linearGradient id="Unbenannter_Verlauf_42-13" data-name="Unbenannter Verlauf 42" x1="80.39" y1="428.83" x2="80.39" y2="414.18" xlink:href="#Unbenannter_Verlauf_42"/>
    <clipPath id="clippath-12">
      <path class="cls-42" d="M76.56,428.81c.1.08.25.06.33-.04.08-.1.06-.25-.04-.33-.1-.08-.25-.06-.33.04-.08.1-.06.25.04.33Z"/>
    </clipPath>
    <linearGradient id="Unbenannter_Verlauf_42-14" data-name="Unbenannter Verlauf 42" x1="83.99" y1="430.18" x2="83.99" y2="414.18" xlink:href="#Unbenannter_Verlauf_42"/>
    <clipPath id="clippath-13">
      <path class="cls-42" d="M82.8,430.01c.06.12.2.17.32.11.12-.06.17-.2.11-.32-.06-.12-.2-.17-.32-.11-.12.06-.17.2-.11.32Z"/>
    </clipPath>
    <linearGradient id="Unbenannter_Verlauf_42-15" data-name="Unbenannter Verlauf 42" x1="82.73" y1="428.98" x2="82.73" y2="414.18" xlink:href="#Unbenannter_Verlauf_42"/>
    <clipPath id="clippath-14">
      <path class="cls-42" d="M80.03,428.82c.06.12.2.16.32.1s.16-.2.1-.32c-.06-.12-.2-.16-.32-.1-.12.06-.16.2-.1.32Z"/>
    </clipPath>
    <linearGradient id="Unbenannter_Verlauf_42-16" data-name="Unbenannter Verlauf 42" x1="82.03" y1="429.82" x2="82.03" y2="414.17" xlink:href="#Unbenannter_Verlauf_42"/>
    <clipPath id="clippath-15">
      <path class="cls-42" d="M79.41,429.7c.07.11.22.14.33.07s.14-.22.07-.33c-.07-.11-.22-.14-.33-.07s-.14.22-.07.33Z"/>
    </clipPath>
    <linearGradient id="Unbenannter_Verlauf_101-2" data-name="Unbenannter Verlauf 101" x1="86.3" y1="435.64" x2="86.3" y2="410.55" xlink:href="#Unbenannter_Verlauf_101"/>
    <linearGradient id="Unbenannter_Verlauf_42-17" data-name="Unbenannter Verlauf 42" y1="444.74" y2="460.57" xlink:href="#Unbenannter_Verlauf_42"/>
    <clipPath id="clippath-16">
      <path class="cls-42" d="M96.29,444.72c-.11-.07-.26-.04-.33.07s-.04.26.07.33c.11.07.26.04.33-.07.07-.11.04-.26-.07-.33Z"/>
    </clipPath>
    <linearGradient id="Unbenannter_Verlauf_42-18" data-name="Unbenannter Verlauf 42" x1="91.39" y1="445.29" x2="91.39" y2="460.57" xlink:href="#Unbenannter_Verlauf_42"/>
    <clipPath id="clippath-17">
      <path class="cls-42" d="M94.08,445.73c-.09-.12-.07-.3.05-.39.12-.09.3-.07.39.05.09.12.07.3-.05.39-.12.09-.3.07-.39-.05Z"/>
    </clipPath>
    <linearGradient id="Unbenannter_Verlauf_42-19" data-name="Unbenannter Verlauf 42" x1="89.23" y1="442.19" x2="89.23" y2="460.57" xlink:href="#Unbenannter_Verlauf_42"/>
    <clipPath id="clippath-18">
      <path class="cls-42" d="M89.45,442.63c-.08-.13-.05-.3.08-.38s.3-.05.38.08c.08.13.05.3-.08.38-.13.08-.3.05-.38-.08Z"/>
    </clipPath>
    <linearGradient id="Unbenannter_Verlauf_42-20" data-name="Unbenannter Verlauf 42" x1="88.13" y1="445.53" x2="88.13" y2="460.57" xlink:href="#Unbenannter_Verlauf_42"/>
    <clipPath id="clippath-19">
      <path class="cls-42" d="M88.6,445.95c-.06-.14,0-.3.14-.37s.3,0,.37.14c.06.14,0,.3-.14.37-.14.06-.3,0-.37-.14Z"/>
    </clipPath>
    <linearGradient id="Unbenannter_Verlauf_42-21" data-name="Unbenannter Verlauf 42" x1="92.2" y1="445.92" x2="92.2" y2="460.56" xlink:href="#Unbenannter_Verlauf_42"/>
    <clipPath id="clippath-20">
      <path class="cls-42" d="M96.03,445.93c-.1-.08-.25-.06-.33.04-.08.1-.06.25.04.33.1.08.25.06.33-.04.08-.1.06-.25-.04-.33Z"/>
    </clipPath>
    <linearGradient id="Unbenannter_Verlauf_42-22" data-name="Unbenannter Verlauf 42" x1="88.6" y1="444.57" x2="88.6" y2="460.56" xlink:href="#Unbenannter_Verlauf_42"/>
    <clipPath id="clippath-21">
      <path class="cls-42" d="M89.8,444.73c-.06-.12-.2-.17-.32-.11s-.17.2-.11.32c.06.12.2.17.32.11.12-.06.17-.2.11-.32Z"/>
    </clipPath>
    <linearGradient id="Unbenannter_Verlauf_42-23" data-name="Unbenannter Verlauf 42" x1="89.87" y1="445.77" x2="89.87" y2="460.56" xlink:href="#Unbenannter_Verlauf_42"/>
    <clipPath id="clippath-22">
      <path class="cls-42" d="M92.57,445.92c-.06-.12-.2-.16-.32-.1-.12.06-.16.2-.1.32.06.12.2.16.32.1.12-.06.16-.2.1-.32Z"/>
    </clipPath>
    <linearGradient id="Unbenannter_Verlauf_42-24" data-name="Unbenannter Verlauf 42" x1="90.56" y1="444.92" x2="90.56" y2="460.58" xlink:href="#Unbenannter_Verlauf_42"/>
    <clipPath id="clippath-23">
      <path class="cls-42" d="M93.19,445.05c-.07-.11-.22-.14-.33-.07s-.14.22-.07.33c.07.11.22.14.33.07s.14-.22.07-.33Z"/>
    </clipPath>
    <linearGradient id="Unbenannter_Verlauf_42-25" data-name="Unbenannter Verlauf 42" x1="79.45" y1="444.74" x2="79.45" y2="460.57" xlink:href="#Unbenannter_Verlauf_42"/>
    <clipPath id="clippath-24">
      <path class="cls-42" d="M76.56,445.12c.11-.07.14-.22.07-.33-.07-.11-.22-.14-.33-.07-.11.07-.14.22-.07.33.07.11.22.14.33.07Z"/>
    </clipPath>
    <linearGradient id="Unbenannter_Verlauf_42-26" data-name="Unbenannter Verlauf 42" x1="81.21" y1="445.29" x2="81.21" y2="460.57" xlink:href="#Unbenannter_Verlauf_42"/>
    <clipPath id="clippath-25">
      <path class="cls-42" d="M78.07,445.4c.09-.12.27-.15.39-.05.12.09.15.27.05.39-.09.12-.27.15-.39.05-.12-.09-.15-.27-.05-.39Z"/>
    </clipPath>
    <linearGradient id="Unbenannter_Verlauf_42-27" data-name="Unbenannter Verlauf 42" x1="83.36" y1="442.19" x2="83.36" y2="460.57" xlink:href="#Unbenannter_Verlauf_42"/>
    <clipPath id="clippath-26">
      <path class="cls-42" d="M82.69,442.32c.08-.13.26-.16.38-.08s.16.26.08.38c-.08.13-.26.16-.38.08-.13-.08-.16-.26-.08-.38Z"/>
    </clipPath>
    <linearGradient id="Unbenannter_Verlauf_42-28" data-name="Unbenannter Verlauf 42" x1="84.47" y1="445.53" x2="84.47" y2="460.57" xlink:href="#Unbenannter_Verlauf_42"/>
    <clipPath id="clippath-27">
      <path class="cls-42" d="M83.49,445.72c.06-.14.23-.2.37-.14.14.06.2.23.14.37-.06.14-.23.2-.37.14s-.2-.23-.14-.37Z"/>
    </clipPath>
    <linearGradient id="Unbenannter_Verlauf_42-29" data-name="Unbenannter Verlauf 42" x1="80.39" y1="445.92" x2="80.39" y2="460.56" xlink:href="#Unbenannter_Verlauf_42"/>
    <clipPath id="clippath-28">
      <path class="cls-42" d="M76.86,446.3c.1-.08.12-.23.04-.33-.08-.1-.23-.12-.33-.04-.1.08-.12.23-.04.33.08.1.23.12.33.04Z"/>
    </clipPath>
    <linearGradient id="Unbenannter_Verlauf_42-30" data-name="Unbenannter Verlauf 42" x1="83.99" y1="444.57" x2="83.99" y2="460.56" xlink:href="#Unbenannter_Verlauf_42"/>
    <clipPath id="clippath-29">
      <path class="cls-42" d="M83.23,444.94c.06-.12,0-.26-.11-.32-.12-.06-.26,0-.32.11-.06.12,0,.26.11.32.12.06.26,0,.32-.11Z"/>
    </clipPath>
    <linearGradient id="Unbenannter_Verlauf_42-31" data-name="Unbenannter Verlauf 42" x1="82.73" y1="445.77" x2="82.73" y2="460.56" xlink:href="#Unbenannter_Verlauf_42"/>
    <clipPath id="clippath-30">
      <path class="cls-42" d="M80.45,446.14c.06-.12.01-.26-.1-.32-.12-.06-.26-.01-.32.1-.06.12-.01.26.1.32.12.06.26.01.32-.1Z"/>
    </clipPath>
    <linearGradient id="Unbenannter_Verlauf_42-32" data-name="Unbenannter Verlauf 42" x1="82.03" y1="444.92" x2="82.03" y2="460.58" xlink:href="#Unbenannter_Verlauf_42"/>
    <clipPath id="clippath-31">
      <path class="cls-42" d="M79.81,445.3c.07-.11.04-.26-.07-.33s-.26-.04-.33.07c-.07.11-.04.26.07.33s.26.04.33-.07Z"/>
    </clipPath>
    <linearGradient id="Unbenannter_Verlauf_101-3" data-name="Unbenannter Verlauf 101" x1="86.3" y1="439.11" x2="86.3" y2="464.19" xlink:href="#Unbenannter_Verlauf_101"/>
  </defs>
  <g>
    <path class="cls-6" d="M187.76,407.85h19.7c1.81,0,3.29,1.47,3.29,3.29v52.09c0,1.81-1.47,3.29-3.29,3.29h-16.41c-1.81,0-3.29-1.47-3.29-3.29v-55.38h0Z"/>
    <path class="cls-2" d="M199.23,437.92s-.06-.02-.06-.04v-18.02s.02-.04.05-.04.06.02.06.04v18.02s-.02.04-.05.04Z"/>
    <g>
      <path class="cls-3" d="M195.89,415.71h.89c.26,0,.45.17.45.4,0,.17-.1.31-.24.38.18.06.3.22.3.42,0,.26-.21.46-.48.46h-.91v-1.65ZM196.72,416.39c.13,0,.21-.08.21-.21s-.09-.21-.22-.21h-.54v.42h.55ZM196.75,417.11c.15,0,.24-.09.24-.24s-.11-.24-.26-.24h-.55v.48h.58Z"/>
      <path class="cls-3" d="M197.46,416.77c0-.36.28-.61.63-.61s.63.25.63.61-.28.61-.63.61-.63-.26-.63-.61ZM198.09,417.14c.2,0,.34-.14.34-.37s-.15-.37-.34-.37-.35.14-.35.37.15.37.35.37Z"/>
      <path class="cls-3" d="M198.96,417.36v-1.18h.28v.22c.07-.16.2-.24.4-.24.25,0,.44.17.44.5v.71h-.28v-.66c0-.2-.11-.29-.26-.29-.17,0-.29.11-.29.29v.66h-.28Z"/>
      <path class="cls-3" d="M200.35,416.9v-.72h.28v.67c0,.19.11.28.25.28.16,0,.27-.1.27-.28v-.67h.29v1.18h-.29v-.22c-.07.16-.2.24-.38.24-.25,0-.43-.17-.43-.49Z"/>
      <path class="cls-3" d="M201.68,416.98l.26-.04c.02.15.11.23.24.23.11,0,.18-.05.18-.13,0-.09-.06-.12-.24-.17-.27-.06-.4-.17-.4-.37,0-.21.18-.35.45-.35.3,0,.48.16.5.38l-.26.04c-.02-.13-.11-.2-.25-.2-.11,0-.18.05-.18.11s.06.11.24.15c.28.06.4.18.4.38,0,.23-.18.36-.45.36-.32,0-.47-.18-.5-.41Z"/>
    </g>
    <path class="cls-5" d="M188.9,465.74v-8.08c0-5.71,4.63-10.35,10.35-10.35h0c5.71,0,10.35,4.63,10.35,10.35v8.08"/>
    <path class="cls-3" d="M199.25,437.92s-.07-.02-.07-.05v-17.47s.02-.05.05-.05h.01s.05.02.05.05v17.47s-.02.05-.05.05Z"/>
    <g>
      <path class="cls-3" d="M198.98,439.82h-.26s-.05-.02-.05-.05v-.21s.02-.05.05-.05h.26c.06,0,.1-.05.1-.1v-.3s.02-.05.05-.05h.22s.05.02.05.05v.3c0,.06.05.1.1.1h.26s.05.02.05.05v.21s-.02.05-.05.05h-.26c-.06,0-.1.05-.1.1v.29s-.02.05-.05.05h-.22s-.05-.02-.05-.05v-.29c0-.06-.05-.1-.1-.1Z"/>
      <path class="cls-3" d="M199.36,440.3h-.22s-.09-.04-.09-.09v-.29s-.03-.07-.07-.07h-.26s-.09-.04-.09-.09v-.21s.04-.09.09-.09h.26s.07-.03.07-.07v-.3s.04-.09.09-.09h.22s.09.04.09.09v.3s.03.07.07.07h.26s.09.04.09.09v.21s-.04.09-.09.09h-.26s-.07.03-.07.07v.29s-.04.09-.09.09ZM198.72,439.54s-.01,0-.01.01v.21s0,.01.01.01h.26c.08,0,.14.06.14.14v.29s0,.01.01.01h.22s.01,0,.01-.01v-.29c0-.08.06-.14.14-.14h.26s.01,0,.01-.01v-.21s0-.01-.01-.01h-.26c-.08,0-.14-.06-.14-.14v-.3s0-.01-.01-.01h-.22s-.01,0-.01.01v.3c0,.08-.06.14-.14.14h-.26Z"/>
    </g>
    <circle class="cls-5" cx="199.25" cy="439.66" r="4.96"/>
  </g>
  <g>
    <path class="cls-6" d="M18.65,408.43h19.7c1.81,0,3.29,1.47,3.29,3.29v52.09c0,1.81-1.47,3.29-3.29,3.29h-16.41c-1.81,0-3.29-1.47-3.29-3.29v-55.38h0Z"/>
    <path class="cls-32" d="M30.12,438.5s-.06-.02-.06-.04v-18.02s.02-.04.05-.04.06.02.06.04v18.02s-.02.04-.05.04Z"/>
    <path class="cls-5" d="M19.79,466.32v-8.08c0-5.71,4.63-10.35,10.35-10.35h0c5.71,0,10.35,4.63,10.35,10.35v8.08"/>
    <path class="cls-3" d="M30.14,438.5s-.07-.02-.07-.05v-17.47s.02-.05.05-.05h.01s.05.02.05.05v17.47s-.02.05-.05.05Z"/>
    <circle class="cls-5" cx="30.14" cy="440.24" r="4.96"/>
    <g>
      <path class="cls-3" d="M26.12,416.37h.81c.27,0,.5.18.5.47s-.23.47-.5.47h-.54v.62h-.27v-1.56ZM26.9,417.08c.15,0,.24-.08.24-.23s-.09-.23-.24-.23h-.51v.47h.51Z"/>
      <path class="cls-3" d="M28.09,416.8c.32,0,.54.22.54.53,0,.03,0,.08-.01.12h-.83c.03.18.16.29.33.29.17,0,.27-.08.31-.22l.25.07c-.07.22-.27.37-.56.37-.36,0-.6-.24-.6-.58s.25-.58.58-.58ZM28.35,417.25c-.02-.15-.11-.24-.27-.24-.15,0-.26.07-.29.24h.56Z"/>
      <path class="cls-3" d="M28.89,416.82h.27v.21c.05-.14.17-.23.32-.23.03,0,.05,0,.07,0v.26s-.08-.02-.11-.02c-.17,0-.28.11-.28.27v.62h-.27v-1.12Z"/>
      <path class="cls-3" d="M29.63,417.57l.25-.04c.02.15.1.22.23.22.11,0,.17-.04.17-.12,0-.08-.05-.12-.23-.16-.26-.06-.38-.16-.38-.35,0-.2.17-.33.43-.33.29,0,.45.16.48.36l-.25.04c-.02-.13-.1-.19-.24-.19-.11,0-.17.04-.17.11s.06.11.23.15c.27.06.38.17.38.36,0,.22-.17.34-.42.34-.3,0-.45-.17-.47-.39Z"/>
      <path class="cls-3" d="M30.72,417.38c0-.34.26-.58.6-.58s.6.24.6.58-.26.58-.6.58-.6-.24-.6-.58ZM31.32,417.72c.19,0,.33-.14.33-.35s-.14-.35-.33-.35-.33.14-.33.35.14.35.33.35Z"/>
      <path class="cls-3" d="M32.14,417.94v-1.12h.27v.21c.07-.15.19-.23.38-.23.24,0,.41.16.41.47v.67h-.27v-.62c0-.19-.11-.28-.25-.28-.16,0-.27.1-.27.28v.62h-.27Z"/>
      <path class="cls-3" d="M33.42,417.62c0-.13.07-.24.19-.28-.1-.03-.17-.11-.17-.22,0-.19.2-.32.49-.32.33,0,.53.18.53.48v.66h-.27v-.21c-.07.15-.2.23-.38.23-.24,0-.39-.13-.39-.33ZM33.89,417.74c.17,0,.29-.1.3-.25v-.06h-.31c-.13,0-.2.06-.2.16s.07.15.2.15ZM33.88,417.25h.3c-.01-.16-.11-.24-.27-.24-.14,0-.21.05-.21.13,0,.08.05.11.18.11Z"/>
    </g>
    <circle class="cls-3" cx="30.14" cy="440.34" r=".56"/>
  </g>
  <g>
    <path class="cls-6" d="M123.83,407.91h33.87c2.34,0,4.23,1.9,4.23,4.23v50.2c0,2.34-1.9,4.23-4.23,4.23h-29.64c-2.34,0-4.23-1.9-4.23-4.23v-54.44h0Z"/>
    <g>
      <path class="cls-3" d="M145.49,438.16l-.16-.39h-.74l-.16.39h-.29l.67-1.61h.3l.67,1.61h-.3ZM144.73,436.04c.09,0,.16.07.16.17s-.07.16-.16.16c-.1,0-.17-.07-.17-.16s.07-.17.17-.17ZM145.23,437.53l-.27-.65-.27.65h.53ZM145.2,436.04c.1,0,.16.07.16.17s-.07.16-.16.16-.16-.07-.16-.16.07-.17.16-.17Z"/>
      <path class="cls-3" d="M145.96,437.02h.27v.22c.05-.15.17-.24.33-.24.03,0,.05,0,.07,0v.27s-.08-.02-.12-.02c-.18,0-.29.11-.29.27v.64h-.27v-1.15Z"/>
      <path class="cls-3" d="M146.71,438.32c0-.13.09-.23.24-.27-.14-.1-.23-.27-.23-.48,0-.33.23-.58.55-.58.19,0,.33.08.4.23v-.21h.28v1.01c0,.4-.27.64-.71.64-.32,0-.52-.13-.52-.34ZM147.24,438.42c.27,0,.42-.14.42-.38v-.11c-.07.14-.22.23-.39.23h-.11c-.12,0-.19.04-.19.12,0,.09.09.14.26.14ZM147.33,437.92c.2,0,.34-.14.34-.34s-.14-.34-.34-.34-.33.14-.33.34.14.34.33.34Z"/>
      <path class="cls-3" d="M148.77,436.99c.33,0,.55.22.55.55,0,.03,0,.08-.01.12h-.86c.03.19.16.3.34.3.17,0,.28-.08.32-.22l.25.07c-.07.22-.28.38-.58.38-.37,0-.62-.25-.62-.6s.25-.59.6-.59ZM149.04,437.46c-.02-.15-.11-.24-.28-.24-.15,0-.27.07-.3.24h.58Z"/>
      <path class="cls-3" d="M149.59,437.02h.27v.22c.05-.15.17-.24.33-.24.03,0,.05,0,.07,0v.27s-.08-.02-.12-.02c-.18,0-.29.11-.29.27v.64h-.27v-1.15Z"/>
      <path class="cls-3" d="M150.46,438.16v-1.15h.27v.21c.07-.15.2-.23.39-.23.25,0,.42.17.42.48v.69h-.28v-.64c0-.19-.11-.28-.26-.28-.16,0-.28.1-.28.29v.64h-.27Z"/>
      <path class="cls-3" d="M151.97,436.5c.1,0,.17.07.17.17s-.07.17-.17.17-.17-.07-.17-.17.07-.17.17-.17ZM151.83,437.02h.27v1.15h-.27v-1.15Z"/>
      <path class="cls-3" d="M152.33,437.79l.25-.04c.02.15.1.23.24.23.11,0,.18-.05.18-.13,0-.08-.05-.12-.23-.16-.26-.06-.39-.16-.39-.36,0-.21.17-.34.44-.34.29,0,.46.16.49.37l-.25.04c-.02-.13-.11-.2-.24-.2-.11,0-.17.04-.17.11s.06.11.23.15c.28.06.39.18.39.37,0,.22-.18.35-.44.35-.31,0-.46-.18-.49-.4Z"/>
    </g>
    <g>
      <path class="cls-3" d="M129.37,436.53h.29v.67h.9v-.67h.29v1.68h-.29v-.73h-.9v.73h-.29v-1.68Z"/>
      <path class="cls-3" d="M131.12,437.87c0-.14.08-.25.2-.3-.11-.03-.18-.12-.18-.24,0-.21.21-.35.52-.35.35,0,.57.19.57.51v.71h-.29v-.22c-.07.16-.21.24-.41.24-.26,0-.42-.14-.42-.36ZM131.63,438c.18,0,.31-.11.32-.27v-.06h-.33c-.14,0-.21.06-.21.17s.08.16.22.16ZM131.62,437.47h.32c-.01-.17-.12-.26-.29-.26-.15,0-.22.05-.22.14,0,.08.06.12.2.12Z"/>
      <path class="cls-3" d="M132.54,437h.28v.23c.05-.15.18-.25.34-.25.03,0,.06,0,.08,0v.28s-.08-.02-.12-.02c-.18,0-.3.12-.3.28v.67h-.28v-1.2Z"/>
      <path class="cls-3" d="M133.45,438.2v-1.2h.28v.22c.07-.16.2-.24.38-.24s.32.08.39.24c.09-.16.23-.24.42-.24.24,0,.43.16.43.49v.73h-.29v-.68c0-.2-.11-.28-.25-.28-.15,0-.27.1-.27.29v.68h-.29v-.68c0-.2-.11-.28-.25-.28-.15,0-.27.1-.27.29v.68h-.28Z"/>
      <path class="cls-3" d="M135.57,437.6c0-.36.28-.62.64-.62s.64.26.64.62-.28.62-.64.62-.64-.26-.64-.62ZM136.21,437.98c.2,0,.35-.15.35-.37s-.15-.37-.35-.37-.35.15-.35.37.15.37.35.37Z"/>
      <path class="cls-3" d="M137.09,438.2v-1.2h.28v.22c.08-.16.2-.24.4-.24.26,0,.44.17.44.5v.72h-.29v-.67c0-.2-.11-.3-.27-.3-.17,0-.29.11-.29.3v.67h-.28Z"/>
      <path class="cls-3" d="M138.67,436.46c.11,0,.18.08.18.18s-.08.18-.18.18-.18-.08-.18-.18.08-.18.18-.18ZM138.53,437h.28v1.2h-.28v-1.2Z"/>
      <path class="cls-3" d="M139.68,436.98c.35,0,.58.23.58.57,0,.03,0,.09-.01.13h-.89c.03.2.17.31.36.31.18,0,.29-.08.33-.23l.27.08c-.07.23-.29.4-.6.4-.38,0-.65-.26-.65-.63s.27-.62.62-.62ZM139.96,437.47c-.02-.16-.12-.25-.29-.25-.16,0-.28.08-.31.25h.6Z"/>
    </g>
    <path class="cls-2" d="M142.24,435.81s-.06-.02-.06-.05v-24.59s.02-.05.05-.05h.01s.05.02.05.05v24.59s-.02.05-.05.05Z"/>
    <path class="cls-2" d="M142.18,460.31s0,0,0,0c-7.38-.05-13.36-4.18-13.36-9.25,0-3.16,2.01-5.56,6.74-8.04h0s0,0,.01,0c.22-.11.43-.23.66-.34,0,0,.02-.01.03-.01.09-.04.17-.09.26-.13.06-.03.15-.07.24-.11.25-.12.54-.29.83-.48h.02s.16-.12.23-.16c0,0,0,0,.01,0,.02-.02.05-.03.07-.05l.06-.04c.08-.06.17-.12.26-.18,0,0,.01,0,.01,0,.1-.07.2-.15.31-.24,0,0,.01,0,.02-.01,0,0,.02-.01.02-.02.4-.32.76-.64,1.05-.95.02-.02.05-.02.07,0,.02.02.02.05,0,.07-.3.32-.66.64-1.06.96,0,0-.02.02-.03.02h-.01c-.11.1-.22.18-.32.26-.09.07-.18.13-.27.19l-.06.04s-.05.04-.08.05c0,0,0,0,0,0,0,0,0,0,0,0h0c-.06.04-.19.12-.23.15h-.02c-.29.2-.59.37-.84.5-.09.05-.18.09-.24.11-.09.04-.18.09-.27.13,0,0,0,0,0,0h0c-.24.12-.46.23-.67.35,0,0,0,0,0,0-4.68,2.46-6.68,4.84-6.68,7.95,0,5.03,5.98,9.13,13.35,9.15,7.35-.03,13.32-4.12,13.32-9.15,0-3.11-2-5.49-6.68-7.95,0,0,0,0,0,0-.22-.11-.44-.23-.66-.34,0,0,0,0-.01,0,0,0,0,0,0,0,0,0,0,0,0,0h-.01c-.08-.05-.17-.09-.25-.13-.06-.03-.14-.07-.24-.11-.25-.13-.55-.3-.84-.49l-.03-.02c-.05-.03-.16-.1-.22-.14h0s0,0,0,0c0,0,0,0,0,0-.03-.02-.05-.04-.08-.05l-.06-.04c-.09-.06-.17-.12-.26-.18-.11-.08-.22-.17-.33-.25h-.02s-.02-.03-.03-.04c-.4-.31-.75-.64-1.05-.96-.02-.02-.02-.05,0-.07.02-.02.05-.02.07,0,.3.32.65.64,1.05.95.01.01.02.02.03.02,0,0,.01.01.02.02.11.08.21.16.32.24,0,0,.01,0,.01,0,.08.06.17.12.25.18l.06.04s.05.03.07.05c0,0,0,0,.01,0,.06.04.17.11.22.14l.03.02c.29.18.58.36.83.48.09.05.17.08.24.11.09.04.17.09.26.13h0s0,0,.01.01h0c.23.12.45.23.67.34,0,0,0,0,0,0,0,0,0,0,0,0,4.72,2.48,6.74,4.89,6.74,8.04,0,5.07-5.98,9.2-13.36,9.25,0,0,0,0,0,0h-.11s-.02,0-.03,0h0ZM148.23,442.76h0,0ZM148.2,442.75s0,0,0,0c0,0,0,0,0,0Z"/>
    <circle class="cls-2" cx="142.23" cy="437.47" r=".53"/>
    <g>
      <path class="cls-2" d="M139.6,434.77s-.03,0-.04-.01c-.01-.01-.02-.02-.04-.04-.29-.3-.63-.61-1.01-.91-.01-.01-.02-.02-.03-.02,0,0-.01-.01-.02-.02-.11-.08-.21-.16-.32-.24l.02-.05-.03.04c-.08-.06-.17-.12-.25-.18l-.06-.04s-.05-.03-.07-.05c0,0,0,0-.01,0-.06-.04-.18-.12-.23-.15h-.02c-.29-.2-.58-.37-.83-.49-.09-.05-.17-.08-.24-.11-.09-.04-.18-.09-.27-.14,0,0,0,0-.01,0h0s0,0,0,0c0,0,0,0-.01,0h0c-.22-.11-.44-.22-.66-.34,0,0,0,0,0,0,0,0,0,0,0,0-4.72-2.48-6.74-4.89-6.74-8.04,0-5.1,6.06-9.25,13.5-9.25s13.5,4.15,13.5,9.25c0,3.16-2.01,5.56-6.74,8.04h0s0,0-.01,0c-.22.11-.43.23-.66.34,0,0,0,0,0,0,0,0-.01,0-.02.01-.09.04-.17.09-.26.13-.06.03-.15.07-.24.11-.25.12-.54.29-.83.48h-.02s-.16.12-.23.16c0,0,0,0-.01,0-.02.02-.05.03-.07.05l-.06.04c-.08.06-.17.12-.25.18,0,0-.01,0-.02.01-.1.07-.2.15-.31.24,0,0-.01,0-.02.01,0,0-.02.01-.02.02-.39.31-.73.61-1.01.91-.02.02-.03.03-.04.04-.02.02-.05.02-.07,0-.02-.02-.02-.05,0-.07.01-.01.03-.03.04-.04.21-.23.85-1.11.85-2.05,0-1.85-1.57-3.35-3.5-3.35h0c-1.93,0-3.5,1.5-3.5,3.35,0,.94.66,1.83.86,2.06.01.01.02.03.04.04.02.02.02.05,0,.07-.01,0-.02.01-.04.01ZM142.24,429.13c1.98,0,3.6,1.55,3.6,3.45,0,.62-.27,1.22-.53,1.63.18-.17.38-.33.59-.5,0,0,.02-.02.03-.02h.01c.11-.1.22-.18.32-.26h.02c.08-.07.17-.13.25-.19l.06-.04s.05-.04.08-.05c0,0,0,0,0,0,0,0,0,0,0,0h0c.06-.04.19-.12.23-.15h.02c.29-.2.59-.37.84-.5.09-.05.18-.09.24-.12.09-.04.18-.09.27-.13,0,0,0,0,0,0,0,0,0,0,0,0,.24-.12.45-.23.67-.35,0,0,0,0,.01,0,4.68-2.46,6.68-4.84,6.68-7.95,0-5.04-6.01-9.15-13.4-9.15s-13.4,4.1-13.4,9.15c0,3.11,2,5.49,6.68,7.95,0,0,0,0,0,0,.22.11.44.23.66.34h0s.02,0,.02.01c.09.05.18.09.27.13.06.03.14.07.24.11.25.13.55.3.84.49h.02s.17.12.23.16h0s0,0,0,0c0,0,0,0,0,0,.02.02.05.03.08.05l.06.04c.08.06.17.12.25.18,0,0,.01,0,.01.01.11.08.22.16.32.25h.02s.02.03.03.04c.21.16.4.33.58.49-.25-.41-.53-1.01-.53-1.63,0-1.9,1.61-3.45,3.6-3.45h0ZM136.17,432.29l-.02.02.02-.02ZM136.19,432.25l-.02.04.03-.04s0,0-.01,0ZM136.2,432.25s0,0,0,0c0,0,0,0,0,0ZM136.19,432.25h0,0Z"/>
      <path class="cls-2" d="M139.13,434.3s-.02,0-.03-.01l-.67-.56c-.49-.42-1.62-1.55-1.62-2.87,0-2.59,2.39-4.61,5.43-4.61s5.43,2.03,5.43,4.61c0,.96-.6,1.82-1.11,2.38l.11-.08c1.31-.83,1.94-1.97,1.94-3.49,0-2.63-2.86-4.78-6.37-4.78s-6.37,2.14-6.37,4.78c0,1.52.63,2.66,1.94,3.48.02.02.03.05.02.07-.01.02-.05.03-.07.02l-.91-.55c-1.58-.99-2.16-1.95-2.16-3.56,0-3.18,3.39-5.77,7.56-5.77s7.56,2.59,7.56,5.77c0,1.36-.42,2.26-1.52,3.11l.06-.03c1.92-1.16,2.26-2.3,2.26-4.25,0-3.33-3.75-6.05-8.36-6.05s-8.36,2.71-8.36,6.05c0,1.95.34,3.09,2.27,4.26.02.01.03.04.02.07-.01.02-.04.03-.07.02l-.61-.31c-.2-.11-.38-.22-.56-.34-.02.02-.04.02-.06,0-.17-.1-.34-.2-.49-.3-.01,0-.03,0-.05,0h0s-.09-.05-.13-.08l-.47-.26c-2.63-1.61-3.97-2.98-3.97-5.99,0-2.39,1.29-4.64,3.62-6.31,2.34-1.68,5.5-2.61,8.87-2.61s6.53.93,8.87,2.61c2.34,1.68,3.62,3.92,3.62,6.31,0,3.01-1.34,4.38-3.97,5.99l-.28.16c-.11.06-.21.12-.32.19l-.54.31s0,0,0,0h0s-.02,0-.03,0l-.59.32s-.06,0-.07-.02c0,0,0-.02,0-.02h0c-.16.12-.34.23-.54.35l-.76.39s-.06,0-.07-.02c-.01-.02,0-.05.02-.07,1.54-.97,2.11-1.91,2.11-3.47,0-3.12-3.35-5.67-7.46-5.67s-7.46,2.54-7.46,5.67c0,1.56.57,2.5,2.11,3.47l.09.06c-.82-.78-1.22-1.76-1.22-2.99,0-2.69,2.91-4.88,6.48-4.88s6.48,2.19,6.48,4.88c0,1.56-.65,2.73-1.98,3.57l-.69.5s-.05.01-.07,0c-.02-.02-.01-.05,0-.07.48-.41,1.59-1.52,1.59-2.8,0-2.53-2.34-4.51-5.33-4.51s-5.33,1.98-5.33,4.51c0,1.28,1.11,2.38,1.59,2.8l.12.1c-.7-.91-.81-1.71-.81-2.39,0-2.02,1.99-3.66,4.43-3.66s4.43,1.64,4.43,3.66c0,.81-.15,1.8-1.28,2.92-.02.02-.05.02-.07,0s-.02-.05,0-.07c1.1-1.1,1.25-2.02,1.25-2.85,0-1.96-1.94-3.56-4.32-3.56s-4.32,1.6-4.32,3.56c0,.83.15,1.75,1.25,2.85.02.02.02.05,0,.07-.01.01-.02.02-.04.02ZM142.24,420.58c-2.52,0-4.88.71-6.64,1.99-1.75,1.28-2.71,2.99-2.71,4.81,0,2.06.77,3.44,2.49,4.45-1.35-1.04-1.61-2.14-1.61-3.86,0-3.39,3.8-6.15,8.47-6.15s8.47,2.76,8.47,6.15c0,1.73-.26,2.83-1.61,3.86,1.72-1.01,2.49-2.38,2.49-4.45,0-1.82-.96-3.53-2.71-4.81-1.76-1.28-4.11-1.99-6.64-1.99ZM142.24,419.15c-5.73,0-10.38,3.21-10.38,7.15,0,2.33.73,3.77,2.56,4.97-1.12-.96-1.63-2.2-1.63-3.9,0-1.86.98-3.59,2.76-4.89,1.78-1.3,4.15-2.01,6.7-2.01s4.92.71,6.7,2.01c1.78,1.3,2.76,3.04,2.76,4.89,0,1.7-.51,2.94-1.63,3.9,1.83-1.2,2.56-2.64,2.56-4.97,0-3.94-4.66-7.15-10.38-7.15ZM142.24,419.05c5.78,0,10.49,3.25,10.49,7.25,0,2.05-.56,3.43-1.92,4.55,2.09-1.34,2.85-2.76,2.85-5.18,0-4.4-5.12-7.99-11.42-7.99s-11.42,3.58-11.42,7.99c0,2.41.76,3.84,2.85,5.18-1.36-1.13-1.92-2.5-1.92-4.55,0-4,4.7-7.25,10.49-7.25ZM142.24,417.59c6.35,0,11.52,3.63,11.52,8.09,0,1.93-.48,3.24-1.71,4.37,1.74-1.28,2.58-2.59,2.58-5.01s-1.27-4.57-3.58-6.23c-2.33-1.67-5.46-2.59-8.81-2.59s-6.49.92-8.81,2.59c-2.31,1.66-3.58,3.87-3.58,6.23s.84,3.73,2.58,5.01c-1.23-1.13-1.71-2.44-1.71-4.37,0-4.46,5.17-8.09,11.52-8.09Z"/>
    </g>
    <path class="cls-2" d="M142.24,448.82c-3.05,0-5.43-2.03-5.43-4.61,0-1.32,1.14-2.45,1.62-2.87l1.2-1.08s.05-.02.07,0c.02.02.02.05,0,.07-.15.14-.89,1.08-.89,2.09,0,1.41,1.65,1.72,3.25,2.02.48.09.93.18,1.35.29.03,0,.04.04.04.06,0,.03-.04.04-.06.04-.41-.11-.86-.2-1.34-.29-1.64-.31-3.34-.63-3.34-2.12,0-.67.31-1.31.58-1.72l-.79.71c-.48.42-1.59,1.52-1.59,2.8,0,2.53,2.34,4.51,5.33,4.51s5.33-1.98,5.33-4.51c0-1.28-1.11-2.38-1.59-2.8l-1.14-1.02s-.02-.05,0-.07c.02-.02.05-.02.07,0l1.14,1.02c.49.42,1.62,1.55,1.62,2.87,0,2.59-2.39,4.61-5.43,4.61Z"/>
    <path class="cls-2" d="M142.65,463.95s-.05-.02-.05-.05v-4.14c0-.31-.03-.58-.09-.82-.11,0-.21,0-.32,0-2.62,0-5.6-.81-7.97-2.17-2.6-1.49-4.04-3.36-4.04-5.26,0-1,.51-1.78,1.51-2.34-.06-.38-.09-.73-.09-1.06,0-1.61.88-2.92,2.56-3.78,1.47-.76,3.48-1.16,5.81-1.16.3,0,.6,0,.91.02.79-.9,1.31-2,1.31-3.54v-.65s.02-.05.05-.05.05.02.05.05v.65c0,1.54-.51,2.64-1.28,3.55,1.1.06,2.2.2,3.25.42.59-.06,1.18-.09,1.76-.09,1.69,0,4.11.26,6.02,1.48,1.79,1.14,2.69,2.83,2.69,5.04,0,1.98-.9,3.62-2.6,4.75-1.15.76-2.6,1.25-4.2,1.43-.31.64-.77,1.17-1.39,1.6-.98.67-2.34,1.05-3.95,1.11.06.25.09.52.09.83v4.14s-.02.05-.05.05ZM131.7,449.27c-.95.53-1.43,1.28-1.43,2.23,0,3.95,6.55,7.33,11.91,7.33.1,0,.2,0,.29,0-.16-.58-.49-.99-.89-1.36-3.45-.22-6.69-1.6-7.37-4.06-1.61-1.35-2.28-2.84-2.51-4.13ZM141.75,457.48c.37.36.68.78.83,1.35,1.6-.05,2.95-.43,3.91-1.09.56-.39.99-.86,1.29-1.43-1.3.8-3.26,1.19-5.13,1.2-.31,0-.6,0-.9-.02ZM141.63,457.37c.34.02.68.03,1.02.03,1.84,0,3.76-.38,5.04-1.15-.44.04-.89.06-1.34.05-.79.14-1.65.21-2.54.21-1.27,0-2.55-.14-3.78-.41.26.23.53.43.8.63.28.21.55.41.8.64ZM134.36,453.52c.74,2.29,3.82,3.59,7.1,3.83-.22-.19-.45-.36-.69-.55-.31-.24-.64-.48-.95-.76-1.54-.36-2.98-.92-4.21-1.66-.47-.28-.88-.57-1.25-.87ZM139.87,455.95c1.27.3,2.61.45,3.93.45.69,0,1.36-.04,2-.13-1.91-.12-3.75-.69-4.98-1.68-.79-.16-1.56-.38-2.29-.64.32.9.81,1.51,1.33,2ZM141.06,454.64c1.32.99,3.3,1.52,5.28,1.56.6-.11,1.17-.25,1.68-.44.16-.45.24-.95.26-1.49-1.19.44-2.59.67-4.13.67-1.02,0-2.06-.1-3.09-.3ZM147.97,455.88c-.35.12-.71.22-1.1.31.34,0,.67-.03,1-.07.04-.08.07-.16.1-.24ZM148.61,455.63c-.15.17-.33.32-.52.46,1.52-.19,2.9-.67,3.99-1.4,1.67-1.11,2.55-2.72,2.55-4.66,0-2.16-.89-3.83-2.65-4.95-1.5-.96-3.56-1.46-5.97-1.46-.47,0-.95.02-1.43.06,1.22.28,2.36.67,3.34,1.15,0,0,0,0,.01,0,1.35,0,2.48.27,3.29.77.91.57,1.37,1.41,1.37,2.49,0,1.47-.36,2.72-1.06,3.75-.03,1.46-.83,2.66-2.32,3.49-.19.1-.39.2-.6.3ZM148.1,455.84c-.02.06-.04.12-.07.18.12-.09.23-.18.33-.28-.09.03-.18.07-.27.1ZM134.3,453.34c.45.38.92.7,1.36.96,1.17.7,2.54,1.24,4.01,1.6-.5-.49-.96-1.11-1.26-2-1.66-.61-3.13-1.47-4.17-2.5-.04.33-.05.69-.05,1.06,0,.31.04.6.12.88ZM148.38,454.22c0,.54-.09,1.03-.24,1.49.14-.05.28-.11.41-.16.4-.44.63-.97.63-1.58,0-.03,0-.07,0-.1-.25.13-.52.25-.8.36ZM149.28,453.81c0,.05,0,.1,0,.15,0,.57-.19,1.06-.52,1.48.14-.06.27-.13.39-.2,1.4-.78,2.18-1.89,2.26-3.24-.38.51-.84.96-1.4,1.35-.23.16-.48.32-.74.46ZM140.88,454.5c1.08.22,2.18.34,3.26.34,1.55,0,2.95-.23,4.14-.68,0-.01,0-.03,0-.04,0-.38-.02-.74-.07-1.07-1.29.69-2.92,1.07-4.64,1.07-1.28,0-2.5-.21-3.58-.6.23.37.53.7.89.99ZM138.5,453.83c.7.25,1.43.46,2.17.62-.34-.3-.62-.63-.84-1-.54-.21-1.03-.46-1.48-.76-.04-.03-.08-.06-.12-.08.06.46.15.86.27,1.22ZM148.3,452.98c.05.36.08.74.08,1.13h0c.27-.11.54-.23.79-.36-.04-.35-.18-.7-.41-1.05,0,0-.02.01-.03.02-.14.09-.28.18-.43.26ZM139.92,453.4c1.01.38,2.22.6,3.64.6,1.72,0,3.34-.38,4.63-1.08-.06-.41-.15-.79-.26-1.13-.74-.64-1.79-1.24-3.11-1.77-1.33-.53-2.82-.95-4.34-1.24-.65.67-1.02,1.67-1.02,2.88,0,.64.17,1.22.47,1.73ZM134.25,451.28c1.02,1.03,2.47,1.89,4.12,2.5-.12-.37-.21-.79-.26-1.26-1.41-1.02-2.15-2.44-2.15-4.12,0,0,0-.02,0-.03-.24,0-.47.01-.7.03-.5.78-.87,1.71-1.01,2.87ZM148.85,452.65c.23.34.37.69.42,1.05.24-.13.48-.28.7-.43.59-.42,1.08-.9,1.47-1.45,0-.01,0-.03,0-.04,0-.68-.17-1.35-.49-2-.29,1.14-1,2.12-2.1,2.87ZM138.21,452.48c.45.33.97.63,1.56.87-.27-.5-.42-1.05-.42-1.67,0-1.34.41-2.28,1-2.91-.38-.07-.77-.13-1.15-.18-.69.85-1.06,1.78-1.06,2.73,0,.42.02.81.06,1.16ZM131.8,449.22c.3,1.74,1.28,3.05,2.37,4-.05-.24-.08-.5-.09-.76,0-.41.02-.79.06-1.15-.72-.74-1.22-1.58-1.41-2.47-.26.08-.5.18-.73.28-.07.03-.14.07-.21.11ZM148.07,451.92c.09.3.16.62.21.95.13-.07.26-.15.39-.24,0,0,.02-.01.03-.02-.17-.24-.38-.47-.63-.7ZM148.02,451.73c.31.27.57.55.77.83,1.12-.76,1.82-1.76,2.08-2.93-.67-1.24-1.91-2.38-3.67-3.33-.69-.37-1.44-.7-2.23-.98-1.24.31-2.46.79-3.52,1.41-.9.53-1.63,1.12-2.17,1.76.39.05.78.11,1.16.19.7-.67,1.63-.95,2.48-.95,2.09,0,4.24,1.46,5.08,4ZM136.07,448.38s0,.02,0,.03c0,1.42.65,2.9,2.03,3.98-.03-.33-.05-.69-.05-1.08,0-1.02.39-1.94,1.03-2.75-.96-.12-1.9-.19-2.81-.19-.07,0-.14,0-.2,0ZM150.98,449.6c.34.64.53,1.33.55,2.06.64-.99.96-2.18.96-3.56,0-1.05-.44-1.85-1.32-2.4-.75-.47-1.79-.73-3.04-.75,1.78.93,2.95,2.17,2.95,3.63,0,.35-.03.69-.1,1.02ZM140.58,448.7c2.93.55,5.69,1.61,7.29,2.91-.35-.98-.87-1.69-1.34-2.17-.99-1.02-2.3-1.61-3.6-1.61-.96,0-1.76.31-2.35.87ZM132.84,448.81c.18.86.64,1.66,1.33,2.38.15-1.11.49-2,.97-2.76-.86.06-1.64.19-2.3.39ZM145.16,445.28c2.5.91,4.71,2.34,5.75,4.18.05-.28.08-.57.08-.87,0-1.47-1.22-2.72-3.06-3.64-.89,0-1.83.12-2.76.33ZM139.97,443.27c-2.32,0-4.31.4-5.77,1.15-1.66.85-2.5,2.09-2.5,3.68,0,.35.03.69.08,1.01.06-.03.12-.06.19-.09.23-.11.48-.2.75-.29-.04-.23-.06-.46-.06-.69,0-1.3.62-2.3,1.83-2.99,1.08-.61,2.59-.93,4.39-.93.32,0,.66.01,1,.03.33-.28.64-.56.92-.87-.27-.01-.55-.02-.82-.02ZM138.87,444.23c-1.77,0-3.27.32-4.34.92-1.18.67-1.78,1.64-1.78,2.9,0,.22.02.44.06.66.68-.2,1.49-.34,2.38-.39.46-.71,1.03-1.29,1.65-1.82.34-.35.75-.67,1.24-.97.13-.09.25-.19.38-.28.44-.32.88-.64,1.29-.98-.3-.02-.59-.02-.88-.02ZM136.27,448.28c.94,0,1.91.07,2.89.19,1.27-1.53,3.46-2.64,5.66-3.2-1.23-.43-2.54-.73-3.83-.9-1.03.31-1.98.71-2.76,1.17-.46.34-.92.69-1.36,1.07-.47.51-.76,1.07-.79,1.67.07,0,.13,0,.2,0ZM136.42,447.02c-.4.39-.77.81-1.08,1.28.21-.01.42-.02.64-.02.03-.44.18-.86.45-1.26ZM141.22,444.3c1.26.18,2.55.49,3.78.92.93-.23,1.86-.36,2.72-.38-1.01-.48-2.19-.86-3.45-1.12-1.04.11-2.08.3-3.04.58ZM139.91,444.27c-.35.29-.72.57-1.1.85.59-.3,1.24-.56,1.94-.78-.28-.03-.56-.06-.83-.07ZM140.02,444.17c.32.02.63.06.96.1.94-.28,1.94-.49,2.96-.61-.98-.19-1.99-.31-3.01-.36-.28.31-.58.6-.91.88Z"/>
    <path class="cls-2" d="M142.54,458.93s-.05-.02-.05-.05.02-.05.05-.05c3.34,0,6.42-.91,8.66-2.57,2.21-1.63,3.43-3.84,3.43-6.21,0-2.98-1.26-4.28-3.92-5.9l-2.37-1.26c1.05.83,1.46,1.73,1.46,3.06,0,3.18-3.39,5.77-7.56,5.77s-7.56-2.59-7.56-5.77c0-1.6.59-2.57,2.16-3.56.02-.01.06,0,.07.02.02.02,0,.06-.02.07-1.54.97-2.11,1.91-2.11,3.47,0,3.12,3.35,5.67,7.46,5.67s7.46-2.54,7.46-5.67c0-1.56-.57-2.5-2.11-3.47-.02-.01-.03-.05-.02-.07.01-.02.04-.03.07-.02l3.13,1.67c2.64,1.61,3.97,2.98,3.97,5.99,0,2.41-1.23,4.64-3.47,6.3-2.26,1.67-5.36,2.59-8.72,2.59Z"/>
    <path class="cls-2" d="M142.24,446.31s-.04-.01-.05-.03c-.01-.03,0-.06.03-.07.59-.25,3.52-1.58,3.52-3.72,0-1-.76-1.96-.89-2.09-.02-.02-.02-.05,0-.07s.05-.02.07,0c.15.15.93,1.12.93,2.17,0,1.71-1.85,3.09-3.58,3.82,0,0-.01,0-.02,0Z"/>
  </g>
  <g>
    <path class="cls-6" d="M67.46,407.85h33.87c2.34,0,4.23,1.9,4.23,4.23v50.2c0,2.34-1.9,4.23-4.23,4.23h-29.64c-2.34,0-4.23-1.9-4.23-4.23v-54.44h0Z"/>
    <g>
      <g>
        <path class="cls-47" d="M96.15,429.89s-.03,0-.04-.02c-.02-.02,0-.06.01-.07.87-.58,3.72-2.78,3.73-6.86,0-1.51-.7-3.02-2.05-4.38-2.58-2.59-7.06-4.27-11.41-4.27-.03,0-.05-.02-.05-.05s.02-.05.05-.05h0c4.38,0,8.89,1.69,11.49,4.3,1.37,1.37,2.09,2.91,2.08,4.45-.01,4.13-2.89,6.36-3.78,6.94,0,0-.02,0-.03,0Z"/>
        <g>
          <g class="cls-84">
            <rect class="cls-31" x="95.89" y="430.01" width=".54" height=".09"/>
            <rect class="cls-31" x="95.89" y="429.93" width=".54" height=".07"/>
            <rect class="cls-31" x="95.89" y="429.86" width=".54" height=".07"/>
            <rect class="cls-45" x="95.89" y="429.78" width=".54" height=".07"/>
            <rect class="cls-45" x="95.89" y="429.71" width=".54" height=".07"/>
            <rect class="cls-45" x="95.89" y="429.63" width=".54" height=".07"/>
            <rect class="cls-44" x="95.89" y="429.56" width=".54" height=".07"/>
            <rect class="cls-41" x="95.89" y="429.55" width=".54" height="0"/>
          </g>
          <path class="cls-42" d="M96.03,429.62c-.11.07-.14.22-.07.33.07.11.22.14.33.07.11-.07.14-.22.07-.33-.07-.11-.22-.14-.33-.07Z"/>
        </g>
      </g>
      <g>
        <path class="cls-40" d="M94.3,429.25s-.02,0-.03-.01c-.02-.02-.03-.05-.01-.07.47-.62,2.01-2.88,2.08-6.18.05-2.38-1.23-4.21-2.32-5.33-2-2.04-4.99-3.36-7.62-3.37-.03,0-.05-.02-.05-.05s.02-.05.05-.05h0c2.66,0,5.68,1.34,7.7,3.4,1.1,1.13,2.41,2.98,2.35,5.4-.07,3.33-1.63,5.62-2.1,6.24-.01.01-.03.02-.04.02Z"/>
        <g>
          <g class="cls-73">
            <rect class="cls-31" x="93.99" y="429.45" width=".63" height=".04"/>
            <rect class="cls-31" x="93.99" y="429.38" width=".63" height=".07"/>
            <rect class="cls-31" x="93.99" y="429.31" width=".63" height=".07"/>
            <rect class="cls-45" x="93.99" y="429.24" width=".63" height=".07"/>
            <rect class="cls-45" x="93.99" y="429.16" width=".63" height=".07"/>
            <rect class="cls-45" x="93.99" y="429.09" width=".63" height=".07"/>
            <rect class="cls-44" x="93.99" y="429.02" width=".63" height=".07"/>
            <rect class="cls-41" x="93.99" y="428.95" width=".63" height=".07"/>
            <rect class="cls-41" x="93.99" y="428.87" width=".63" height=".07"/>
            <rect class="cls-41" x="93.99" y="428.87" width=".63" height="0"/>
          </g>
          <path class="cls-42" d="M94.52,429.35c-.09.12-.27.15-.39.05-.12-.09-.15-.27-.05-.39.09-.12.27-.15.39-.05.12.09.15.27.05.39Z"/>
        </g>
      </g>
      <g>
        <path class="cls-38" d="M89.67,432.33s-.02,0-.03,0c-.02-.02-.03-.05-.02-.07.56-.88,2.4-4.14,2.4-9.27,0-7.13-4.07-8.7-5.64-8.7-.03,0-.05-.02-.05-.05s.02-.05.05-.05h0c1.6,0,5.74,1.59,5.74,8.8,0,5.17-1.85,8.45-2.42,9.33-.01.02-.03.02-.04.02Z"/>
        <g>
          <g class="cls-76">
            <rect class="cls-31" x="89.36" y="432.55" width=".63" height=".03"/>
            <rect class="cls-31" x="89.36" y="432.47" width=".63" height=".09"/>
            <rect class="cls-31" x="89.36" y="432.38" width=".63" height=".09"/>
            <rect class="cls-45" x="89.36" y="432.29" width=".63" height=".09"/>
            <rect class="cls-45" x="89.36" y="432.2" width=".63" height=".09"/>
            <rect class="cls-45" x="89.36" y="432.12" width=".63" height=".09"/>
            <rect class="cls-44" x="89.36" y="432.03" width=".63" height=".09"/>
            <rect class="cls-41" x="89.36" y="431.95" width=".63" height=".08"/>
          </g>
          <path class="cls-42" d="M89.91,432.42c-.08.13-.26.16-.38.08-.13-.08-.16-.26-.08-.38.08-.13.26-.16.38-.08.13.08.16.26.08.38Z"/>
        </g>
      </g>
      <g>
        <path class="cls-37" d="M88.85,428.97s-.01,0-.02,0c-.03-.01-.04-.04-.03-.07.3-.68,1.01-2.63,1.01-5.92,0-8.52-3.39-8.7-3.43-8.7-.03,0-.05-.02-.05-.05,0-.03.02-.05.05-.05h0s.9.03,1.78,1.14c1.45,1.83,1.75,5.18,1.75,7.67,0,3.31-.71,5.27-1.02,5.96,0,.02-.03.03-.05.03Z"/>
        <g>
          <g class="cls-74">
            <rect class="cls-31" x="88.53" y="429.21" width=".63" height=".01"/>
            <rect class="cls-31" x="88.53" y="429.14" width=".63" height=".07"/>
            <rect class="cls-31" x="88.53" y="429.07" width=".63" height=".07"/>
            <rect class="cls-45" x="88.53" y="429" width=".63" height=".07"/>
            <rect class="cls-45" x="88.53" y="428.93" width=".63" height=".07"/>
            <rect class="cls-45" x="88.53" y="428.85" width=".63" height=".07"/>
            <rect class="cls-44" x="88.53" y="428.78" width=".63" height=".07"/>
            <rect class="cls-41" x="88.53" y="428.71" width=".63" height=".07"/>
            <rect class="cls-41" x="88.53" y="428.64" width=".63" height=".07"/>
            <rect class="cls-41" x="88.53" y="428.59" width=".63" height=".05"/>
          </g>
          <path class="cls-42" d="M89.1,429.02c-.06.14-.23.2-.37.14-.14-.06-.2-.23-.14-.37.06-.14.23-.2.37-.14.14.06.2.23.14.37Z"/>
        </g>
      </g>
      <g>
        <path class="cls-35" d="M95.88,428.69s-.03,0-.04-.02c-.02-.02-.02-.06,0-.07.51-.42,2.17-2.07,2.17-5.62,0-4.21-3.11-6.35-5.73-7.4-2.84-1.14-5.72-1.29-5.75-1.29-.08,0-.15,0-.19,0h0s-.05-.02-.05-.05.02-.05.05-.05c.05,0,.11,0,.2,0,.03,0,2.92.15,5.78,1.3,2.64,1.06,5.8,3.23,5.8,7.5,0,.91-.16,4.01-2.2,5.7,0,0-.02.01-.03.01Z"/>
        <g>
          <g class="cls-75">
            <rect class="cls-31" x="95.62" y="428.83" width=".54" height=".07"/>
            <rect class="cls-31" x="95.62" y="428.76" width=".54" height=".07"/>
            <rect class="cls-31" x="95.62" y="428.69" width=".54" height=".07"/>
            <rect class="cls-45" x="95.62" y="428.62" width=".54" height=".07"/>
            <rect class="cls-45" x="95.62" y="428.55" width=".54" height=".07"/>
            <rect class="cls-45" x="95.62" y="428.48" width=".54" height=".07"/>
            <rect class="cls-44" x="95.62" y="428.41" width=".54" height=".07"/>
            <rect class="cls-41" x="95.62" y="428.36" width=".54" height=".05"/>
          </g>
          <path class="cls-42" d="M95.74,428.44c-.1.08-.12.23-.04.33.08.1.23.12.33.04.1-.08.12-.23.04-.33-.08-.1-.23-.12-.33-.04Z"/>
        </g>
      </g>
      <g>
        <path class="cls-36" d="M89.58,429.98s-.02,0-.02,0c-.03-.01-.04-.04-.02-.07.3-.62,1.3-2.95,1.3-6.92,0-7.57-2.82-8.7-4.51-8.7-.03,0-.05-.02-.05-.05s.02-.05.05-.05c1.62,0,2.84.92,3.63,2.73.64,1.48.98,3.58.98,6.07,0,3.99-1,6.34-1.31,6.97,0,.02-.03.03-.05.03Z"/>
        <g>
          <g class="cls-81">
            <rect class="cls-31" x="89.31" y="430.18" width=".54" height="0"/>
            <rect class="cls-31" x="89.31" y="430.1" width=".54" height=".08"/>
            <rect class="cls-31" x="89.31" y="430.02" width=".54" height=".08"/>
            <rect class="cls-45" x="89.31" y="429.95" width=".54" height=".08"/>
            <rect class="cls-45" x="89.31" y="429.87" width=".54" height=".08"/>
            <rect class="cls-45" x="89.31" y="429.8" width=".54" height=".08"/>
            <rect class="cls-44" x="89.31" y="429.72" width=".54" height=".08"/>
            <rect class="cls-41" x="89.31" y="429.65" width=".54" height=".08"/>
            <rect class="cls-41" x="89.31" y="429.64" width=".54" height="0"/>
          </g>
          <path class="cls-42" d="M89.37,429.8c-.06.12,0,.26.11.32.12.06.26,0,.32-.11.06-.12,0-.26-.11-.32-.12-.06-.26,0-.32.11Z"/>
        </g>
      </g>
      <g>
        <path class="cls-33" d="M92.35,428.78s-.02,0-.02,0c-.03-.01-.04-.04-.02-.07.31-.63,1.04-2.43,1.04-5.72,0-2.05-.52-3.92-1.5-5.4-.92-1.38-2.91-3.08-5.52-3.29-.03,0-.05-.03-.05-.06,0-.03.03-.05.06-.05,2.65.22,4.67,1.94,5.6,3.34.99,1.5,1.52,3.39,1.52,5.46,0,3.31-.74,5.14-1.06,5.77,0,.02-.03.03-.05.03Z"/>
        <g>
          <g class="cls-78">
            <rect class="cls-31" x="92.08" y="428.98" width=".54" height="0"/>
            <rect class="cls-31" x="92.08" y="428.91" width=".54" height=".07"/>
            <rect class="cls-31" x="92.08" y="428.84" width=".54" height=".07"/>
            <rect class="cls-45" x="92.08" y="428.77" width=".54" height=".07"/>
            <rect class="cls-45" x="92.08" y="428.7" width=".54" height=".07"/>
            <rect class="cls-45" x="92.08" y="428.63" width=".54" height=".07"/>
            <rect class="cls-44" x="92.08" y="428.56" width=".54" height=".07"/>
            <rect class="cls-41" x="92.08" y="428.49" width=".54" height=".07"/>
            <rect class="cls-41" x="92.08" y="428.44" width=".54" height=".05"/>
          </g>
          <path class="cls-42" d="M92.14,428.6c-.06.12-.01.26.1.32s.26.01.32-.1c.06-.12.01-.26-.1-.32s-.26-.01-.32.1Z"/>
        </g>
      </g>
      <g>
        <path class="cls-39" d="M92.99,429.64s-.02,0-.03,0c-.02-.02-.03-.05-.02-.07.43-.67,1.84-3.12,1.84-6.57,0-2.29-.85-4.35-2.46-5.95-1.54-1.54-3.68-2.52-6.03-2.76-.03,0-.05-.03-.05-.06,0-.03.03-.05.06-.05,2.37.24,4.54,1.23,6.09,2.79,1.63,1.62,2.49,3.71,2.49,6.03,0,3.48-1.42,5.95-1.85,6.63-.01.02-.03.02-.04.02Z"/>
        <g>
          <g class="cls-77">
            <rect class="cls-31" x="92.72" y="429.82" width=".54" height=".02"/>
            <rect class="cls-31" x="92.72" y="429.75" width=".54" height=".07"/>
            <rect class="cls-31" x="92.72" y="429.67" width=".54" height=".07"/>
            <rect class="cls-45" x="92.72" y="429.6" width=".54" height=".07"/>
            <rect class="cls-45" x="92.72" y="429.53" width=".54" height=".07"/>
            <rect class="cls-45" x="92.72" y="429.45" width=".54" height=".07"/>
            <rect class="cls-44" x="92.72" y="429.38" width=".54" height=".07"/>
            <rect class="cls-41" x="92.72" y="429.3" width=".54" height=".07"/>
            <rect class="cls-41" x="92.72" y="429.3" width=".54" height="0"/>
          </g>
          <path class="cls-42" d="M92.79,429.44c-.07.11-.04.26.07.33s.26.04.33-.07c.07-.11.04-.26-.07-.33s-.26-.04-.33.07Z"/>
        </g>
      </g>
    </g>
    <g>
      <g>
        <path class="cls-34" d="M76.44,429.89s-.02,0-.03,0c-.88-.58-3.76-2.81-3.78-6.94,0-1.54.71-3.08,2.08-4.45,2.6-2.61,7.11-4.3,11.49-4.3h0s.05.02.05.05-.02.05-.05.05c-4.35,0-8.83,1.68-11.41,4.27-1.35,1.35-2.06,2.87-2.05,4.38.01,4.08,2.86,6.28,3.73,6.86.02.02.03.05.01.07-.01.02-.03.02-.04.02Z"/>
        <g>
          <g class="cls-80">
            <rect class="cls-31" x="76.16" y="430.01" width=".54" height=".09"/>
            <rect class="cls-31" x="76.16" y="429.93" width=".54" height=".07"/>
            <rect class="cls-31" x="76.16" y="429.86" width=".54" height=".07"/>
            <rect class="cls-45" x="76.16" y="429.78" width=".54" height=".07"/>
            <rect class="cls-45" x="76.16" y="429.71" width=".54" height=".07"/>
            <rect class="cls-45" x="76.16" y="429.63" width=".54" height=".07"/>
            <rect class="cls-44" x="76.16" y="429.56" width=".54" height=".07"/>
            <rect class="cls-41" x="76.16" y="429.55" width=".54" height="0"/>
          </g>
          <path class="cls-42" d="M76.31,430.03c.11.07.26.04.33-.07.07-.11.04-.26-.07-.33-.11-.07-.26-.04-.33.07-.07.11-.04.26.07.33Z"/>
        </g>
      </g>
      <g>
        <path class="cls-8" d="M78.3,429.25s-.03,0-.04-.02c-.47-.62-2.03-2.91-2.1-6.24-.05-2.42,1.25-4.28,2.35-5.4,2.01-2.06,5.04-3.4,7.7-3.4h0s.05.02.05.05-.02.05-.05.05c-2.63,0-5.63,1.33-7.62,3.37-1.09,1.11-2.38,2.94-2.32,5.33.07,3.3,1.61,5.57,2.08,6.18.02.02.01.06-.01.07,0,0-.02.01-.03.01Z"/>
        <g>
          <g class="cls-79">
            <rect class="cls-31" x="77.98" y="429.45" width=".63" height=".04"/>
            <rect class="cls-31" x="77.98" y="429.38" width=".63" height=".07"/>
            <rect class="cls-31" x="77.98" y="429.31" width=".63" height=".07"/>
            <rect class="cls-45" x="77.98" y="429.24" width=".63" height=".07"/>
            <rect class="cls-45" x="77.98" y="429.16" width=".63" height=".07"/>
            <rect class="cls-45" x="77.98" y="429.09" width=".63" height=".07"/>
            <rect class="cls-44" x="77.98" y="429.02" width=".63" height=".07"/>
            <rect class="cls-41" x="77.98" y="428.95" width=".63" height=".07"/>
            <rect class="cls-41" x="77.98" y="428.87" width=".63" height=".07"/>
            <rect class="cls-41" x="77.98" y="428.87" width=".63" height="0"/>
          </g>
          <path class="cls-42" d="M78.52,429.01c.09.12.07.3-.05.39-.12.09-.3.07-.39-.05-.09-.12-.07-.3.05-.39s.3-.07.39.05Z"/>
        </g>
      </g>
      <g>
        <path class="cls-9" d="M82.92,432.33s-.03,0-.04-.02c-.57-.88-2.42-4.16-2.42-9.33,0-7.22,4.15-8.8,5.74-8.8h0s.05.02.05.05-.02.05-.05.05c-1.57,0-5.64,1.57-5.64,8.7,0,5.14,1.84,8.4,2.4,9.27.02.02,0,.06-.02.07,0,0-.02,0-.03,0Z"/>
        <g>
          <g class="cls-56">
            <rect class="cls-31" x="82.6" y="432.55" width=".63" height=".03"/>
            <rect class="cls-31" x="82.6" y="432.47" width=".63" height=".09"/>
            <rect class="cls-31" x="82.6" y="432.38" width=".63" height=".09"/>
            <rect class="cls-45" x="82.6" y="432.29" width=".63" height=".09"/>
            <rect class="cls-45" x="82.6" y="432.2" width=".63" height=".09"/>
            <rect class="cls-45" x="82.6" y="432.12" width=".63" height=".09"/>
            <rect class="cls-44" x="82.6" y="432.03" width=".63" height=".09"/>
            <rect class="cls-41" x="82.6" y="431.95" width=".63" height=".08"/>
          </g>
          <path class="cls-42" d="M83.15,432.12c.08.13.05.3-.08.38-.13.08-.3.05-.38-.08-.08-.13-.05-.3.08-.38.13-.08.3-.05.38.08Z"/>
        </g>
      </g>
      <g>
        <path class="cls-21" d="M83.75,428.97s-.04-.01-.05-.03c-.31-.69-1.02-2.65-1.02-5.96,0-2.48.3-5.83,1.75-7.67.87-1.11,1.74-1.14,1.78-1.14h0s.05.02.05.05c0,.03-.02.05-.05.05-.03,0-3.43.18-3.43,8.7,0,3.29.71,5.23,1.01,5.92.01.03,0,.06-.03.07,0,0-.01,0-.02,0Z"/>
        <g>
          <g class="cls-53">
            <rect class="cls-31" x="83.43" y="429.21" width=".63" height=".01"/>
            <rect class="cls-31" x="83.43" y="429.14" width=".63" height=".07"/>
            <rect class="cls-31" x="83.43" y="429.07" width=".63" height=".07"/>
            <rect class="cls-45" x="83.43" y="429" width=".63" height=".07"/>
            <rect class="cls-45" x="83.43" y="428.93" width=".63" height=".07"/>
            <rect class="cls-45" x="83.43" y="428.85" width=".63" height=".07"/>
            <rect class="cls-44" x="83.43" y="428.78" width=".63" height=".07"/>
            <rect class="cls-41" x="83.43" y="428.71" width=".63" height=".07"/>
            <rect class="cls-41" x="83.43" y="428.64" width=".63" height=".07"/>
            <rect class="cls-41" x="83.43" y="428.59" width=".63" height=".05"/>
          </g>
          <path class="cls-42" d="M84,428.79c.06.14,0,.3-.14.37-.14.06-.3,0-.37-.14-.06-.14,0-.3.14-.37.14-.06.3,0,.37.14Z"/>
        </g>
      </g>
      <g>
        <path class="cls-19" d="M76.72,428.69s-.02,0-.03-.01c-.52-.43-2.2-2.1-2.2-5.7,0-4.27,3.15-6.43,5.8-7.5,2.86-1.15,5.75-1.3,5.78-1.3.08,0,.15,0,.2,0,.03,0,.05.02.05.05s-.02.05-.05.05c0,0-.01,0-.02,0-.04,0-.1,0-.17,0-.03,0-2.91.15-5.75,1.29-2.61,1.05-5.73,3.19-5.73,7.4,0,3.55,1.66,5.2,2.17,5.62.02.02.03.05,0,.07-.01.01-.03.02-.04.02Z"/>
        <g>
          <g class="cls-60">
            <rect class="cls-31" x="76.44" y="428.83" width=".54" height=".07"/>
            <rect class="cls-31" x="76.44" y="428.76" width=".54" height=".07"/>
            <rect class="cls-31" x="76.44" y="428.69" width=".54" height=".07"/>
            <rect class="cls-45" x="76.44" y="428.62" width=".54" height=".07"/>
            <rect class="cls-45" x="76.44" y="428.55" width=".54" height=".07"/>
            <rect class="cls-45" x="76.44" y="428.48" width=".54" height=".07"/>
            <rect class="cls-44" x="76.44" y="428.41" width=".54" height=".07"/>
            <rect class="cls-41" x="76.44" y="428.36" width=".54" height=".05"/>
          </g>
          <path class="cls-42" d="M76.56,428.81c.1.08.25.06.33-.04.08-.1.06-.25-.04-.33-.1-.08-.25-.06-.33.04-.08.1-.06.25.04.33Z"/>
        </g>
      </g>
      <g>
        <path class="cls-17" d="M83.01,429.98s-.04-.01-.05-.03c-.31-.62-1.31-2.97-1.31-6.97,0-2.49.34-4.59.98-6.07.79-1.81,2.01-2.73,3.63-2.73.03,0,.05.02.05.05s-.02.05-.05.05c-1.68,0-4.51,1.13-4.51,8.7,0,3.97.99,6.3,1.3,6.92.01.03,0,.06-.02.07,0,0-.02,0-.02,0Z"/>
        <g>
          <g class="cls-58">
            <rect class="cls-31" x="82.74" y="430.18" width=".54" height="0"/>
            <rect class="cls-31" x="82.74" y="430.1" width=".54" height=".08"/>
            <rect class="cls-31" x="82.74" y="430.02" width=".54" height=".08"/>
            <rect class="cls-45" x="82.74" y="429.95" width=".54" height=".08"/>
            <rect class="cls-45" x="82.74" y="429.87" width=".54" height=".08"/>
            <rect class="cls-45" x="82.74" y="429.8" width=".54" height=".08"/>
            <rect class="cls-44" x="82.74" y="429.72" width=".54" height=".08"/>
            <rect class="cls-41" x="82.74" y="429.65" width=".54" height=".08"/>
            <rect class="cls-41" x="82.74" y="429.64" width=".54" height="0"/>
          </g>
          <path class="cls-42" d="M82.8,430.01c.06.12.2.17.32.11.12-.06.17-.2.11-.32-.06-.12-.2-.17-.32-.11-.12.06-.17.2-.11.32Z"/>
        </g>
      </g>
      <g>
        <path class="cls-20" d="M80.24,428.78s-.04-.01-.05-.03c-.32-.63-1.06-2.46-1.06-5.77,0-2.07.52-3.96,1.52-5.46.93-1.4,2.95-3.12,5.6-3.34.03,0,.05.02.06.05s-.02.05-.05.06c-2.61.22-4.61,1.91-5.52,3.29-.98,1.48-1.5,3.35-1.5,5.4,0,3.29.73,5.1,1.04,5.72.01.03,0,.06-.02.07,0,0-.02,0-.02,0Z"/>
        <g>
          <g class="cls-59">
            <rect class="cls-31" x="79.97" y="428.98" width=".54" height="0"/>
            <rect class="cls-31" x="79.97" y="428.91" width=".54" height=".07"/>
            <rect class="cls-31" x="79.97" y="428.84" width=".54" height=".07"/>
            <rect class="cls-45" x="79.97" y="428.77" width=".54" height=".07"/>
            <rect class="cls-45" x="79.97" y="428.7" width=".54" height=".07"/>
            <rect class="cls-45" x="79.97" y="428.63" width=".54" height=".07"/>
            <rect class="cls-44" x="79.97" y="428.56" width=".54" height=".07"/>
            <rect class="cls-41" x="79.97" y="428.49" width=".54" height=".07"/>
            <rect class="cls-41" x="79.97" y="428.44" width=".54" height=".05"/>
          </g>
          <path class="cls-42" d="M80.03,428.82c.06.12.2.16.32.1s.16-.2.1-.32c-.06-.12-.2-.16-.32-.1-.12.06-.16.2-.1.32Z"/>
        </g>
      </g>
      <g>
        <path class="cls-16" d="M79.61,429.64s-.03,0-.04-.02c-.43-.68-1.85-3.15-1.85-6.63,0-2.32.86-4.4,2.49-6.03,1.56-1.56,3.72-2.55,6.09-2.79.03,0,.05.02.06.05,0,.03-.02.05-.05.06-2.35.24-4.49,1.22-6.03,2.76-1.61,1.6-2.46,3.66-2.46,5.95,0,3.45,1.41,5.9,1.84,6.57.02.02,0,.06-.02.07,0,0-.02,0-.03,0Z"/>
        <g>
          <g class="cls-57">
            <rect class="cls-31" x="79.34" y="429.82" width=".54" height=".02"/>
            <rect class="cls-31" x="79.34" y="429.75" width=".54" height=".07"/>
            <rect class="cls-31" x="79.34" y="429.67" width=".54" height=".07"/>
            <rect class="cls-45" x="79.34" y="429.6" width=".54" height=".07"/>
            <rect class="cls-45" x="79.34" y="429.53" width=".54" height=".07"/>
            <rect class="cls-45" x="79.34" y="429.45" width=".54" height=".07"/>
            <rect class="cls-44" x="79.34" y="429.38" width=".54" height=".07"/>
            <rect class="cls-41" x="79.34" y="429.3" width=".54" height=".07"/>
            <rect class="cls-41" x="79.34" y="429.3" width=".54" height="0"/>
          </g>
          <path class="cls-42" d="M79.41,429.7c.07.11.22.14.33.07s.14-.22.07-.33c-.07-.11-.22-.14-.33-.07s-.14.22-.07.33Z"/>
        </g>
      </g>
    </g>
    <circle class="cls-3" cx="86.3" cy="437.37" r=".54"/>
    <path class="cls-46" d="M86.3,435.64s-.06-.02-.06-.05v-24.98s.02-.05.05-.05h.01s.05.02.05.05v24.98s-.02.05-.05.05Z"/>
    <g>
      <g>
        <path class="cls-10" d="M86.39,460.57s-.05-.02-.05-.05.02-.05.05-.05c4.35,0,8.83-1.68,11.41-4.27,1.35-1.35,2.06-2.87,2.05-4.38-.01-4.08-2.86-6.28-3.73-6.86-.02-.02-.03-.05-.01-.07s.05-.03.07-.01c.88.58,3.76,2.81,3.78,6.94,0,1.54-.71,3.08-2.08,4.45-2.6,2.61-7.11,4.3-11.49,4.3h0Z"/>
        <g>
          <g class="cls-54">
            <rect class="cls-31" x="95.89" y="444.65" width=".54" height=".09"/>
            <rect class="cls-31" x="95.89" y="444.74" width=".54" height=".07"/>
            <rect class="cls-31" x="95.89" y="444.81" width=".54" height=".07"/>
            <rect class="cls-45" x="95.89" y="444.89" width=".54" height=".07"/>
            <rect class="cls-45" x="95.89" y="444.96" width=".54" height=".07"/>
            <rect class="cls-45" x="95.89" y="445.04" width=".54" height=".07"/>
            <rect class="cls-44" x="95.89" y="445.11" width=".54" height=".07"/>
            <rect class="cls-41" x="95.89" y="445.19" width=".54" height="0"/>
          </g>
          <path class="cls-42" d="M96.29,444.72c-.11-.07-.26-.04-.33.07s-.04.26.07.33c.11.07.26.04.33-.07.07-.11.04-.26-.07-.33Z"/>
        </g>
      </g>
      <g>
        <path class="cls-23" d="M86.39,460.57s-.05-.02-.05-.05.02-.05.05-.05c2.63,0,5.63-1.33,7.62-3.37,1.09-1.11,2.38-2.94,2.32-5.33-.07-3.3-1.61-5.57-2.08-6.18-.02-.02-.01-.06.01-.07.02-.02.06-.01.07,0,.47.62,2.03,2.91,2.1,6.24.05,2.42-1.25,4.28-2.35,5.4-2.01,2.06-5.04,3.4-7.7,3.4h0Z"/>
        <g>
          <g class="cls-51">
            <rect class="cls-31" x="93.99" y="445.25" width=".63" height=".04"/>
            <rect class="cls-31" x="93.99" y="445.29" width=".63" height=".07"/>
            <rect class="cls-31" x="93.99" y="445.36" width=".63" height=".07"/>
            <rect class="cls-45" x="93.99" y="445.43" width=".63" height=".07"/>
            <rect class="cls-45" x="93.99" y="445.51" width=".63" height=".07"/>
            <rect class="cls-45" x="93.99" y="445.58" width=".63" height=".07"/>
            <rect class="cls-44" x="93.99" y="445.65" width=".63" height=".07"/>
            <rect class="cls-41" x="93.99" y="445.72" width=".63" height=".07"/>
            <rect class="cls-41" x="93.99" y="445.8" width=".63" height=".07"/>
            <rect class="cls-41" x="93.99" y="445.87" width=".63" height="0"/>
          </g>
          <path class="cls-42" d="M94.08,445.73c-.09-.12-.07-.3.05-.39.12-.09.3-.07.39.05.09.12.07.3-.05.39-.12.09-.3.07-.39-.05Z"/>
        </g>
      </g>
      <g>
        <path class="cls-18" d="M86.39,460.57s-.05-.02-.05-.05.02-.05.05-.05c1.57,0,5.64-1.57,5.64-8.7,0-5.14-1.84-8.4-2.4-9.27-.02-.02,0-.06.02-.07.02-.02.06,0,.07.02.57.88,2.42,4.16,2.42,9.33,0,7.22-4.15,8.8-5.74,8.8h0Z"/>
        <g>
          <g class="cls-55">
            <rect class="cls-31" x="89.36" y="442.16" width=".63" height=".03"/>
            <rect class="cls-31" x="89.36" y="442.19" width=".63" height=".09"/>
            <rect class="cls-31" x="89.36" y="442.28" width=".63" height=".09"/>
            <rect class="cls-45" x="89.36" y="442.36" width=".63" height=".09"/>
            <rect class="cls-45" x="89.36" y="442.45" width=".63" height=".09"/>
            <rect class="cls-45" x="89.36" y="442.54" width=".63" height=".09"/>
            <rect class="cls-44" x="89.36" y="442.62" width=".63" height=".09"/>
            <rect class="cls-41" x="89.36" y="442.71" width=".63" height=".08"/>
          </g>
          <path class="cls-42" d="M89.45,442.63c-.08-.13-.05-.3.08-.38s.3-.05.38.08c.08.13.05.3-.08.38-.13.08-.3.05-.38-.08Z"/>
        </g>
      </g>
      <g>
        <path class="cls-22" d="M86.39,460.57s-.05-.02-.05-.05c0-.03.02-.05.05-.05.03,0,3.43-.18,3.43-8.7,0-3.29-.71-5.23-1.01-5.92-.01-.03,0-.06.03-.07.03-.01.06,0,.07.03.31.69,1.02,2.65,1.02,5.96,0,2.48-.3,5.83-1.75,7.67-.87,1.11-1.74,1.14-1.78,1.14h0Z"/>
        <g>
          <g class="cls-52">
            <rect class="cls-31" x="88.53" y="445.52" width=".63" height=".01"/>
            <rect class="cls-31" x="88.53" y="445.53" width=".63" height=".07"/>
            <rect class="cls-31" x="88.53" y="445.6" width=".63" height=".07"/>
            <rect class="cls-45" x="88.53" y="445.68" width=".63" height=".07"/>
            <rect class="cls-45" x="88.53" y="445.75" width=".63" height=".07"/>
            <rect class="cls-45" x="88.53" y="445.82" width=".63" height=".07"/>
            <rect class="cls-44" x="88.53" y="445.89" width=".63" height=".07"/>
            <rect class="cls-41" x="88.53" y="445.96" width=".63" height=".07"/>
            <rect class="cls-41" x="88.53" y="446.03" width=".63" height=".07"/>
            <rect class="cls-41" x="88.53" y="446.1" width=".63" height=".05"/>
          </g>
          <path class="cls-42" d="M88.6,445.95c-.06-.14,0-.3.14-.37s.3,0,.37.14c.06.14,0,.3-.14.37-.14.06-.3,0-.37-.14Z"/>
        </g>
      </g>
      <g>
        <path class="cls-27" d="M86.34,460.56s-.05-.02-.05-.05.02-.05.05-.05c.05,0,.11,0,.2,0,.03,0,2.91-.15,5.75-1.29,2.61-1.05,5.73-3.19,5.73-7.4,0-3.55-1.66-5.2-2.17-5.62-.02-.02-.03-.05,0-.07.02-.02.05-.03.07,0,.52.43,2.2,2.1,2.2,5.7,0,4.27-3.15,6.43-5.8,7.5-2.86,1.15-5.75,1.3-5.78,1.3-.08,0-.15,0-.2,0Z"/>
        <g>
          <g class="cls-67">
            <rect class="cls-31" x="95.62" y="445.85" width=".54" height=".07"/>
            <rect class="cls-31" x="95.62" y="445.92" width=".54" height=".07"/>
            <rect class="cls-31" x="95.62" y="445.99" width=".54" height=".07"/>
            <rect class="cls-45" x="95.62" y="446.05" width=".54" height=".07"/>
            <rect class="cls-45" x="95.62" y="446.12" width=".54" height=".07"/>
            <rect class="cls-45" x="95.62" y="446.19" width=".54" height=".07"/>
            <rect class="cls-44" x="95.62" y="446.26" width=".54" height=".07"/>
            <rect class="cls-41" x="95.62" y="446.33" width=".54" height=".05"/>
          </g>
          <path class="cls-42" d="M96.03,445.93c-.1-.08-.25-.06-.33.04-.08.1-.06.25.04.33.1.08.25.06.33-.04.08-.1.06-.25-.04-.33Z"/>
        </g>
      </g>
      <g>
        <path class="cls-12" d="M86.32,460.56s-.05-.02-.05-.05.02-.05.05-.05c1.68,0,4.51-1.13,4.51-8.7,0-3.97-.99-6.3-1.3-6.92-.01-.03,0-.06.02-.07.03-.01.06,0,.07.02.31.62,1.31,2.97,1.31,6.97,0,2.49-.34,4.59-.98,6.07-.79,1.81-2.01,2.73-3.63,2.73Z"/>
        <g>
          <g class="cls-68">
            <rect class="cls-31" x="89.31" y="444.56" width=".54" height="0"/>
            <rect class="cls-31" x="89.31" y="444.57" width=".54" height=".08"/>
            <rect class="cls-31" x="89.31" y="444.64" width=".54" height=".08"/>
            <rect class="cls-45" x="89.31" y="444.72" width=".54" height=".08"/>
            <rect class="cls-45" x="89.31" y="444.79" width=".54" height=".08"/>
            <rect class="cls-45" x="89.31" y="444.87" width=".54" height=".08"/>
            <rect class="cls-44" x="89.31" y="444.95" width=".54" height=".08"/>
            <rect class="cls-41" x="89.31" y="445.02" width=".54" height=".08"/>
            <rect class="cls-41" x="89.31" y="445.1" width=".54" height="0"/>
          </g>
          <path class="cls-42" d="M89.8,444.73c-.06-.12-.2-.17-.32-.11s-.17.2-.11.32c.06.12.2.17.32.11.12-.06.17-.2.11-.32Z"/>
        </g>
      </g>
      <g>
        <path class="cls-15" d="M86.33,460.56s-.05-.02-.05-.05c0-.03.02-.05.05-.06,2.61-.22,4.61-1.91,5.52-3.29.98-1.48,1.5-3.35,1.5-5.4,0-3.29-.73-5.1-1.04-5.72-.01-.03,0-.06.02-.07.03-.01.06,0,.07.02.32.63,1.06,2.46,1.06,5.77,0,2.07-.52,3.96-1.52,5.46-.93,1.4-2.96,3.12-5.6,3.34,0,0,0,0,0,0Z"/>
        <g>
          <g class="cls-69">
            <rect class="cls-31" x="92.08" y="445.76" width=".54" height="0"/>
            <rect class="cls-31" x="92.08" y="445.77" width=".54" height=".07"/>
            <rect class="cls-31" x="92.08" y="445.84" width=".54" height=".07"/>
            <rect class="cls-45" x="92.08" y="445.91" width=".54" height=".07"/>
            <rect class="cls-45" x="92.08" y="445.98" width=".54" height=".07"/>
            <rect class="cls-45" x="92.08" y="446.05" width=".54" height=".07"/>
            <rect class="cls-44" x="92.08" y="446.12" width=".54" height=".07"/>
            <rect class="cls-41" x="92.08" y="446.19" width=".54" height=".07"/>
            <rect class="cls-41" x="92.08" y="446.26" width=".54" height=".05"/>
          </g>
          <path class="cls-42" d="M92.57,445.92c-.06-.12-.2-.16-.32-.1-.12.06-.16.2-.1.32.06.12.2.16.32.1.12-.06.16-.2.1-.32Z"/>
        </g>
      </g>
      <g>
        <path class="cls-14" d="M86.3,460.58s-.05-.02-.05-.05c0-.03.02-.05.05-.06,2.35-.24,4.49-1.22,6.03-2.76,1.61-1.6,2.46-3.66,2.46-5.95,0-3.45-1.41-5.9-1.84-6.57-.02-.02,0-.06.02-.07.02-.02.06,0,.07.02.43.68,1.85,3.15,1.85,6.63,0,2.32-.86,4.4-2.49,6.03-1.56,1.56-3.72,2.55-6.09,2.79,0,0,0,0,0,0Z"/>
        <g>
          <g class="cls-70">
            <rect class="cls-31" x="92.72" y="444.9" width=".54" height=".02"/>
            <rect class="cls-31" x="92.72" y="444.92" width=".54" height=".07"/>
            <rect class="cls-31" x="92.72" y="444.99" width=".54" height=".07"/>
            <rect class="cls-45" x="92.72" y="445.07" width=".54" height=".07"/>
            <rect class="cls-45" x="92.72" y="445.14" width=".54" height=".07"/>
            <rect class="cls-45" x="92.72" y="445.22" width=".54" height=".07"/>
            <rect class="cls-44" x="92.72" y="445.29" width=".54" height=".07"/>
            <rect class="cls-41" x="92.72" y="445.36" width=".54" height=".07"/>
            <rect class="cls-41" x="92.72" y="445.44" width=".54" height="0"/>
          </g>
          <path class="cls-42" d="M93.19,445.05c-.07-.11-.22-.14-.33-.07s-.14.22-.07.33c.07.11.22.14.33.07s.14-.22.07-.33Z"/>
        </g>
      </g>
    </g>
    <g>
      <g>
        <path class="cls-13" d="M86.21,460.57h0c-4.38,0-8.89-1.69-11.49-4.3-1.37-1.37-2.09-2.91-2.08-4.45.01-4.13,2.89-6.36,3.78-6.94.02-.02.06,0,.07.01.02.02,0,.06-.01.07-.87.58-3.72,2.78-3.73,6.86,0,1.51.7,3.03,2.05,4.38,2.58,2.59,7.06,4.27,11.41,4.27.03,0,.05.02.05.05s-.02.05-.05.05Z"/>
        <g>
          <g class="cls-71">
            <rect class="cls-31" x="76.16" y="444.65" width=".54" height=".09"/>
            <rect class="cls-31" x="76.16" y="444.74" width=".54" height=".07"/>
            <rect class="cls-31" x="76.16" y="444.81" width=".54" height=".07"/>
            <rect class="cls-45" x="76.16" y="444.89" width=".54" height=".07"/>
            <rect class="cls-45" x="76.16" y="444.96" width=".54" height=".07"/>
            <rect class="cls-45" x="76.16" y="445.04" width=".54" height=".07"/>
            <rect class="cls-44" x="76.16" y="445.11" width=".54" height=".07"/>
            <rect class="cls-41" x="76.16" y="445.19" width=".54" height="0"/>
          </g>
          <path class="cls-42" d="M76.56,445.12c.11-.07.14-.22.07-.33-.07-.11-.22-.14-.33-.07-.11.07-.14.22-.07.33.07.11.22.14.33.07Z"/>
        </g>
      </g>
      <g>
        <path class="cls-11" d="M86.21,460.57h0c-2.66,0-5.68-1.34-7.7-3.4-1.1-1.13-2.41-2.98-2.35-5.4.07-3.33,1.63-5.62,2.1-6.24.02-.02.05-.03.07,0,.02.02.03.05.01.07-.47.62-2.01,2.88-2.08,6.18-.05,2.38,1.23,4.21,2.32,5.33,2,2.04,4.99,3.37,7.62,3.37.03,0,.05.02.05.05s-.02.05-.05.05Z"/>
        <g>
          <g class="cls-72">
            <rect class="cls-31" x="77.98" y="445.25" width=".63" height=".04"/>
            <rect class="cls-31" x="77.98" y="445.29" width=".63" height=".07"/>
            <rect class="cls-31" x="77.98" y="445.36" width=".63" height=".07"/>
            <rect class="cls-45" x="77.98" y="445.43" width=".63" height=".07"/>
            <rect class="cls-45" x="77.98" y="445.51" width=".63" height=".07"/>
            <rect class="cls-45" x="77.98" y="445.58" width=".63" height=".07"/>
            <rect class="cls-44" x="77.98" y="445.65" width=".63" height=".07"/>
            <rect class="cls-41" x="77.98" y="445.72" width=".63" height=".07"/>
            <rect class="cls-41" x="77.98" y="445.8" width=".63" height=".07"/>
            <rect class="cls-41" x="77.98" y="445.87" width=".63" height="0"/>
          </g>
          <path class="cls-42" d="M78.07,445.4c.09-.12.27-.15.39-.05.12.09.15.27.05.39-.09.12-.27.15-.39.05-.12-.09-.15-.27-.05-.39Z"/>
        </g>
      </g>
      <g>
        <path class="cls-25" d="M86.21,460.57h0c-1.6,0-5.74-1.59-5.74-8.8,0-5.16,1.85-8.45,2.42-9.33.02-.02.05-.03.07-.02.02.02.03.05.02.07-.56.88-2.4,4.14-2.4,9.27,0,7.13,4.07,8.7,5.64,8.7.03,0,.05.02.05.05s-.02.05-.05.05Z"/>
        <g>
          <g class="cls-65">
            <rect class="cls-31" x="82.6" y="442.16" width=".63" height=".03"/>
            <rect class="cls-31" x="82.6" y="442.19" width=".63" height=".09"/>
            <rect class="cls-31" x="82.6" y="442.28" width=".63" height=".09"/>
            <rect class="cls-45" x="82.6" y="442.36" width=".63" height=".09"/>
            <rect class="cls-45" x="82.6" y="442.45" width=".63" height=".09"/>
            <rect class="cls-45" x="82.6" y="442.54" width=".63" height=".09"/>
            <rect class="cls-44" x="82.6" y="442.62" width=".63" height=".09"/>
            <rect class="cls-41" x="82.6" y="442.71" width=".63" height=".08"/>
          </g>
          <path class="cls-42" d="M82.69,442.32c.08-.13.26-.16.38-.08s.16.26.08.38c-.08.13-.26.16-.38.08-.13-.08-.16-.26-.08-.38Z"/>
        </g>
      </g>
      <g>
        <path class="cls-26" d="M86.21,460.57h0s-.9-.03-1.78-1.14c-1.45-1.83-1.75-5.18-1.75-7.67,0-3.31.72-5.27,1.02-5.96.01-.03.04-.04.07-.03s.04.04.03.07c-.3.68-1.01,2.63-1.01,5.92,0,8.52,3.39,8.7,3.43,8.7.03,0,.05.02.05.05,0,.03-.02.05-.05.05Z"/>
        <g>
          <g class="cls-63">
            <rect class="cls-31" x="83.43" y="445.52" width=".63" height=".01"/>
            <rect class="cls-31" x="83.43" y="445.53" width=".63" height=".07"/>
            <rect class="cls-31" x="83.43" y="445.6" width=".63" height=".07"/>
            <rect class="cls-45" x="83.43" y="445.68" width=".63" height=".07"/>
            <rect class="cls-45" x="83.43" y="445.75" width=".63" height=".07"/>
            <rect class="cls-45" x="83.43" y="445.82" width=".63" height=".07"/>
            <rect class="cls-44" x="83.43" y="445.89" width=".63" height=".07"/>
            <rect class="cls-41" x="83.43" y="445.96" width=".63" height=".07"/>
            <rect class="cls-41" x="83.43" y="446.03" width=".63" height=".07"/>
            <rect class="cls-41" x="83.43" y="446.1" width=".63" height=".05"/>
          </g>
          <path class="cls-42" d="M83.49,445.72c.06-.14.23-.2.37-.14.14.06.2.23.14.37-.06.14-.23.2-.37.14s-.2-.23-.14-.37Z"/>
        </g>
      </g>
      <g>
        <path class="cls-24" d="M86.26,460.56s-.11,0-.2,0c-.03,0-2.92-.15-5.78-1.3-2.64-1.06-5.8-3.23-5.8-7.5,0-.91.16-4.01,2.2-5.7.02-.02.06-.02.07,0,.02.02.02.06,0,.07-.51.42-2.17,2.07-2.17,5.62,0,4.21,3.11,6.35,5.73,7.4,2.84,1.14,5.72,1.29,5.75,1.29.08,0,.15,0,.19,0,.03,0,.05.02.05.05s-.02.05-.05.05Z"/>
        <g>
          <g class="cls-66">
            <rect class="cls-31" x="76.44" y="445.85" width=".54" height=".07"/>
            <rect class="cls-31" x="76.44" y="445.92" width=".54" height=".07"/>
            <rect class="cls-31" x="76.44" y="445.99" width=".54" height=".07"/>
            <rect class="cls-45" x="76.44" y="446.05" width=".54" height=".07"/>
            <rect class="cls-45" x="76.44" y="446.12" width=".54" height=".07"/>
            <rect class="cls-45" x="76.44" y="446.19" width=".54" height=".07"/>
            <rect class="cls-44" x="76.44" y="446.26" width=".54" height=".07"/>
            <rect class="cls-41" x="76.44" y="446.33" width=".54" height=".05"/>
          </g>
          <path class="cls-42" d="M76.86,446.3c.1-.08.12-.23.04-.33-.08-.1-.23-.12-.33-.04-.1.08-.12.23-.04.33.08.1.23.12.33.04Z"/>
        </g>
      </g>
      <g>
        <path class="cls-28" d="M86.27,460.56c-1.62,0-2.84-.92-3.63-2.73-.64-1.48-.98-3.58-.98-6.07,0-3.99,1-6.34,1.31-6.97.01-.03.04-.04.07-.02.03.01.04.04.02.07-.3.62-1.3,2.95-1.3,6.92,0,7.57,2.82,8.7,4.51,8.7.03,0,.05.02.05.05s-.02.05-.05.05Z"/>
        <g>
          <g class="cls-64">
            <rect class="cls-31" x="82.74" y="444.56" width=".54" height="0"/>
            <rect class="cls-31" x="82.74" y="444.57" width=".54" height=".08"/>
            <rect class="cls-31" x="82.74" y="444.64" width=".54" height=".08"/>
            <rect class="cls-45" x="82.74" y="444.72" width=".54" height=".08"/>
            <rect class="cls-45" x="82.74" y="444.79" width=".54" height=".08"/>
            <rect class="cls-45" x="82.74" y="444.87" width=".54" height=".08"/>
            <rect class="cls-44" x="82.74" y="444.95" width=".54" height=".08"/>
            <rect class="cls-41" x="82.74" y="445.02" width=".54" height=".08"/>
            <rect class="cls-41" x="82.74" y="445.1" width=".54" height="0"/>
          </g>
          <path class="cls-42" d="M83.23,444.94c.06-.12,0-.26-.11-.32-.12-.06-.26,0-.32.11-.06.12,0,.26.11.32.12.06.26,0,.32-.11Z"/>
        </g>
      </g>
      <g>
        <path class="cls-30" d="M86.27,460.56s0,0,0,0c-2.65-.22-4.67-1.94-5.6-3.34-.99-1.5-1.52-3.39-1.52-5.46,0-3.31.74-5.14,1.06-5.77.01-.03.04-.04.07-.02.03.01.04.04.02.07-.31.63-1.04,2.43-1.04,5.72,0,2.05.52,3.92,1.5,5.4.92,1.38,2.91,3.08,5.52,3.29.03,0,.05.03.05.06,0,.03-.03.05-.05.05Z"/>
        <g>
          <g class="cls-62">
            <rect class="cls-31" x="79.97" y="445.76" width=".54" height="0"/>
            <rect class="cls-31" x="79.97" y="445.77" width=".54" height=".07"/>
            <rect class="cls-31" x="79.97" y="445.84" width=".54" height=".07"/>
            <rect class="cls-45" x="79.97" y="445.91" width=".54" height=".07"/>
            <rect class="cls-45" x="79.97" y="445.98" width=".54" height=".07"/>
            <rect class="cls-45" x="79.97" y="446.05" width=".54" height=".07"/>
            <rect class="cls-44" x="79.97" y="446.12" width=".54" height=".07"/>
            <rect class="cls-41" x="79.97" y="446.19" width=".54" height=".07"/>
            <rect class="cls-41" x="79.97" y="446.26" width=".54" height=".05"/>
          </g>
          <path class="cls-42" d="M80.45,446.14c.06-.12.01-.26-.1-.32-.12-.06-.26-.01-.32.1-.06.12-.01.26.1.32.12.06.26.01.32-.1Z"/>
        </g>
      </g>
      <g>
        <path class="cls-29" d="M86.3,460.58s0,0,0,0c-2.37-.24-4.54-1.23-6.09-2.79-1.63-1.62-2.49-3.71-2.49-6.03,0-3.48,1.42-5.95,1.85-6.63.02-.02.05-.03.07-.02.02.02.03.05.02.07-.43.67-1.84,3.12-1.84,6.57,0,2.29.85,4.35,2.46,5.95,1.54,1.54,3.68,2.52,6.03,2.76.03,0,.05.03.05.06,0,.03-.03.05-.05.05Z"/>
        <g>
          <g class="cls-61">
            <rect class="cls-31" x="79.34" y="444.9" width=".54" height=".02"/>
            <rect class="cls-31" x="79.34" y="444.92" width=".54" height=".07"/>
            <rect class="cls-31" x="79.34" y="444.99" width=".54" height=".07"/>
            <rect class="cls-45" x="79.34" y="445.07" width=".54" height=".07"/>
            <rect class="cls-45" x="79.34" y="445.14" width=".54" height=".07"/>
            <rect class="cls-45" x="79.34" y="445.22" width=".54" height=".07"/>
            <rect class="cls-44" x="79.34" y="445.29" width=".54" height=".07"/>
            <rect class="cls-41" x="79.34" y="445.36" width=".54" height=".07"/>
            <rect class="cls-41" x="79.34" y="445.44" width=".54" height="0"/>
          </g>
          <path class="cls-42" d="M79.81,445.3c.07-.11.04-.26-.07-.33s-.26-.04-.33.07c-.07.11-.04.26.07.33s.26.04.33-.07Z"/>
        </g>
      </g>
    </g>
    <path class="cls-7" d="M86.3,464.19s-.06-.02-.06-.05v-24.98s.02-.05.05-.05.06.02.06.05v24.98s-.02.05-.05.05Z"/>
    <text class="cls-4" transform="translate(77.95 438.05)"><tspan class="cls-90" x="0" y="0">Ri</tspan><tspan class="cls-86" x="2.16" y="0">t</tspan><tspan class="cls-90" x="3.24" y="0">ual</tspan></text>
    <text class="cls-4" transform="translate(88.85 438.05)"><tspan class="cls-82" x="0" y="0">K</tspan><tspan class="cls-90" x="1.62" y="0">a</tspan><tspan class="cls-85" x="2.91" y="0">r</tspan><tspan class="cls-86" x="3.8" y="0">t</tspan><tspan class="cls-88" x="4.88" y="0">e</tspan></text>
  </g>
  <g>
    <text class="cls-1" transform="translate(160.86 298.52) rotate(-90)"><tspan class="cls-89" x="0" y="0">Spiel </tspan><tspan class="cls-87" x="9.3" y="0">A</tspan><tspan class="cls-89" x="11.89" y="0">nlei</tspan><tspan class="cls-91" x="17.92" y="0">t</tspan><tspan class="cls-89" x="19.6" y="0">u</tspan><tspan class="cls-83" x="21.7" y="0">n</tspan><tspan class="cls-89" x="23.85" y="0">g</tspan></text>
    <rect class="cls-6" x="137.45" y="235.26" width="46.82" height="99.54" transform="translate(-124.17 445.89) rotate(-90)"/>
    <path class="cls-6" d="M187.57,281.47c10.12,0,18.33,12.07,18.33,26.97h-91.22c0-14.89,8.21-26.97,18.33-26.97,7.47,0,12.62,5.69,16.75,14.85,9.52,20.26,19.71,3.28,20.9.52,4.47-9.12,9.3-15.37,16.9-15.37Z"/>
  </g>
  <g>
    <g id="ARC">
      <path class="cls-49" d="M22.28,177.74c.34,0,.62-.28.62-.62"/>
    </g>
    <g id="LINE">
      <line class="cls-49" x1="21.3" y1="177.74" x2="22.28" y2="177.74"/>
    </g>
    <g id="ARC-2" data-name="ARC">
      <path class="cls-49" d="M20.68,177.12c0,.34.28.62.62.62"/>
    </g>
    <g id="LINE-2" data-name="LINE">
      <line class="cls-49" x1="20.68" y1="177.12" x2="20.68" y2="170.23"/>
    </g>
    <g id="LINE-3" data-name="LINE">
      <line class="cls-49" x1="22.9" y1="177.12" x2="22.9" y2="170.23"/>
    </g>
    <g id="LINE-4" data-name="LINE">
      <line class="cls-49" x1="19.53" y1="172.51" x2="18.96" y2="186.99"/>
    </g>
    <g id="LINE-5" data-name="LINE">
      <line class="cls-49" x1="18.38" y1="171.38" x2="19.53" y2="172.51"/>
    </g>
    <g id="LINE-6" data-name="LINE">
      <line class="cls-49" x1="19.53" y1="170.23" x2="18.38" y2="171.38"/>
    </g>
    <g id="LINE-7" data-name="LINE">
      <line class="cls-49" x1="20.68" y1="170.23" x2="19.53" y2="170.23"/>
    </g>
    <g id="LINE-8" data-name="LINE">
      <line class="cls-49" x1="24.62" y1="186.99" x2="18.96" y2="186.99"/>
    </g>
    <g id="LINE-9" data-name="LINE">
      <line class="cls-49" x1="24.05" y1="172.51" x2="24.62" y2="186.99"/>
    </g>
    <g id="LINE-10" data-name="LINE">
      <line class="cls-49" x1="25.2" y1="171.38" x2="24.05" y2="172.51"/>
    </g>
    <g id="LINE-11" data-name="LINE">
      <line class="cls-49" x1="24.05" y1="170.23" x2="25.2" y2="171.38"/>
    </g>
    <g id="LINE-12" data-name="LINE">
      <line class="cls-49" x1="22.9" y1="170.23" x2="24.05" y2="170.23"/>
    </g>
    <g id="ARC-3" data-name="ARC">
      <path class="cls-49" d="M36.54,177.12c0,.34.28.62.62.62"/>
    </g>
    <g id="LINE-13" data-name="LINE">
      <line class="cls-49" x1="38.14" y1="177.74" x2="37.16" y2="177.74"/>
    </g>
    <g id="ARC-4" data-name="ARC">
      <path class="cls-49" d="M38.14,177.74c.34,0,.62-.28.62-.62"/>
    </g>
    <g id="LINE-14" data-name="LINE">
      <line class="cls-49" x1="38.76" y1="177.12" x2="38.76" y2="170.23"/>
    </g>
    <g id="LINE-15" data-name="LINE">
      <line class="cls-49" x1="36.54" y1="177.12" x2="36.54" y2="170.23"/>
    </g>
    <g id="LINE-16" data-name="LINE">
      <line class="cls-49" x1="39.91" y1="172.51" x2="40.48" y2="186.99"/>
    </g>
    <g id="LINE-17" data-name="LINE">
      <line class="cls-49" x1="41.06" y1="171.38" x2="39.91" y2="172.51"/>
    </g>
    <g id="LINE-18" data-name="LINE">
      <line class="cls-49" x1="39.91" y1="170.23" x2="41.06" y2="171.38"/>
    </g>
    <g id="LINE-19" data-name="LINE">
      <line class="cls-49" x1="38.76" y1="170.23" x2="39.91" y2="170.23"/>
    </g>
    <g id="LINE-20" data-name="LINE">
      <line class="cls-49" x1="34.82" y1="186.99" x2="40.48" y2="186.99"/>
    </g>
    <g id="LINE-21" data-name="LINE">
      <line class="cls-49" x1="36.54" y1="170.23" x2="35.39" y2="170.23"/>
    </g>
    <g id="LINE-22" data-name="LINE">
      <line class="cls-49" x1="35.39" y1="170.23" x2="34.24" y2="171.38"/>
    </g>
    <g id="LINE-23" data-name="LINE">
      <line class="cls-49" x1="34.24" y1="171.38" x2="35.39" y2="172.51"/>
    </g>
    <g id="LINE-24" data-name="LINE">
      <line class="cls-49" x1="35.39" y1="172.51" x2="34.82" y2="186.99"/>
    </g>
    <g id="LINE-25" data-name="LINE">
      <line class="cls-49" x1="38.14" y1="169.03" x2="21.3" y2="169.03"/>
    </g>
    <g id="LINE-26" data-name="LINE">
      <line class="cls-49" x1="24.62" y1="186.99" x2="34.82" y2="186.99"/>
    </g>
    <g id="LINE-27" data-name="LINE">
      <line class="cls-48" x1="37.08" y1="177.74" x2="37.16" y2="177.74"/>
    </g>
    <g id="LINE-28" data-name="LINE">
      <line class="cls-48" x1="22.36" y1="177.74" x2="22.28" y2="177.74"/>
    </g>
  </g>
  <g>
    <g id="LINE-29" data-name="LINE">
      <path class="cls-6" d="M211.59,78.3l.99-1.04c.2-.21.27-.48.15-.59l-1.3-1.23c-.12-.11-.38-.03-.58.18l-.99,1.04"/>
      <path class="cls-6" d="M205.58,72.59l.99-1.04c.2-.21.27-.48.15-.59l-1.3-1.23c-.12-.11-.38-.03-.58.18l-.99,1.04"/>
    </g>
    <g id="ARC-5" data-name="ARC">
      <path class="cls-6" d="M187.01,87.99c-.36-1.79-.93-3.54-1.7-5.2"/>
    </g>
    <g id="ARC-6" data-name="ARC">
      <path class="cls-6" d="M185.31,82.8c-.77-1.65-1.84-3.14-3.16-4.4l.82-.86,13.21-13.89,18.86,17.94.86.82c-1.02,1.08-1.93,2.24-2.72,3.49-.93,1.45-1.67,3.02-2.21,4.66-.61,1.89-.89,3.87-.82,5.85.05,9.08.17,18.16.38,27.24.22,8.64.05,17.28-.51,25.91-.3,4.34-1.07,8.64-2.28,12.82-1.69,6.1-4.12,11.98-7.22,17.5-1.44,2.55-3.03,5.02-4.76,7.4l-.96-.7-16.22-11.85-.96-.7c3.86-5.29,6.73-11.23,8.49-17.53.88-2.89,1.4-5.87,1.57-8.89.45-6.93.65-13.88.6-20.82-.02-9.22-.16-18.44-.41-27.65-.04-1.89-.1-3.77-.17-5.65-.1-1.84-.33-3.66-.68-5.47"/>
    </g>
    <g id="ARC-7" data-name="ARC">
      <path class="cls-6" d="M186.17,74l-.84-.8c-.21-.2-.28-.45-.17-.57l1.23-1.3c.11-.12.37-.06.58.14l.84.8"/>
      <path class="cls-6" d="M191.88,68l-.84-.8c-.21-.2-.28-.45-.17-.57l1.23-1.3c.11-.12.37-.06.58.14l.84.8"/>
    </g>
    <path class="cls-6" d="M184.34,76.18c1.6,1.53,2.89,3.33,3.83,5.34.87,1.88,1.52,3.86,1.93,5.9l.02.15.72,5.79c.08,1.91.14,3.82.17,5.7.25,9.22.39,18.54.41,27.72.05,6.98-.15,14.05-.6,21-.18,3.27-.74,6.48-1.67,9.54-1.88,6.72-4.9,12.95-8.98,18.56"/>
    <path class="cls-6" d="M193.28,185.46c1.65-2.27,3.18-4.65,4.56-7.09,2.98-5.3,5.32-10.97,6.95-16.85,1.14-3.94,1.87-8.03,2.16-12.13.55-8.5.72-17.13.51-25.65-.2-9.06-.33-18.2-.38-27.16-.08-2.4.25-4.72.97-6.96.61-1.88,1.47-3.68,2.54-5.36.9-1.41,1.94-2.75,3.09-3.96"/>
  </g>
  <g>
    <g id="LINE-30" data-name="LINE">
      <path class="cls-6" d="M83.87,184.32l-.45,1.25c-.09.25-.05.5.09.55l1.55.55c.14.05.33-.11.42-.37l.45-1.25"/>
      <path class="cls-6" d="M76.7,181.75l-.45,1.25c-.09.25-.05.5.09.55l1.55.55c.14.05.33-.11.42-.37l.45-1.25"/>
    </g>
    <g id="ARC-8" data-name="ARC">
      <path class="cls-6" d="M27.38,113.88c5.38,1.16,10.71,2.78,15.83,4.84,5.21,2.07,10.16,4.79,14.71,8.06,3.64,2.63,6.98,5.68,9.94,9.05,3.05,3.4,5.49,7.3,7.22,11.55,1.71,4.34,2.61,8.89,2.68,13.53.07,4.57-.4,9.14-1.41,13.59-.48,2.19-1.1,4.38-1.86,6.49"/>
    </g>
    <g id="ARC-9" data-name="ARC">
      <path class="cls-6" d="M82.75,125.83c4.21,5.05,7.49,10.82,9.67,17.02,1.97,5.67,3.02,11.61,3.13,17.61.1,5.95-.51,11.9-1.81,17.71-.65,2.99-1.49,5.94-2.52,8.83,0,0-1.03-.37-1.03-.37l-17.35-6.22-1.03-.37c.72-2.01,1.3-4.07,1.76-6.16.96-4.24,1.41-8.57,1.34-12.92-.06-4.28-.9-8.52-2.47-12.5-1.6-3.94-3.88-7.57-6.72-10.74-2.82-3.22-5.99-6.11-9.46-8.62-4.37-3.14-9.1-5.74-14.1-7.73-4.98-2-10.12-3.57-15.37-4.7,0,0,.23-1.07.23-1.07l3.95-18.13.23-1.07c6.65,1.43,13.17,3.46,19.47,6.04,6.36,2.6,12.39,5.96,17.95,10,5.27,3.83,10.03,8.33,14.14,13.38Z"/>
    </g>
    <g id="ARC-10" data-name="ARC">
      <path class="cls-6" d="M88.52,186.03c.99-2.76,1.8-5.6,2.42-8.47,1.26-5.59,1.84-11.32,1.75-17.05-.1-5.7-1.1-11.33-2.97-16.72-2.08-5.89-5.17-11.32-9.17-16.13-3.97-4.88-8.55-9.21-13.62-12.89-5.37-3.9-11.21-7.15-17.35-9.67-6.13-2.52-12.52-4.5-18.99-5.89"/>
    </g>
  </g>
  <g>
    <path class="cls-6" d="M157.16,336.69s-.05.03-.06.04c-1.77.85-3.88.12-4.74-1.65-.85-1.76-.12-3.88,1.65-4.73,1.04-.5,2.19-.46,3.14.04-.4.2-.74.46-1.01.77"/>
    <path class="cls-6" d="M157.15,331.67c.15-.14.33-.25.53-.35.16-.07.32-.14.5-.17"/>
    <path class="cls-43" d="M153.34,334.61c-.59-1.22-.08-2.69,1.13-3.29.54-.26,1.13-.31,1.67-.17"/>
    <path class="cls-6" d="M160.51,336.6c-.07.05-.14.09-.22.13-1.04.5-2.2.45-3.14-.04-.68-.33-1.24-.88-1.59-1.61-.65-1.33-.38-2.89.58-3.93"/>
    <path class="cls-6" d="M160.53,330.47h0c-.98-.58-2.22-.67-3.31-.13-.02,0-.05.02-.06.04"/>
    <path class="cls-6" d="M157.15,331.67c.15-.14.33-.25.53-.35.16-.07.32-.14.5-.17"/>
    <path class="cls-43" d="M156.54,334.61c-.5-1.03-.22-2.22.6-2.94.15-.14.33-.25.53-.35.16-.07.32-.14.5-.17.48-.12.97-.09,1.42.08h0"/>
    <circle class="cls-6" cx="162.29" cy="333.53" r="3.54"/>
    <path class="cls-43" d="M160.08,334.6c-.59-1.22-.08-2.69,1.14-3.28s2.69-.08,3.28,1.14"/>
  </g>
  <g>
    <path class="cls-6" d="M157.16,327.76s-.05.03-.06.04c-1.77.85-3.88.12-4.74-1.65-.85-1.76-.12-3.88,1.65-4.73,1.04-.5,2.19-.46,3.14.04-.4.2-.74.46-1.01.77"/>
    <path class="cls-6" d="M157.15,322.75c.15-.14.33-.25.53-.35.16-.07.32-.14.5-.17"/>
    <path class="cls-43" d="M153.34,325.68c-.59-1.22-.08-2.69,1.13-3.29.54-.26,1.13-.31,1.67-.17"/>
    <path class="cls-6" d="M160.51,327.67c-.07.05-.14.09-.22.13-1.04.5-2.2.45-3.14-.04-.68-.33-1.24-.88-1.59-1.61-.65-1.33-.38-2.89.58-3.93"/>
    <path class="cls-6" d="M160.53,321.55h0c-.98-.58-2.22-.67-3.31-.13-.02,0-.05.02-.06.04"/>
    <path class="cls-6" d="M157.15,322.75c.15-.14.33-.25.53-.35.16-.07.32-.14.5-.17"/>
    <path class="cls-43" d="M156.54,325.68c-.5-1.03-.22-2.22.6-2.94.15-.14.33-.25.53-.35.16-.07.32-.14.5-.17.48-.12.97-.09,1.42.08h0"/>
    <circle class="cls-6" cx="162.29" cy="324.61" r="3.54"/>
    <path class="cls-43" d="M160.08,325.68c-.59-1.22-.08-2.69,1.14-3.28s2.69-.08,3.28,1.14"/>
  </g>
  <g>
    <rect class="cls-6" x="65.31" y="332.47" width="16.02" height="4.49" rx=".9" ry=".9"/>
    <rect class="cls-6" x="65.31" y="276.72" width="16.02" height="4.49" rx=".9" ry=".9"/>
    <path class="cls-6" d="M78.12,314.85c0-.86-.41-1.65-1.08-2.19-.93-.75-2.13-2.38-2.13-5.83,0-3.45,1.2-5.1,2.13-5.85.67-.54,1.08-1.34,1.08-2.21v-17.58h-9.61v17.63c0,.86.41,1.65,1.08,2.18.93.74,2.13,2.37,2.13,5.82,0,3.45-1.2,5.08-2.13,5.82-.67.53-1.08,1.33-1.08,2.18v17.63h9.61v-17.62Z"/>
    <path class="cls-6" d="M69.73,298.51s3.18,5.6,7.17,0"/>
    <path class="cls-6" d="M76.9,315.11s-3.18-5.6-7.17,0"/>
  </g>
  <g>
    <rect class="cls-6" x="111.1" y="326.57" width="10.39" height="10.39" rx=".65" ry=".65"/>
    <circle class="cls-6" cx="116.29" cy="331.76" r="4.32"/>
    <path class="cls-50" d="M114.75,331.74c0-1.29.64-2.09,1.72-2.09.72,0,1.13.39,1.13.86,0,.33-.21.64-.59.73.38.24.57.61.57,1.03,0,.75-.59,1.3-1.41,1.3-.91,0-1.43-.67-1.43-1.83ZM116.26,330.97h.2c.42,0,.59-.15.59-.38s-.18-.42-.61-.42c-.7,0-1.08.46-1.14,1.28.19-.3.54-.48.96-.48ZM116.18,333.05c.5,0,.83-.32.83-.79s-.34-.81-.84-.81-.8.3-.8.78.33.83.82.83Z"/>
  </g>
  <g>
    <rect class="cls-6" x="197.78" y="325.34" width="8.83" height="11.77" rx="1.32" ry="1.32"/>
    <rect class="cls-6" x="199.25" y="324.52" width="5.89" height=".83"/>
  </g>
  <g>
    <rect class="cls-6" x="26.1" y="262.56" width="7.79" height="72.27"/>
    <rect class="cls-6" x="24.33" y="260.44" width="11.34" height="76.52"/>
  </g>
  <g id="LWPOLYLINE">
    <rect class="cls-6" x="118.82" y="70.38" width="50.21" height="116.61"/>
  </g>
  <g id="CIRCLE">
    <circle class="cls-49" cx="164.51" cy="170.03" r="1.04"/>
  </g>
  <g id="CIRCLE-2" data-name="CIRCLE">
    <circle class="cls-49" cx="164.51" cy="88.37" r="1.04"/>
  </g>
  <g id="CIRCLE-3" data-name="CIRCLE">
    <circle class="cls-49" cx="126.08" cy="129" r="1.04"/>
  </g>
  <g id="CIRCLE-4" data-name="CIRCLE">
    <circle class="cls-49" cx="131.96" cy="129" r="1.04"/>
  </g>
</svg>