<?xml version="1.0" encoding="UTF-8"?>
<svg id="Ebene_1" data-name="Ebene 1" xmlns="http://www.w3.org/2000/svg" viewBox="0 0 111.78 39.37">
  <defs>
    <style>
      .cls-1 {
        stroke-dasharray: 1.42 .71;
      }

      .cls-1, .cls-2, .cls-3, .cls-4 {
        fill: none;
        stroke: #39396a;
        stroke-linecap: round;
        stroke-linejoin: round;
      }

      .cls-1, .cls-3, .cls-4 {
        stroke-width: .5px;
      }

      .cls-2 {
        stroke-dasharray: .5 1;
        stroke-width: .25px;
      }

      .cls-4 {
        opacity: .5;
      }
    </style>
  </defs>
  <g id="LWPOLYLINE">
    <path class="cls-4" d="M98.92,44.34c-.04-.47-.17-1.98-1.01-3.33-.57-.91-1.15-1.83-1.88-2.62-.69-.75-1.44-1.45-2.23-2.1-.77-.61-1.53-1.21-2.3-1.79-3.65-2.83-7.41-5.67-11.15-8.42-2.82-2.09-5.77-4.12-8.76-6.02-1.4-.91-2.91-1.65-4.48-2.2-2.89-1.08-7.29-1.67-10.38-1.81v-7.43c.98.04,3.31.11,4.27.22,3.01.36,5.97,1.09,8.81,2.16,1.94.71,3.8,1.62,5.54,2.71,3.6,2.29,7.15,4.78,10.54,7.4,3.58,2.75,7.28,5.53,10.99,8.28.94.73,2.02,1.31,3.19,1.7.98.32,2.01.5,3.04.58.72.06,2.19-.1,2.63-.18l1.53,11.78-8.33,1.08Z"/>
  </g>
  <g id="LWPOLYLINE-2" data-name="LWPOLYLINE">
    <path class="cls-3" d="M54.79,17.9V6.57c-1.68,0-3.37.11-5.04.33-3.25.4-6.43,1.19-9.49,2.34-3.08,1.16-5.96,2.81-8.53,4.88-2.8,2.28-5.18,5.04-7.01,8.15-1.85,3.06-3.3,6.35-4.3,9.79-1.06,3.62-1.68,7.36-1.85,11.13-.17,3.75-.01,7.5.48,11.22l11.3-1.46c-.39-2.93-.53-5.89-.42-8.85.1-2.95.57-5.88,1.39-8.72.66-2.26,1.56-4.43,2.71-6.49,1.11-2.05,2.57-3.9,4.31-5.46,1.77-1.55,3.8-2.77,6.01-3.59,2.23-.84,4.56-1.41,6.93-1.7,1.17-.15,2.35-.23,3.53-.23Z"/>
    <path class="cls-4" d="M20.86,54.16c-.31-3.02-.63-7.87-.49-10.9.16-3.62.76-7.22,1.78-10.7.96-3.28,2.34-6.43,4.11-9.36,1.74-2.95,3.96-5.53,6.6-7.68,2.41-1.94,5.11-3.49,8.02-4.59,2.85-1.07,5.82-1.81,8.83-2.2l.24-.03c1.01-.13,3.83-.26,4.83-.31v7.7c-.66.04-3.13.15-3.77.23l-.24.03c-2.42.31-4.81.91-7.09,1.77-2.42.9-4.63,2.23-6.57,3.93-1.91,1.72-3.49,3.72-4.71,5.96-1.2,2.15-2.16,4.46-2.85,6.85-.86,2.98-1.35,6.07-1.46,9.17-.09,2.44.23,6.7.47,9.14l-7.71,1Z"/>
  </g>
  <g id="LWPOLYLINE-3" data-name="LWPOLYLINE">
    <path class="cls-3" d="M97.04,44.58c-.12-.92-.41-1.81-.85-2.63-.45-.81-.99-1.56-1.61-2.24-.63-.68-1.3-1.32-2.02-1.91-.74-.59-1.49-1.18-2.25-1.75-3.67-2.85-7.38-5.64-11.13-8.4-2.81-2.09-5.7-4.07-8.65-5.95-1.28-.83-2.65-1.5-4.08-2.01-3.11-1.17-6.41-1.77-9.73-1.76l.02-11.33c1.5,0,2.99.09,4.48.27,3.17.38,6.28,1.14,9.27,2.27,2.06.75,4.04,1.72,5.89,2.89,3.68,2.34,7.24,4.84,10.69,7.5,3.63,2.78,7.29,5.54,10.97,8.26.79.62,1.67,1.09,2.62,1.41.83.27,1.68.43,2.55.49.76.05,1.51.02,2.26-.07l1.77,13.64-10.21,1.32Z"/>
  </g>
  <g>
    <g id="ARC">
      <path class="cls-3" d="M50.95,32.16c.21,0,.38-.17.38-.38"/>
    </g>
    <g id="LINE">
      <line class="cls-3" x1="50.35" y1="32.16" x2="50.95" y2="32.16"/>
    </g>
    <g id="ARC-2" data-name="ARC">
      <path class="cls-3" d="M49.97,31.77c0,.21.17.38.38.38"/>
    </g>
    <g id="LINE-2" data-name="LINE">
      <line class="cls-3" x1="49.97" y1="31.77" x2="49.97" y2="27.53"/>
    </g>
    <g id="LINE-3" data-name="LINE">
      <line class="cls-3" x1="51.34" y1="31.77" x2="51.34" y2="27.53"/>
    </g>
    <g id="LINE-4" data-name="LINE">
      <line class="cls-3" x1="49.26" y1="28.93" x2="48.91" y2="37.86"/>
    </g>
    <g id="LINE-5" data-name="LINE">
      <line class="cls-3" x1="48.55" y1="28.24" x2="49.26" y2="28.93"/>
    </g>
    <g id="LINE-6" data-name="LINE">
      <line class="cls-3" x1="49.26" y1="27.53" x2="48.55" y2="28.24"/>
    </g>
    <g id="LINE-7" data-name="LINE">
      <line class="cls-3" x1="49.97" y1="27.53" x2="49.26" y2="27.53"/>
    </g>
    <g id="LINE-8" data-name="LINE">
      <line class="cls-3" x1="52.4" y1="37.86" x2="48.91" y2="37.86"/>
    </g>
    <g id="LINE-9" data-name="LINE">
      <line class="cls-3" x1="52.05" y1="28.93" x2="52.4" y2="37.86"/>
    </g>
    <g id="LINE-10" data-name="LINE">
      <line class="cls-3" x1="52.75" y1="28.24" x2="52.05" y2="28.93"/>
    </g>
    <g id="LINE-11" data-name="LINE">
      <line class="cls-3" x1="52.05" y1="27.53" x2="52.75" y2="28.24"/>
    </g>
    <g id="LINE-12" data-name="LINE">
      <line class="cls-3" x1="51.34" y1="27.53" x2="52.05" y2="27.53"/>
    </g>
    <g id="ARC-3" data-name="ARC">
      <path class="cls-3" d="M59.74,31.77c0,.21.17.38.38.38"/>
    </g>
    <g id="LINE-13" data-name="LINE">
      <line class="cls-3" x1="60.72" y1="32.16" x2="60.12" y2="32.16"/>
    </g>
    <g id="ARC-4" data-name="ARC">
      <path class="cls-3" d="M60.72,32.16c.21,0,.38-.17.38-.38"/>
    </g>
    <g id="LINE-14" data-name="LINE">
      <line class="cls-3" x1="61.1" y1="31.77" x2="61.1" y2="27.53"/>
    </g>
    <g id="LINE-15" data-name="LINE">
      <line class="cls-3" x1="59.74" y1="31.77" x2="59.74" y2="27.53"/>
    </g>
    <g id="LINE-16" data-name="LINE">
      <line class="cls-3" x1="61.81" y1="28.93" x2="62.16" y2="37.86"/>
    </g>
    <g id="LINE-17" data-name="LINE">
      <line class="cls-3" x1="62.52" y1="28.24" x2="61.81" y2="28.93"/>
    </g>
    <g id="LINE-18" data-name="LINE">
      <line class="cls-3" x1="61.81" y1="27.53" x2="62.52" y2="28.24"/>
    </g>
    <g id="LINE-19" data-name="LINE">
      <line class="cls-3" x1="61.1" y1="27.53" x2="61.81" y2="27.53"/>
    </g>
    <g id="LINE-20" data-name="LINE">
      <line class="cls-3" x1="58.68" y1="37.86" x2="62.16" y2="37.86"/>
    </g>
    <g id="LINE-21" data-name="LINE">
      <line class="cls-3" x1="59.74" y1="27.53" x2="59.03" y2="27.53"/>
    </g>
    <g id="LINE-22" data-name="LINE">
      <line class="cls-3" x1="59.03" y1="27.53" x2="58.32" y2="28.24"/>
    </g>
    <g id="LINE-23" data-name="LINE">
      <line class="cls-3" x1="58.32" y1="28.24" x2="59.03" y2="28.93"/>
    </g>
    <g id="LINE-24" data-name="LINE">
      <line class="cls-3" x1="59.03" y1="28.93" x2="58.68" y2="37.86"/>
    </g>
    <g id="LINE-25" data-name="LINE">
      <line class="cls-3" x1="60.72" y1="26.79" x2="50.35" y2="26.79"/>
    </g>
    <g id="LINE-26" data-name="LINE">
      <line class="cls-3" x1="52.4" y1="37.86" x2="58.68" y2="37.86"/>
    </g>
    <g id="LINE-27" data-name="LINE">
      <line class="cls-1" x1="60.07" y1="32.16" x2="60.12" y2="32.16"/>
    </g>
    <g id="LINE-28" data-name="LINE">
      <line class="cls-1" x1="51" y1="32.16" x2="50.95" y2="32.16"/>
    </g>
  </g>
  <line class="cls-2" x1="48.55" y1="25.81" x2="48.55" y2="9.54"/>
  <line class="cls-2" x1="62.52" y1="25.81" x2="62.52" y2="9.54"/>
  <line class="cls-3" x1="55.65" y1="28.24" x2="55.64" y2="20.61"/>
  <polyline class="cls-3" points="54.18 23.01 55.63 20.52 57.11 22.99"/>
  <line class="cls-3" x1="48.39" y1="2.52" x2="54.63" y2="2.52"/>
  <polyline class="cls-3" points="52.23 1.06 54.72 2.51 52.25 3.98"/>
  <line class="cls-3" x1="61.65" y1="2.51" x2="56.67" y2="2.52"/>
  <polyline class="cls-3" points="59.07 3.98 56.58 2.53 59.06 1.05"/>
</svg>