<?xml version="1.0" encoding="UTF-8"?>
<svg id="Ebene_1" data-name="Ebene 1" xmlns="http://www.w3.org/2000/svg" viewBox="0 0 45.64 39.37">
  <defs>
    <style>
      .cls-1, .cls-2 {
        fill: none;
        stroke: #39396a;
        stroke-linecap: round;
        stroke-linejoin: round;
        stroke-width: .5px;
      }

      .cls-2 {
        opacity: .5;
      }
    </style>
  </defs>
  <g id="LWPOLYLINE">
    <rect class="cls-1" x="3.94" y="10.66" width="7.77" height="18.04"/>
  </g>
  <g id="LWPOLYLINE-2" data-name="LWPOLYLINE">
    <rect class="cls-1" x="13.94" y="10.66" width="7.77" height="18.04"/>
  </g>
  <g id="LWPOLYLINE-3" data-name="LWPOLYLINE">
    <rect class="cls-1" x="23.93" y="10.66" width="7.77" height="18.04"/>
  </g>
  <g id="LWPOLYLINE-4" data-name="LWPOLYLINE">
    <rect class="cls-1" x="33.93" y="10.66" width="7.77" height="18.04"/>
  </g>
  <g id="LWPOLYLINE-5" data-name="LWPOLYLINE">
    <path class="cls-1" d="M21.72-29.09v-11.33c-1.68,0-3.37.11-5.04.33-3.25.4-6.43,1.19-9.49,2.34-3.08,1.16-5.96,2.81-8.53,4.88-2.8,2.28-5.18,5.04-7.01,8.15-1.85,3.06-3.3,6.35-4.3,9.79-1.06,3.62-1.68,7.36-1.85,11.13-.17,3.75-.01,7.5.48,11.22l11.3-1.46C-3.12,3.01-3.26.05-3.15-2.9c.1-2.95.57-5.88,1.39-8.72.66-2.26,1.56-4.43,2.71-6.49,1.11-2.05,2.57-3.9,4.31-5.46,1.77-1.55,3.8-2.77,6.01-3.59,2.23-.84,4.56-1.41,6.93-1.7,1.17-.15,2.35-.23,3.53-.23Z"/>
    <path class="cls-2" d="M-12.2,7.17c-.31-3.02-.63-7.87-.49-10.9.16-3.62.76-7.22,1.78-10.7.96-3.28,2.34-6.43,4.11-9.36,1.74-2.95,3.96-5.53,6.6-7.68,2.41-1.94,5.11-3.49,8.02-4.59,2.85-1.07,5.82-1.81,8.83-2.2l.24-.03c1.01-.13,3.83-.26,4.83-.31v7.7c-.66.04-3.13.15-3.77.23l-.24.03c-2.42.31-4.81.91-7.09,1.77-2.42.9-4.63,2.23-6.57,3.93-1.91,1.72-3.49,3.72-4.71,5.96-1.2,2.15-2.16,4.46-2.85,6.85-.86,2.98-1.35,6.07-1.46,9.17-.09,2.44.23,6.7.47,9.14l-7.71,1Z"/>
  </g>
  <line class="cls-1" x1="6.05" y1="19.68" x2="10.61" y2="19.68"/>
  <polyline class="cls-1" points="8.2 18.22 10.7 19.67 8.22 21.15"/>
  <line class="cls-1" x1="35.1" y1="19.68" x2="39.38" y2="19.68"/>
  <polyline class="cls-1" points="37.59 21.14 35.1 19.69 37.57 18.22"/>
  <line class="cls-1" x1="25.79" y1="19.68" x2="30.34" y2="19.67"/>
  <polyline class="cls-1" points="27.94 18.21 30.43 19.66 27.96 21.14"/>
  <line class="cls-1" x1="15.04" y1="19.68" x2="19.33" y2="19.68"/>
  <polyline class="cls-1" points="17.54 21.15 15.04 19.7 17.52 18.22"/>
</svg>