<?xml version="1.0" encoding="UTF-8"?>
<svg id="Ebene_1" data-name="Ebene 1" xmlns="http://www.w3.org/2000/svg" viewBox="0 0 71.8 43.76">
  <defs>
    <style>
      .cls-1 {
        stroke-miterlimit: 10;
      }

      .cls-1, .cls-2, .cls-3, .cls-4, .cls-5, .cls-6 {
        fill: none;
      }

      .cls-1, .cls-3, .cls-4, .cls-5, .cls-6 {
        stroke-width: .5px;
      }

      .cls-1, .cls-5 {
        stroke: #38386a;
      }

      .cls-7 {
        letter-spacing: .02em;
      }

      .cls-7, .cls-8, .cls-9, .cls-10, .cls-11, .cls-12 {
        fill: #38386a;
      }

      .cls-7, .cls-12 {
        font-family: F37Oracle-Medium, 'F37 Oracle';
        font-size: 2.36px;
        font-weight: 500;
      }

      .cls-2 {
        stroke-dasharray: .48 .95;
        stroke-width: .25px;
      }

      .cls-2, .cls-3, .cls-4, .cls-5, .cls-6 {
        stroke-linecap: round;
        stroke-linejoin: round;
      }

      .cls-2, .cls-3, .cls-4, .cls-6 {
        stroke: #39396a;
      }

      .cls-8 {
        font-size: 1.06px;
      }

      .cls-8, .cls-9 {
        font-family: F37Oracle-SemiBold, 'F37 Oracle';
        font-weight: 600;
      }

      .cls-9 {
        font-size: 1.06px;
      }

      .cls-3 {
        stroke-dasharray: .5 1;
      }

      .cls-4 {
        stroke-dasharray: .46 .93;
      }

      .cls-10 {
        font-size: 2.95px;
      }

      .cls-10, .cls-11 {
        font-family: FHOscarPro-Regular, 'FH Oscar Pro';
      }

      .cls-11 {
        font-size: 2.95px;
      }

      .cls-13 {
        letter-spacing: -.06em;
      }

      .cls-14 {
        letter-spacing: -.06em;
      }

      .cls-15 {
        letter-spacing: .02em;
      }

      .cls-16 {
        letter-spacing: .02em;
      }

      .cls-17 {
        letter-spacing: .03em;
      }

      .cls-18 {
        letter-spacing: .03em;
      }
    </style>
  </defs>
  <line class="cls-5" x1="16.62" y1="32.06" x2="23.96" y2="38.9"/>
  <line class="cls-5" x1="16.61" y1="12.22" x2="23.94" y2="5.37"/>
  <line class="cls-5" x1="46.54" y1="38.91" x2="53.88" y2="32.06"/>
  <line class="cls-5" x1="53.89" y1="12.22" x2="46.56" y2="5.36"/>
  <g>
    <line class="cls-6" x1="40.47" y1="22.15" x2="40.72" y2="22.15"/>
    <line class="cls-4" x1="41.64" y1="22.15" x2="49.51" y2="22.15"/>
    <line class="cls-6" x1="49.98" y1="22.15" x2="50.23" y2="22.15"/>
  </g>
  <line class="cls-5" x1="14.78" y1="-4.02" x2="7.67" y2="3.02"/>
  <line class="cls-5" x1="55.71" y1="-4.02" x2="62.83" y2="3.03"/>
  <line class="cls-5" x1="14.78" y1="48.31" x2="7.67" y2="41.27"/>
  <line class="cls-5" x1="55.71" y1="48.32" x2="62.83" y2="41.27"/>
  <circle class="cls-2" cx="32.32" cy="30.98" r="2.51"/>
  <circle class="cls-2" cx="38.25" cy="30.98" r="2.51"/>
  <circle class="cls-2" cx="32.28" cy="13.14" r="2.51"/>
  <circle class="cls-2" cx="38.22" cy="13.14" r="2.51"/>
  <path class="cls-2" d="M35.17,22.95c1.39,0,2.51,1.12,2.51,2.51s-1.12,2.51-2.51,2.51-2.51-1.12-2.51-2.51,1.12-2.51,2.51-2.51Z"/>
  <path class="cls-2" d="M35.32,16.18c1.39,0,2.51,1.12,2.51,2.51s-1.12,2.51-2.51,2.51-2.51-1.12-2.51-2.51,1.12-2.51,2.51-2.51Z"/>
  <path class="cls-1" d="M50.34,127.78h0c1.86-.38,3.66-.84,5.4-1.38,6.17-1.89,11.79-4.76,16.69-8.53,4.91-3.77,8.64-8.41,11.09-13.79,2.45-5.38,3.7-11.64,3.7-18.62,0-8.55-2.27-16.71-6.76-24.25-1.54-2.58-4.39-6-8.29-10.22-3.37-3.65-7.52-7.9-12.26-12.73-2.52-2.56-4.69-4.77-6.02-6.2-2.24-2.4-3.58-6.11-3.58-9.91s1.34-7.52,3.59-9.93c1.24-1.32,3.31-3.43,5.7-5.86,4.77-4.85,9.07-9.25,12.57-13.05,3.87-4.2,6.77-7.67,8.29-10.22,4.48-7.54,6.76-15.7,6.76-24.25,0-6.98-1.24-13.24-3.7-18.62-2.45-5.38-6.18-10.02-11.09-13.79-2.21-1.7-4.57-3.22-7.07-4.55-3.02-1.61-6.24-2.95-9.62-3.98-1.74-.53-3.55-.99-5.4-1.38-4.71-.98-9.76-1.47-15.09-1.47h0c-5.33,0-10.38.49-15.09,1.47-1.85.38-3.65.84-5.39,1.37-3.39,1.04-6.6,2.37-9.63,3.98-2.49,1.33-4.85,2.84-7.06,4.55-4.91,3.78-8.64,8.42-11.09,13.79-2.45,5.38-3.7,11.64-3.7,18.62,0,8.55,2.28,16.71,6.76,24.25,1.52,2.55,4.42,6.02,8.29,10.22C1.82-2.9,6.11,1.49,10.87,6.33c2.41,2.45,4.49,4.56,5.73,5.89,2.25,2.41,3.59,6.12,3.59,9.93s-1.34,7.51-3.58,9.91c-1.34,1.43-3.52,3.65-6.04,6.21-4.74,4.81-8.88,9.05-12.25,12.71-3.87,4.2-6.72,7.62-8.28,10.23-4.49,7.55-6.76,15.71-6.76,24.25,0,3.58.33,6.98.98,10.16.62,3.02,1.52,5.84,2.72,8.46,2.45,5.38,6.18,10.02,11.09,13.79,4.91,3.77,10.52,6.64,16.69,8.53,1.74.53,3.54.99,5.39,1.37,4.71.98,9.76,1.47,15.09,1.47h0c5.33,0,10.38-.49,15.09-1.47Z"/>
  <path class="cls-1" d="M23.93,5.37C18.81-.11,2.03-16.38-1.33-22.04c-3.55-5.97-5.35-12.41-5.35-19.12,0-5.53.94-10.39,2.79-14.45,1.77-3.87,4.49-7.24,8.08-10,3.95-3.03,8.49-5.35,13.51-6.89,5.22-1.6,11.12-2.41,17.56-2.41s12.34.81,17.55,2.41c5.01,1.53,9.56,3.85,13.51,6.89,3.59,2.76,6.31,6.13,8.08,10,1.85,4.06,2.79,8.92,2.79,14.45,0,6.72-1.8,13.16-5.35,19.12C68.47-16.38,51.69-.11,46.57,5.37"/>
  <path class="cls-1" d="M23.93,38.87c-5.12,5.48-21.9,21.75-25.27,27.41-3.55,5.97-5.35,12.41-5.35,19.12,0,5.53.94,10.39,2.79,14.45,1.77,3.87,4.49,7.24,8.08,10,3.95,3.03,8.49,5.35,13.51,6.89,5.22,1.6,11.12,2.41,17.56,2.41s12.34-.81,17.55-2.41c5.01-1.53,9.56-3.85,13.51-6.89,3.59-2.76,6.31-6.13,8.08-10,1.85-4.06,2.79-8.92,2.79-14.45,0-6.72-1.8-13.16-5.35-19.12-3.36-5.67-20.14-21.93-25.26-27.41"/>
  <path class="cls-3" d="M30.23,22.15c0-6.38-2.29-12.5-6.3-16.78"/>
  <path class="cls-3" d="M23.95,38.9c3.99-4.28,6.28-10.39,6.28-16.75"/>
  <path class="cls-3" d="M40.27,22.15c0,6.37,2.29,12.48,6.28,16.76"/>
  <path class="cls-3" d="M46.57,5.37c-4,4.28-6.3,10.4-6.3,16.78"/>
  <text class="cls-12" transform="translate(22.5 21.41)"><tspan class="cls-18" x="0" y="0">S</tspan><tspan class="cls-15" x="1.38" y="0">ta</tspan><tspan class="cls-17" x="3.61" y="0">r</tspan><tspan class="cls-16" x="4.45" y="0">t</tspan></text>
  <text class="cls-7" transform="translate(25.72 19.04) rotate(-90)"><tspan x="0" y="0">→</tspan></text>
  <text class="cls-11" transform="translate(47.39 30.77) rotate(-108.65)"><tspan class="cls-13" x="0" y="0">+</tspan><tspan x="1.45" y="0">2</tspan></text>
  <text class="cls-10" transform="translate(46.4 16.51) rotate(-71.09)"><tspan class="cls-14" x="0" y="0">+</tspan><tspan x="1.45" y="0">2</tspan></text>
  <text class="cls-8" transform="translate(5.81 45.08) rotate(133.99)"><tspan x="0" y="0">R</tspan></text>
  <text class="cls-8" transform="translate(5.35 45.56) rotate(133.96)"><tspan x="0" y="0">i</tspan></text>
  <text class="cls-8" transform="translate(5.16 45.75) rotate(133.93)"><tspan x="0" y="0">t</tspan></text>
  <text class="cls-8" transform="translate(4.86 46.07) rotate(133.9)"><tspan x="0" y="0">u</tspan></text>
  <text class="cls-8" transform="translate(4.48 46.46) rotate(133.86)"><tspan x="0" y="0">a</tspan></text>
  <text class="cls-8" transform="translate(4.1 46.86) rotate(133.82)"><tspan x="0" y="0">l</tspan></text>
  <text class="cls-8" transform="translate(3.92 47.04) rotate(133.8)"><tspan x="0" y="0">k</tspan></text>
  <text class="cls-8" transform="translate(3.54 47.44) rotate(133.75)"><tspan x="0" y="0">a</tspan></text>
  <text class="cls-8" transform="translate(3.17 47.82) rotate(133.71)"><tspan x="0" y="0">r</tspan></text>
  <text class="cls-8" transform="translate(2.91 48.1) rotate(133.68)"><tspan x="0" y="0">t</tspan></text>
  <text class="cls-8" transform="translate(2.6 48.42) rotate(133.62)"><tspan x="0" y="0">e</tspan></text>
  <text class="cls-9" transform="translate(68.07 48.59) rotate(-133.3)"><tspan x="0" y="0">R</tspan></text>
  <text class="cls-9" transform="translate(67.63 48.12) rotate(-133.37)"><tspan x="0" y="0">i</tspan></text>
  <text class="cls-9" transform="translate(67.45 47.93) rotate(-133.43)"><tspan x="0" y="0">t</tspan></text>
  <text class="cls-9" transform="translate(67.14 47.61) rotate(-133.5)"><tspan x="0" y="0">u</tspan></text>
  <text class="cls-9" transform="translate(66.75 47.2) rotate(-133.58)"><tspan x="0" y="0">a</tspan></text>
  <text class="cls-9" transform="translate(66.39 46.82) rotate(-133.64)"><tspan x="0" y="0">l</tspan></text>
  <text class="cls-9" transform="translate(66.22 46.64) rotate(-133.7)"><tspan x="0" y="0">k</tspan></text>
  <text class="cls-9" transform="translate(65.83 46.23) rotate(-133.77)"><tspan x="0" y="0">a</tspan></text>
  <text class="cls-9" transform="translate(65.46 45.85) rotate(-133.84)"><tspan x="0" y="0">r</tspan></text>
  <text class="cls-9" transform="translate(65.19 45.57) rotate(-133.9)"><tspan x="0" y="0">t</tspan></text>
  <text class="cls-9" transform="translate(64.88 45.24) rotate(-133.97)"><tspan x="0" y="0">e</tspan></text>
  <line class="cls-1" x1="29.05" y1="22.15" x2="21.27" y2="22.15"/>
  <text class="cls-8" transform="translate(6.15 44.73) rotate(134.02)"><tspan x="0" y="0">R</tspan></text>
  <text class="cls-8" transform="translate(5.7 45.2) rotate(133.99)"><tspan x="0" y="0">i</tspan></text>
  <text class="cls-8" transform="translate(5.52 45.38) rotate(133.97)"><tspan x="0" y="0">t</tspan></text>
  <text class="cls-8" transform="translate(5.2 45.71) rotate(133.93)"><tspan x="0" y="0">u</tspan></text>
  <text class="cls-8" transform="translate(4.82 46.1) rotate(133.89)"><tspan x="0" y="0">a</tspan></text>
  <text class="cls-8" transform="translate(4.45 46.49) rotate(133.86)"><tspan x="0" y="0">l</tspan></text>
  <text class="cls-8" transform="translate(4.27 46.68) rotate(133.83)"><tspan x="0" y="0">k</tspan></text>
  <text class="cls-8" transform="translate(3.89 47.08) rotate(133.79)"><tspan x="0" y="0">a</tspan></text>
  <text class="cls-8" transform="translate(3.51 47.47) rotate(133.75)"><tspan x="0" y="0">r</tspan></text>
  <text class="cls-8" transform="translate(3.25 47.74) rotate(133.72)"><tspan x="0" y="0">t</tspan></text>
  <text class="cls-8" transform="translate(2.94 48.06) rotate(133.68)"><tspan x="0" y="0">e</tspan></text>
</svg>