<?xml version="1.0" encoding="UTF-8"?>
<svg id="Ebene_1" data-name="Ebene 1" xmlns="http://www.w3.org/2000/svg" viewBox="0 0 71.8 43.76">
  <defs>
    <style>
      .cls-1 {
        font-size: .94px;
      }

      .cls-1, .cls-2 {
        fill: #38386a;
      }

      .cls-3 {
        font-family: FHOscarPro-Regular, 'FH Oscar Pro';
      }

      .cls-2 {
        font-family: F37Oracle-SemiBold, 'F37 Oracle';
        font-size: 1.06px;
        font-weight: 600;
      }

      .cls-4, .cls-5 {
        opacity: .5;
      }

      .cls-4, .cls-5, .cls-6 {
        stroke: #38386a;
      }

      .cls-4, .cls-5, .cls-6, .cls-7 {
        fill: none;
        stroke-linecap: round;
        stroke-width: .5px;
      }

      .cls-4, .cls-6, .cls-7 {
        stroke-linejoin: round;
      }

      .cls-8 {
        letter-spacing: 0em;
      }

      .cls-5 {
        stroke-miterlimit: 10;
      }

      .cls-9 {
        font-family: FHOscarPro-Medium, 'FH Oscar Pro';
        font-weight: 500;
      }

      .cls-10 {
        letter-spacing: -.02em;
      }

      .cls-11 {
        letter-spacing: -.02em;
      }

      .cls-12 {
        letter-spacing: -.01em;
      }

      .cls-13 {
        letter-spacing: -.02em;
      }

      .cls-14 {
        letter-spacing: -.03em;
      }

      .cls-15 {
        letter-spacing: 0em;
      }

      .cls-16 {
        letter-spacing: 0em;
      }

      .cls-7 {
        stroke: #39396a;
      }

      .cls-17 {
        letter-spacing: .02em;
      }

      .cls-18 {
        letter-spacing: .02em;
      }

      .cls-19 {
        letter-spacing: .02em;
      }

      .cls-20 {
        letter-spacing: .01em;
      }
    </style>
  </defs>
  <line class="cls-7" x1="36.14" y1="10.15" x2="36.16" y2="17.18"/>
  <polyline class="cls-7" points="37.61 14.76 36.17 17.27 34.68 14.8"/>
  <path class="cls-6" d="M44.43,29.96c-5.61,1.02-11.18,1.04-16.63.06l1.76-9.87c4.28.77,8.66.76,13.09-.03l1.78,9.84Z"/>
  <text class="cls-1" transform="translate(31.55 22.77) rotate(-.71)"><tspan class="cls-9"><tspan class="cls-11" x="0" y="0">Z</tspan><tspan x=".54" y="0">uf</tspan><tspan class="cls-17" x="1.35" y="0">u</tspan><tspan x="1.89" y="0">ß – 2 </tspan><tspan class="cls-14" x="4.11" y="0">F</tspan><tspan class="cls-15" x="4.59" y="0">eld</tspan><tspan class="cls-12" x="5.81" y="0">e</tspan><tspan x="6.29" y="0">r zurück</tspan></tspan><tspan class="cls-9"><tspan x=".75" y="1.13">Öff</tspan><tspan class="cls-19" x="2.02" y="1.13">i</tspan><tspan x="2.23" y="1.13">s – 1 </tspan><tspan class="cls-14" x="4.16" y="1.13">F</tspan><tspan class="cls-15" x="4.65" y="1.13">eld zurück</tspan></tspan><tspan class="cls-3"><tspan x="-.73" y="3.4">Plö</tspan><tspan class="cls-18" x=".54" y="3.4">t</tspan><tspan class="cls-16" x=".86" y="3.4">zlich beginnt </tspan><tspan class="cls-20" x="6.07" y="3.4">e</tspan><tspan x="6.58" y="3.4">s stark zu </tspan></tspan><tspan class="cls-3"><tspan class="cls-10" x="3.28" y="4.53">r</tspan><tspan class="cls-8" x="3.58" y="4.53">egn</tspan><tspan class="cls-13" x="5.1" y="4.53">en</tspan><tspan x="6.07" y="4.53">.</tspan></tspan></text>
  <text class="cls-2" transform="translate(32.84 29.38) rotate(3.24)"><tspan x="0" y="0">R</tspan></text>
  <text class="cls-2" transform="translate(33.46 29.42) rotate(2.5)"><tspan x="0" y="0">e</tspan></text>
  <text class="cls-2" transform="translate(34.02 29.44) rotate(1.77)"><tspan x="0" y="0">g</tspan></text>
  <text class="cls-2" transform="translate(34.64 29.46) rotate(1.03)"><tspan x="0" y="0">e</tspan></text>
  <text class="cls-2" transform="translate(35.19 29.47) rotate(.34)"><tspan x="0" y="0">n</tspan></text>
  <text class="cls-2" transform="translate(35.78 29.47) rotate(-.31)"><tspan x="0" y="0">s</tspan></text>
  <text class="cls-2" transform="translate(36.23 29.47) rotate(-.91)"><tspan x="0" y="0">c</tspan></text>
  <text class="cls-2" transform="translate(36.79 29.46) rotate(-1.58)"><tspan x="0" y="0">h</tspan></text>
  <text class="cls-2" transform="translate(37.36 29.45) rotate(-2.23)"><tspan x="0" y="0">a</tspan></text>
  <text class="cls-2" transform="translate(37.89 29.43) rotate(-2.86)"><tspan x="0" y="0">u</tspan></text>
  <text class="cls-2" transform="translate(38.45 29.4) rotate(-3.51)"><tspan x="0" y="0">e</tspan></text>
  <text class="cls-2" transform="translate(39.01 29.36) rotate(-4.05)"><tspan x="0" y="0">r</tspan></text>
  <path class="cls-5" d="M8.99,22.4c3.67,2.55,7.95,4.6,12.81,6.15,1.98.63,2.7.85,4.72,1.2M45.58,29.75c.84-.14.54-.1,1.38-.3,2.92-.68,7.05-2.37,12.25-4.8,1.97-.93,4.1-1.96,6.38-3.08"/>
  <path class="cls-5" d="M43.7,19.91c.69-.12.34-.07,1.03-.23,3.86-.9,12.84-5.26,20.86-9.29"/>
  <path class="cls-5" d="M8.99,8.75c.89,1.16,1.88,2.23,2.97,3.21,3.3,2.99,7.65,5.36,12.92,7.04,1.54.49,1.97.65,3.55.92"/>
  <line class="cls-4" x1="55.14" y1="17.1" x2="58.04" y2="23.7"/>
  <line class="cls-4" x1="17.34" y1="16.95" x2="13.21" y2="23.63"/>
</svg>